{
copyright = "Copyright (c) 2015, Cadson Demak (info@cadsondemak.com)";
customParameters = (
{
name = vendorID;
value = CDK;
},
{
name = description;
value = "Copyright (c) 2015, Cadson Demak (info@cadsondemak.com)";
},
{
name = license;

glyphs = (
{
glyphname = A;
lastChange = "2015-11-30 01:00:49 +0000";
layers = (
{
layerId = "A85C0A33-2487-4E47-AED8-78B93E482A34";
name = "Regular Italic";
paths = (
{
closed = 1;
nodes = (
"124 0 LINE",
"221 161 LINE",
"517 161 LINE",
"547 0 LINE",
"672 0 LINE",
"541 699 LINE",
"418 699 LINE",
"-10 0 LINE"
);
},
{
closed = 1;
nodes = (
"454 563 LINE",
"504 266 LINE",
"278 266 LINE"
);
}
);
width = 762;
}
);
leftKerningGroup = A;
note = A;
rightKerningGroup = A;
unicode = 0041;
},
{
glyphname = Aacute;
lastChange = "2015-11-30 01:00:51 +0000";
layers = (
{
layerId = "A85C0A33-2487-4E47-AED8-78B93E482A34";
name = "Regular Italic";
paths = (
{
closed = 1;
nodes = (
"124 0 LINE",
"221 161 LINE",
"517 161 LINE",
"547 0 LINE",
"672 0 LINE",
"541 699 LINE",
"418 699 LINE",
"-10 0 LINE"
);
},
{
closed = 1;
nodes = (
"454 563 LINE",
"504 266 LINE",
"278 266 LINE"
);
},
{
closed = 1;
nodes = (
"533 742 LINE",
"656 916 LINE",
"523 916 LINE",
"417 742 LINE"
);
}
);
width = 762;
}
);
leftKerningGroup = A;
note = Aacute;
rightKerningGroup = A;
unicode = 00C1;
},
{
glyphname = Abreve;
lastChange = "2015-11-30 01:00:49 +0000";
layers = (
{
layerId = "A85C0A33-2487-4E47-AED8-78B93E482A34";
name = "Regular Italic";
paths = (
{
closed = 1;
nodes = (
"124 0 LINE",
"221 161 LINE",
"517 161 LINE",
"547 0 LINE",
"672 0 LINE",
"541 699 LINE",
"418 699 LINE",
"-10 0 LINE"
);
},
{
closed = 1;
nodes = (
"454 563 LINE",
"504 266 LINE",
"278 266 LINE"
);
},
{
closed = 1;
nodes = (
"569 742 OFFCURVE",
"642 803 OFFCURVE",
"661 893 CURVE",
"561 893 LINE",
"552 849 OFFCURVE",
"523 826 OFFCURVE",
"481 826 CURVE SMOOTH",
"439 826 OFFCURVE",
"420 849 OFFCURVE",
"429 893 CURVE",
"340 893 LINE",
"321 803 OFFCURVE",
"367 742 OFFCURVE",
"468 742 CURVE SMOOTH"
);
}
);
width = 762;
}
);
leftKerningGroup = A;
note = Abreve;
rightKerningGroup = A;
unicode = 0102;
},
{
glyphname = Abreveacute;
lastChange = "2015-11-30 01:00:52 +0000";
layers = (
{
layerId = "A85C0A33-2487-4E47-AED8-78B93E482A34";
name = "Regular Italic";
paths = (
{
closed = 1;
nodes = (
"124 0 LINE",
"221 161 LINE",
"517 161 LINE",
"547 0 LINE",
"672 0 LINE",
"541 699 LINE",
"418 699 LINE",
"-10 0 LINE"
);
},
{
closed = 1;
nodes = (
"454 563 LINE",
"504 266 LINE",
"278 266 LINE"
);
},
{
closed = 1;
nodes = (
"587 742 OFFCURVE",
"657 801 OFFCURVE",
"675 889 CURVE",
"584 889 LINE",
"575 846 OFFCURVE",
"548 824 OFFCURVE",
"507 824 CURVE SMOOTH",
"466 824 OFFCURVE",
"447 846 OFFCURVE",
"456 889 CURVE",
"364 889 LINE",
"346 801 OFFCURVE",
"391 742 OFFCURVE",
"489 742 CURVE SMOOTH"
);
},
{
closed = 1;
nodes = (
"563 893 LINE",
"656 1019 LINE",
"556 1019 LINE",
"477 893 LINE"
);
}
);
width = 762;
}
);
leftKerningGroup = A;
note = Abreveacute;
rightKerningGroup = A;
unicode = 1EAE;
},
{
glyphname = Abrevedotbelow;
lastChange = "2015-11-30 01:00:49 +0000";
layers = (
{
layerId = "A85C0A33-2487-4E47-AED8-78B93E482A34";
name = "Regular Italic";
paths = (
{
closed = 1;
nodes = (
"124 0 LINE",
"221 161 LINE",
"517 161 LINE",
"547 0 LINE",
"672 0 LINE",
"541 699 LINE",
"418 699 LINE",
"-10 0 LINE"
);
},
{
closed = 1;
nodes = (
"330 -179 OFFCURVE",
"366 -150 OFFCURVE",
"373 -113 CURVE SMOOTH",
"381 -76 OFFCURVE",
"358 -46 OFFCURVE",
"323 -46 CURVE SMOOTH",
"287 -46 OFFCURVE",
"249 -76 OFFCURVE",
"241 -113 CURVE SMOOTH",
"234 -150 OFFCURVE",
"258 -179 OFFCURVE",
"294 -179 CURVE SMOOTH"
);
},
{
closed = 1;
nodes = (
"454 563 LINE",
"504 266 LINE",
"278 266 LINE"
);
},
{
closed = 1;
nodes = (
"569 742 OFFCURVE",
"642 803 OFFCURVE",
"661 893 CURVE",
"561 893 LINE",
"552 849 OFFCURVE",
"523 826 OFFCURVE",
"481 826 CURVE SMOOTH",
"439 826 OFFCURVE",
"420 849 OFFCURVE",
"429 893 CURVE",
"340 893 LINE",
"321 803 OFFCURVE",
"367 742 OFFCURVE",
"468 742 CURVE SMOOTH"
);
}
);
width = 762;
}
);
leftKerningGroup = A;
note = Abrevedotbelow;
rightKerningGroup = A;
unicode = 1EB6;
},
{
glyphname = Abrevegrave;
lastChange = "2015-11-30 01:00:49 +0000";
layers = (
{
layerId = "A85C0A33-2487-4E47-AED8-78B93E482A34";
name = "Regular Italic";
paths = (
{
closed = 1;
nodes = (
"124 0 LINE",
"221 161 LINE",
"517 161 LINE",
"547 0 LINE",
"672 0 LINE",
"541 699 LINE",
"418 699 LINE",
"-10 0 LINE"
);
},
{
closed = 1;
nodes = (
"454 563 LINE",
"504 266 LINE",
"278 266 LINE"
);
},
{
closed = 1;
nodes = (
"587 742 OFFCURVE",
"657 801 OFFCURVE",
"675 889 CURVE",
"584 889 LINE",
"575 846 OFFCURVE",
"548 824 OFFCURVE",
"507 824 CURVE SMOOTH",
"466 824 OFFCURVE",
"447 846 OFFCURVE",
"456 889 CURVE",
"364 889 LINE",
"346 801 OFFCURVE",
"391 742 OFFCURVE",
"489 742 CURVE SMOOTH"
);
},
{
closed = 1;
nodes = (
"565 893 LINE",
"540 1019 LINE",
"439 1019 LINE",
"479 893 LINE"
);
}
);
width = 762;
}
);
leftKerningGroup = A;
note = Abrevegrave;
rightKerningGroup = A;
unicode = 1EB0;
},
{
glyphname = Abrevehookabove;
lastChange = "2015-11-30 01:00:49 +0000";
layers = (
{
layerId = "A85C0A33-2487-4E47-AED8-78B93E482A34";
name = "Regular Italic";
paths = (
{
closed = 1;
nodes = (
"124 0 LINE",
"221 161 LINE",
"517 161 LINE",
"547 0 LINE",
"672 0 LINE",
"541 699 LINE",
"418 699 LINE",
"-10 0 LINE"
);
},
{
closed = 1;
nodes = (
"454 563 LINE",
"504 266 LINE",
"278 266 LINE"
);
},
{
closed = 1;
nodes = (
"587 742 OFFCURVE",
"657 801 OFFCURVE",
"675 889 CURVE",
"586 889 LINE",
"577 846 OFFCURVE",
"547 822 OFFCURVE",
"506 822 CURVE SMOOTH",
"465 822 OFFCURVE",
"445 846 OFFCURVE",
"454 889 CURVE",
"364 889 LINE",
"346 801 OFFCURVE",
"391 742 OFFCURVE",
"489 742 CURVE SMOOTH"
);
},
{
closed = 1;
nodes = (
"560 882 LINE",
"565 906 LINE",
"606 913 OFFCURVE",
"636 937 OFFCURVE",
"643 971 CURVE SMOOTH",
"651 1013 OFFCURVE",
"621 1041 OFFCURVE",
"561 1041 CURVE SMOOTH",
"537 1041 OFFCURVE",
"506 1036 OFFCURVE",
"486 1030 CURVE",
"476 981 LINE",
"487 986 OFFCURVE",
"505 989 OFFCURVE",
"519 989 CURVE SMOOTH",
"547 989 OFFCURVE",
"560 984 OFFCURVE",
"555 963 CURVE SMOOTH",
"550 939 OFFCURVE",
"529 932 OFFCURVE",
"491 932 CURVE",
"481 882 LINE"
);
}
);
width = 762;
}
);
leftKerningGroup = A;
note = Abrevehookabove;
rightKerningGroup = A;
unicode = 1EB2;
},
{
glyphname = Abrevetilde;
lastChange = "2015-11-30 01:00:50 +0000";
layers = (
{
layerId = "A85C0A33-2487-4E47-AED8-78B93E482A34";
name = "Regular Italic";
paths = (
{
closed = 1;
nodes = (
"124 0 LINE",
"221 161 LINE",
"517 161 LINE",
"547 0 LINE",
"672 0 LINE",
"541 699 LINE",
"418 699 LINE",
"-10 0 LINE"
);
},
{
closed = 1;
nodes = (
"454 563 LINE",
"504 266 LINE",
"278 266 LINE"
);
},
{
closed = 1;
nodes = (
"587 742 OFFCURVE",
"657 801 OFFCURVE",
"675 889 CURVE",
"584 889 LINE",
"575 846 OFFCURVE",
"548 824 OFFCURVE",
"507 824 CURVE SMOOTH",
"466 824 OFFCURVE",
"447 846 OFFCURVE",
"456 889 CURVE",
"364 889 LINE",
"346 801 OFFCURVE",
"391 742 OFFCURVE",
"489 742 CURVE SMOOTH"
);
},
{
closed = 1;
nodes = (
"641 925 OFFCURVE",
"668 935 OFFCURVE",
"690 959 CURVE",
"709 1049 LINE",
"681 1018 OFFCURVE",
"653 1007 OFFCURVE",
"623 1007 CURVE SMOOTH",
"575 1007 OFFCURVE",
"529 1050 OFFCURVE",
"479 1050 CURVE SMOOTH",
"444 1050 OFFCURVE",
"415 1040 OFFCURVE",
"393 1015 CURVE",
"374 926 LINE",
"404 957 OFFCURVE",
"430 968 OFFCURVE",
"461 968 CURVE SMOOTH",
"508 968 OFFCURVE",
"552 925 OFFCURVE",
"606 925 CURVE SMOOTH"
);
}
);
width = 762;
}
);
leftKerningGroup = A;
note = Abrevetilde;
rightKerningGroup = A;
unicode = 1EB4;
},
{
glyphname = Acaron;
lastChange = "2015-11-30 01:00:52 +0000";
layers = (
{
layerId = "A85C0A33-2487-4E47-AED8-78B93E482A34";
name = "Regular Italic";
paths = (
{
closed = 1;
nodes = (
"124 0 LINE",
"221 161 LINE",
"517 161 LINE",
"547 0 LINE",
"672 0 LINE",
"541 699 LINE",
"418 699 LINE",
"-10 0 LINE"
);
},
{
closed = 1;
nodes = (
"454 563 LINE",
"504 266 LINE",
"278 266 LINE"
);
},
{
closed = 1;
nodes = (
"524 742 LINE",
"707 913 LINE",
"575 913 LINE",
"477 813 LINE",
"423 913 LINE",
"303 913 LINE",
"412 742 LINE"
);
}
);
width = 762;
}
);
leftKerningGroup = A;
note = Acaron;
rightKerningGroup = A;
unicode = 01CD;
},
{
glyphname = Acircumflex;
lastChange = "2015-11-30 01:00:49 +0000";
layers = (
{
layerId = "A85C0A33-2487-4E47-AED8-78B93E482A34";
name = "Regular Italic";
paths = (
{
closed = 1;
nodes = (
"124 0 LINE",
"221 161 LINE",
"517 161 LINE",
"547 0 LINE",
"672 0 LINE",
"541 699 LINE",
"418 699 LINE",
"-10 0 LINE"
);
},
{
closed = 1;
nodes = (
"454 563 LINE",
"504 266 LINE",
"278 266 LINE"
);
},
{
closed = 1;
nodes = (
"397 742 LINE",
"494 841 LINE",
"549 742 LINE",
"670 742 LINE",
"561 913 LINE",
"449 913 LINE",
"266 742 LINE"
);
}
);
width = 762;
}
);
leftKerningGroup = A;
note = Acircumflex;
rightKerningGroup = A;
unicode = 00C2;
},
{
glyphname = Acircumflexacute;
lastChange = "2015-11-30 01:00:52 +0000";
layers = (
{
layerId = "A85C0A33-2487-4E47-AED8-78B93E482A34";
name = "Regular Italic";
paths = (
{
closed = 1;
nodes = (
"124 0 LINE",
"221 161 LINE",
"517 161 LINE",
"547 0 LINE",
"672 0 LINE",
"541 699 LINE",
"418 699 LINE",
"-10 0 LINE"
);
},
{
closed = 1;
nodes = (
"454 563 LINE",
"504 266 LINE",
"278 266 LINE"
);
},
{
closed = 1;
nodes = (
"417 743 LINE",
"507 827 LINE",
"561 743 LINE",
"679 743 LINE",
"574 895 LINE",
"468 895 LINE",
"297 743 LINE"
);
},
{
closed = 1;
nodes = (
"746 842 LINE",
"850 970 LINE",
"733 970 LINE",
"646 842 LINE"
);
}
);
width = 762;
}
);
leftKerningGroup = A;
note = Acircumflexacute;
rightKerningGroup = A;
unicode = 1EA4;
},
{
glyphname = Acircumflexdotbelow;
lastChange = "2015-11-30 01:00:52 +0000";
layers = (
{
layerId = "A85C0A33-2487-4E47-AED8-78B93E482A34";
name = "Regular Italic";
paths = (
{
closed = 1;
nodes = (
"124 0 LINE",
"221 161 LINE",
"517 161 LINE",
"547 0 LINE",
"672 0 LINE",
"541 699 LINE",
"418 699 LINE",
"-10 0 LINE"
);
},
{
closed = 1;
nodes = (
"330 -179 OFFCURVE",
"366 -150 OFFCURVE",
"373 -113 CURVE SMOOTH",
"381 -76 OFFCURVE",
"358 -46 OFFCURVE",
"323 -46 CURVE SMOOTH",
"287 -46 OFFCURVE",
"249 -76 OFFCURVE",
"241 -113 CURVE SMOOTH",
"234 -150 OFFCURVE",
"258 -179 OFFCURVE",
"294 -179 CURVE SMOOTH"
);
},
{
closed = 1;
nodes = (
"454 563 LINE",
"504 266 LINE",
"278 266 LINE"
);
},
{
closed = 1;
nodes = (
"397 742 LINE",
"494 841 LINE",
"549 742 LINE",
"670 742 LINE",
"561 913 LINE",
"449 913 LINE",
"266 742 LINE"
);
}
);
width = 762;
}
);
leftKerningGroup = A;
note = Acircumflexdotbelow;
rightKerningGroup = A;
unicode = 1EAC;
},
{
glyphname = Acircumflexgrave;
lastChange = "2015-11-30 01:00:50 +0000";
layers = (
{
layerId = "A85C0A33-2487-4E47-AED8-78B93E482A34";
name = "Regular Italic";
paths = (
{
closed = 1;
nodes = (
"124 0 LINE",
"221 161 LINE",
"517 161 LINE",
"547 0 LINE",
"672 0 LINE",
"541 699 LINE",
"418 699 LINE",
"-10 0 LINE"
);
},
{
closed = 1;
nodes = (
"454 563 LINE",
"504 266 LINE",
"278 266 LINE"
);
},
{
closed = 1;
nodes = (
"374 841 LINE",
"340 969 LINE",
"223 969 LINE",
"273 841 LINE"
);
},
{
closed = 1;
nodes = (
"417 742 LINE",
"507 826 LINE",
"560 742 LINE",
"680 742 LINE",
"573 894 LINE",
"468 894 LINE",
"298 742 LINE"
);
}
);
width = 762;
}
);
leftKerningGroup = A;
note = Acircumflexgrave;
rightKerningGroup = A;
unicode = 1EA6;
},
{
glyphname = Acircumflexhookabove;
lastChange = "2015-11-30 01:00:52 +0000";
layers = (
{
layerId = "A85C0A33-2487-4E47-AED8-78B93E482A34";
name = "Regular Italic";
paths = (
{
closed = 1;
nodes = (
"124 0 LINE",
"221 161 LINE",
"517 161 LINE",
"547 0 LINE",
"672 0 LINE",
"541 699 LINE",
"418 699 LINE",
"-10 0 LINE"
);
},
{
closed = 1;
nodes = (
"454 563 LINE",
"504 266 LINE",
"278 266 LINE"
);
},
{
closed = 1;
nodes = (
"417 743 LINE",
"507 827 LINE",
"561 743 LINE",
"679 743 LINE",
"574 895 LINE",
"468 895 LINE",
"297 743 LINE"
);
},
{
closed = 1;
nodes = (
"722 831 LINE",
"727 855 LINE",
"768 862 OFFCURVE",
"798 886 OFFCURVE",
"805 920 CURVE SMOOTH",
"814 962 OFFCURVE",
"783 990 OFFCURVE",
"723 990 CURVE SMOOTH",
"699 990 OFFCURVE",
"668 985 OFFCURVE",
"649 979 CURVE",
"639 930 LINE",
"650 935 OFFCURVE",
"667 938 OFFCURVE",
"681 938 CURVE SMOOTH",
"709 938 OFFCURVE",
"722 933 OFFCURVE",
"717 912 CURVE SMOOTH",
"712 888 OFFCURVE",
"691 881 OFFCURVE",
"654 881 CURVE",
"644 831 LINE"
);
}
);
width = 762;
}
);
leftKerningGroup = A;
note = Acircumflexhookabove;
rightKerningGroup = A;
unicode = 1EA8;
},
{
glyphname = Acircumflextilde;
lastChange = "2015-11-30 01:00:50 +0000";
layers = (
{
layerId = "A85C0A33-2487-4E47-AED8-78B93E482A34";
name = "Regular Italic";
paths = (
{
closed = 1;
nodes = (
"124 0 LINE",
"221 161 LINE",
"517 161 LINE",
"547 0 LINE",
"672 0 LINE",
"541 699 LINE",
"418 699 LINE",
"-10 0 LINE"
);
},
{
closed = 1;
nodes = (
"454 563 LINE",
"504 266 LINE",
"278 266 LINE"
);
},
{
closed = 1;
nodes = (
"418 742 LINE",
"508 826 LINE",
"562 742 LINE",
"680 742 LINE",
"575 894 LINE",
"469 894 LINE",
"298 742 LINE"
);
},
{
closed = 1;
nodes = (
"640 906 OFFCURVE",
"667 916 OFFCURVE",
"689 940 CURVE",
"708 1030 LINE",
"680 999 OFFCURVE",
"653 988 OFFCURVE",
"622 988 CURVE SMOOTH",
"574 988 OFFCURVE",
"528 1031 OFFCURVE",
"478 1031 CURVE SMOOTH",
"443 1031 OFFCURVE",
"414 1021 OFFCURVE",
"392 996 CURVE",
"373 907 LINE",
"403 938 OFFCURVE",
"429 949 OFFCURVE",
"460 949 CURVE SMOOTH",
"507 949 OFFCURVE",
"551 906 OFFCURVE",
"605 906 CURVE SMOOTH"
);
}
);
width = 762;
}
);
leftKerningGroup = A;
note = Acircumflextilde;
rightKerningGroup = A;
unicode = 1EAA;
},
{
glyphname = Adieresis;
lastChange = "2015-11-30 01:00:51 +0000";
layers = (
{
layerId = "A85C0A33-2487-4E47-AED8-78B93E482A34";
name = "Regular Italic";
paths = (
{
closed = 1;
nodes = (
"124 0 LINE",
"221 161 LINE",
"517 161 LINE",
"547 0 LINE",
"672 0 LINE",
"541 699 LINE",
"418 699 LINE",
"-10 0 LINE"
);
},
{
closed = 1;
nodes = (
"454 563 LINE",
"504 266 LINE",
"278 266 LINE"
);
},
{
closed = 1;
nodes = (
"387 752 OFFCURVE",
"424 781 OFFCURVE",
"431 818 CURVE SMOOTH",
"439 855 OFFCURVE",
"416 885 OFFCURVE",
"380 885 CURVE SMOOTH",
"345 885 OFFCURVE",
"307 855 OFFCURVE",
"299 818 CURVE SMOOTH",
"292 781 OFFCURVE",
"316 752 OFFCURVE",
"351 752 CURVE SMOOTH"
);
},
{
closed = 1;
nodes = (
"624 752 OFFCURVE",
"661 781 OFFCURVE",
"668 818 CURVE SMOOTH",
"676 855 OFFCURVE",
"653 885 OFFCURVE",
"617 885 CURVE SMOOTH",
"581 885 OFFCURVE",
"543 855 OFFCURVE",
"535 818 CURVE SMOOTH",
"528 781 OFFCURVE",
"552 752 OFFCURVE",
"588 752 CURVE SMOOTH"
);
}
);
width = 762;
}
);
leftKerningGroup = A;
note = Adieresis;
rightKerningGroup = A;
unicode = 00C4;
},
{
glyphname = Adotbelow;
lastChange = "2015-11-30 01:00:50 +0000";
layers = (
{
layerId = "A85C0A33-2487-4E47-AED8-78B93E482A34";
name = "Regular Italic";
paths = (
{
closed = 1;
nodes = (
"124 0 LINE",
"221 161 LINE",
"517 161 LINE",
"547 0 LINE",
"672 0 LINE",
"541 699 LINE",
"418 699 LINE",
"-10 0 LINE"
);
},
{
closed = 1;
nodes = (
"329 -179 OFFCURVE",
"365 -150 OFFCURVE",
"372 -113 CURVE SMOOTH",
"380 -76 OFFCURVE",
"357 -46 OFFCURVE",
"322 -46 CURVE SMOOTH",
"286 -46 OFFCURVE",
"248 -76 OFFCURVE",
"240 -113 CURVE SMOOTH",
"233 -150 OFFCURVE",
"257 -179 OFFCURVE",
"293 -179 CURVE SMOOTH"
);
},
{
closed = 1;
nodes = (
"454 563 LINE",
"504 266 LINE",
"278 266 LINE"
);
}
);
width = 762;
}
);
leftKerningGroup = A;
note = Adotbelow;
rightKerningGroup = A;
unicode = 1EA0;
},
{
glyphname = Agrave;
lastChange = "2015-11-30 01:00:51 +0000";
layers = (
{
layerId = "A85C0A33-2487-4E47-AED8-78B93E482A34";
name = "Regular Italic";
paths = (
{
closed = 1;
nodes = (
"124 0 LINE",
"221 161 LINE",
"517 161 LINE",
"547 0 LINE",
"672 0 LINE",
"541 699 LINE",
"418 699 LINE",
"-10 0 LINE"
);
},
{
closed = 1;
nodes = (
"454 563 LINE",
"504 266 LINE",
"278 266 LINE"
);
},
{
closed = 1;
nodes = (
"524 742 LINE",
"492 916 LINE",
"359 916 LINE",
"408 742 LINE"
);
}
);
width = 762;
}
);
leftKerningGroup = A;
note = Agrave;
rightKerningGroup = A;
unicode = 00C0;
},
{
glyphname = Ahookabove;
lastChange = "2015-11-30 01:00:51 +0000";
layers = (
{
layerId = "A85C0A33-2487-4E47-AED8-78B93E482A34";
name = "Regular Italic";
paths = (
{
closed = 1;
nodes = (
"124 0 LINE",
"221 161 LINE",
"517 161 LINE",
"547 0 LINE",
"672 0 LINE",
"541 699 LINE",
"418 699 LINE",
"-10 0 LINE"
);
},
{
closed = 1;
nodes = (
"454 563 LINE",
"504 266 LINE",
"278 266 LINE"
);
},
{
closed = 1;
nodes = (
"524 742 LINE",
"531 776 LINE",
"592 785 OFFCURVE",
"632 822 OFFCURVE",
"642 870 CURVE SMOOTH",
"655 929 OFFCURVE",
"617 970 OFFCURVE",
"523 970 CURVE SMOOTH",
"487 970 OFFCURVE",
"447 963 OFFCURVE",
"422 956 CURVE",
"408 890 LINE",
"423 896 OFFCURVE",
"461 902 OFFCURVE",
"477 902 CURVE SMOOTH",
"522 902 OFFCURVE",
"536 891 OFFCURVE",
"531 865 CURVE SMOOTH",
"523 827 OFFCURVE",
"486 816 OFFCURVE",
"430 816 CURVE",
"414 742 LINE"
);
}
);
width = 762;
}
);
leftKerningGroup = A;
note = Ahookabove;
rightKerningGroup = A;
unicode = 1EA2;
},
{
glyphname = Amacron;
lastChange = "2015-11-30 01:00:50 +0000";
layers = (
{
layerId = "A85C0A33-2487-4E47-AED8-78B93E482A34";
name = "Regular Italic";
paths = (
{
closed = 1;
nodes = (
"124 0 LINE",
"221 161 LINE",
"517 161 LINE",
"547 0 LINE",
"672 0 LINE",
"541 699 LINE",
"418 699 LINE",
"-10 0 LINE"
);
},
{
closed = 1;
nodes = (
"454 563 LINE",
"504 266 LINE",
"278 266 LINE"
);
},
{
closed = 1;
nodes = (
"632 752 LINE",
"650 836 LINE",
"328 836 LINE",
"310 752 LINE"
);
}
);
width = 762;
}
);
leftKerningGroup = A;
note = Amacron;
rightKerningGroup = A;
unicode = 0100;
},
{
glyphname = Aogonek;
lastChange = "2015-11-30 01:00:52 +0000";
layers = (
{
layerId = "A85C0A33-2487-4E47-AED8-78B93E482A34";
name = "Regular Italic";
paths = (
{
closed = 1;
nodes = (
"582 -213 OFFCURVE",
"616 -208 OFFCURVE",
"639 -200 CURVE",
"654 -128 LINE",
"639 -135 OFFCURVE",
"621 -139 OFFCURVE",
"604 -139 CURVE SMOOTH",
"580 -139 OFFCURVE",
"567 -125 OFFCURVE",
"572 -99 CURVE SMOOTH",
"580 -61 OFFCURVE",
"613 -31 OFFCURVE",
"672 0 CURVE",
"541 699 LINE",
"418 699 LINE",
"-10 0 LINE",
"124 0 LINE",
"221 161 LINE",
"517 161 LINE",
"547 0 LINE",
"509 -26 OFFCURVE",
"469 -68 OFFCURVE",
"458 -121 CURVE SMOOTH",
"444 -184 OFFCURVE",
"487 -213 OFFCURVE",
"550 -213 CURVE SMOOTH"
);
},
{
closed = 1;
nodes = (
"454 563 LINE",
"504 266 LINE",
"278 266 LINE"
);
}
);
width = 762;
}
);
leftKerningGroup = A;
note = Aogonek;
rightKerningGroup = A;
unicode = 0104;
},
{
glyphname = Aring;
lastChange = "2015-11-30 01:00:49 +0000";
layers = (
{
layerId = "A85C0A33-2487-4E47-AED8-78B93E482A34";
name = "Regular Italic";
paths = (
{
closed = 1;
nodes = (
"124 0 LINE",
"221 161 LINE",
"517 161 LINE",
"547 0 LINE",
"672 0 LINE",
"545 675 LINE",
"583 697 OFFCURVE",
"610 734 OFFCURVE",
"620 778 CURVE SMOOTH",
"635 847 OFFCURVE",
"591 903 OFFCURVE",
"522 903 CURVE SMOOTH",
"449 903 OFFCURVE",
"386 847 OFFCURVE",
"371 778 CURVE SMOOTH",
"361 735 OFFCURVE",
"375 697 OFFCURVE",
"403 675 CURVE",
"-10 0 LINE"
);
},
{
closed = 1;
nodes = (
"454 563 LINE",
"504 266 LINE",
"278 266 LINE"
);
},
{
closed = 1;
nodes = (
"450 727 OFFCURVE",
"438 750 OFFCURVE",
"444 778 CURVE SMOOTH",
"450 806 OFFCURVE",
"478 829 OFFCURVE",
"506 829 CURVE SMOOTH",
"541 829 OFFCURVE",
"552 806 OFFCURVE",
"546 778 CURVE SMOOTH",
"540 750 OFFCURVE",
"512 727 OFFCURVE",
"484 727 CURVE SMOOTH"
);
}
);
width = 762;
}
);
leftKerningGroup = A;
note = Aring;
rightKerningGroup = A;
unicode = 00C5;
},
{
glyphname = Aringacute;
lastChange = "2015-11-30 01:00:51 +0000";
layers = (
{
layerId = "A85C0A33-2487-4E47-AED8-78B93E482A34";
name = "Regular Italic";
paths = (
{
closed = 1;
nodes = (
"124 0 LINE",
"221 161 LINE",
"517 161 LINE",
"547 0 LINE",
"672 0 LINE",
"545 675 LINE",
"583 697 OFFCURVE",
"610 734 OFFCURVE",
"620 778 CURVE SMOOTH",
"635 847 OFFCURVE",
"591 903 OFFCURVE",
"522 903 CURVE SMOOTH",
"449 903 OFFCURVE",
"386 847 OFFCURVE",
"371 778 CURVE SMOOTH",
"361 735 OFFCURVE",
"375 697 OFFCURVE",
"403 675 CURVE",
"-10 0 LINE"
);
},
{
closed = 1;
nodes = (
"454 563 LINE",
"504 266 LINE",
"278 266 LINE"
);
},
{
closed = 1;
nodes = (
"450 727 OFFCURVE",
"438 750 OFFCURVE",
"444 778 CURVE SMOOTH",
"450 806 OFFCURVE",
"478 829 OFFCURVE",
"506 829 CURVE SMOOTH",
"541 829 OFFCURVE",
"552 806 OFFCURVE",
"546 778 CURVE SMOOTH",
"540 750 OFFCURVE",
"512 727 OFFCURVE",
"484 727 CURVE SMOOTH"
);
},
{
closed = 1;
nodes = (
"590 919 LINE",
"713 1058 LINE",
"580 1058 LINE",
"474 919 LINE"
);
}
);
width = 762;
}
);
leftKerningGroup = A;
note = Aringacute;
rightKerningGroup = A;
unicode = 01FA;
},
{
glyphname = Atilde;
lastChange = "2015-11-30 01:00:49 +0000";
layers = (
{
layerId = "A85C0A33-2487-4E47-AED8-78B93E482A34";
name = "Regular Italic";
paths = (
{
closed = 1;
nodes = (
"124 0 LINE",
"221 161 LINE",
"517 161 LINE",
"547 0 LINE",
"672 0 LINE",
"541 699 LINE",
"418 699 LINE",
"-10 0 LINE"
);
},
{
closed = 1;
nodes = (
"454 563 LINE",
"504 266 LINE",
"278 266 LINE"
);
},
{
closed = 1;
nodes = (
"313 781 OFFCURVE",
"348 794 OFFCURVE",
"385 794 CURVE SMOOTH",
"449 794 OFFCURVE",
"491 744 OFFCURVE",
"564 744 CURVE SMOOTH",
"606 744 OFFCURVE",
"643 755 OFFCURVE",
"672 786 CURVE",
"694 889 LINE",
"658 851 OFFCURVE",
"622 838 OFFCURVE",
"584 838 CURVE SMOOTH",
"519 838 OFFCURVE",
"473 888 OFFCURVE",
"405 888 CURVE SMOOTH",
"364 888 OFFCURVE",
"326 876 OFFCURVE",
"296 845 CURVE",
"274 742 LINE"
);
}
);
width = 762;
}
);
leftKerningGroup = A;
note = Atilde;
rightKerningGroup = A;
unicode = 00C3;
},
{
glyphname = AE;
lastChange = "2015-11-30 01:00:50 +0000";
layers = (
{
layerId = "A85C0A33-2487-4E47-AED8-78B93E482A34";
name = "Regular Italic";
paths = (
{
closed = 1;
nodes = (
"126 0 LINE",
"241 171 LINE",
"432 171 LINE",
"396 0 LINE",
"834 0 LINE",
"856 105 LINE",
"545 105 LINE",
"586 297 LINE",
"808 297 LINE",
"830 402 LINE",
"608 402 LINE",
"649 594 LINE",
"960 594 LINE",
"982 699 LINE",
"469 699 LINE",
"-10 0 LINE"
);
},
{
closed = 1;
nodes = (
"519 594 LINE",
"522 594 LINE",
"452 266 LINE",
"309 266 LINE"
);
}
);
width = 924;
}
);
leftKerningGroup = A;
note = AE;
rightKerningGroup = E;
unicode = 00C6;
},
{
glyphname = AEacute;
lastChange = "2015-11-30 01:00:52 +0000";
layers = (
{
layerId = "A85C0A33-2487-4E47-AED8-78B93E482A34";
name = "Regular Italic";
paths = (
{
closed = 1;
nodes = (
"126 0 LINE",
"241 171 LINE",
"432 171 LINE",
"396 0 LINE",
"834 0 LINE",
"856 105 LINE",
"545 105 LINE",
"586 297 LINE",
"808 297 LINE",
"830 402 LINE",
"608 402 LINE",
"649 594 LINE",
"960 594 LINE",
"982 699 LINE",
"469 699 LINE",
"-10 0 LINE"
);
},
{
closed = 1;
nodes = (
"519 594 LINE",
"522 594 LINE",
"452 266 LINE",
"309 266 LINE"
);
},
{
closed = 1;
nodes = (
"696 742 LINE",
"819 916 LINE",
"686 916 LINE",
"580 742 LINE"
);
}
);
width = 924;
}
);
leftKerningGroup = A;
note = AEacute;
rightKerningGroup = E;
unicode = 01FC;
},
{
glyphname = B;
lastChange = "2015-11-30 01:00:50 +0000";
layers = (
{
layerId = "A85C0A33-2487-4E47-AED8-78B93E482A34";
name = "Regular Italic";
paths = (
{
closed = 1;
nodes = (
"359 0 LINE SMOOTH",
"485 0 OFFCURVE",
"585 74 OFFCURVE",
"610 201 CURVE SMOOTH",
"626 284 OFFCURVE",
"600 334 OFFCURVE",
"535 362 CURVE",
"592 389 OFFCURVE",
"640 444 OFFCURVE",
"653 511 CURVE SMOOTH",
"675 623 OFFCURVE",
"602 699 OFFCURVE",
"482 699 CURVE SMOOTH",
"158 699 LINE",
"10 0 LINE"
);
},
{
closed = 1;
nodes = (
"201 306 LINE",
"388 306 LINE SMOOTH",
"463 306 OFFCURVE",
"498 277 OFFCURVE",
"482 200 CURVE SMOOTH",
"465 121 OFFCURVE",
"416 100 OFFCURVE",
"351 100 CURVE SMOOTH",
"157 100 LINE"
);
},
{
closed = 1;
nodes = (
"263 599 LINE",
"443 599 LINE SMOOTH",
"504 599 OFFCURVE",
"540 582 OFFCURVE",
"523 503 CURVE SMOOTH",
"509 435 OFFCURVE",
"470 408 OFFCURVE",
"408 408 CURVE SMOOTH",
"222 408 LINE"
);
}
);
width = 658;
}
);
note = B;
unicode = 0042;
},
{
glyphname = C;
lastChange = "2015-11-30 01:00:50 +0000";
layers = (
{
layerId = "A85C0A33-2487-4E47-AED8-78B93E482A34";
name = "Regular Italic";
paths = (
{
closed = 1;
nodes = (
"460 -15 OFFCURVE",
"557 5 OFFCURVE",
"626 57 CURVE",
"651 178 LINE",
"572 122 OFFCURVE",
"492 100 OFFCURVE",
"396 100 CURVE SMOOTH",
"223 100 OFFCURVE",
"159 195 OFFCURVE",
"192 349 CURVE SMOOTH",
"224 502 OFFCURVE",
"348 598 OFFCURVE",
"502 598 CURVE SMOOTH",
"594 598 OFFCURVE",
"667 576 OFFCURVE",
"717 524 CURVE",
"743 645 LINE",
"687 692 OFFCURVE",
"613 714 OFFCURVE",
"515 714 CURVE SMOOTH",
"285 714 OFFCURVE",
"113 578 OFFCURVE",
"66 355 CURVE SMOOTH",
"18 132 OFFCURVE",
"157 -15 OFFCURVE",
"360 -15 CURVE SMOOTH"
);
}
);
width = 704;
}
);
leftKerningGroup = C;
note = C;
rightKerningGroup = C;
unicode = 0043;
},
{
glyphname = Cacute;
lastChange = "2015-11-30 01:00:49 +0000";
layers = (
{
layerId = "A85C0A33-2487-4E47-AED8-78B93E482A34";
name = "Regular Italic";
paths = (
{
closed = 1;
nodes = (
"460 -15 OFFCURVE",
"557 5 OFFCURVE",
"626 57 CURVE",
"651 178 LINE",
"572 122 OFFCURVE",
"492 100 OFFCURVE",
"396 100 CURVE SMOOTH",
"223 100 OFFCURVE",
"159 195 OFFCURVE",
"192 349 CURVE SMOOTH",
"224 502 OFFCURVE",
"348 598 OFFCURVE",
"502 598 CURVE SMOOTH",
"594 598 OFFCURVE",
"667 576 OFFCURVE",
"717 524 CURVE",
"743 645 LINE",
"687 692 OFFCURVE",
"613 714 OFFCURVE",
"515 714 CURVE SMOOTH",
"285 714 OFFCURVE",
"113 578 OFFCURVE",
"66 355 CURVE SMOOTH",
"18 132 OFFCURVE",
"157 -15 OFFCURVE",
"360 -15 CURVE SMOOTH"
);
},
{
closed = 1;
nodes = (
"551 742 LINE",
"674 916 LINE",
"541 916 LINE",
"435 742 LINE"
);
}
);
width = 704;
}
);
leftKerningGroup = C;
note = Cacute;
rightKerningGroup = C;
unicode = 0106;
},
{
glyphname = Ccaron;
lastChange = "2015-11-30 01:00:52 +0000";
layers = (
{
layerId = "A85C0A33-2487-4E47-AED8-78B93E482A34";
name = "Regular Italic";
paths = (
{
closed = 1;
nodes = (
"460 -15 OFFCURVE",
"557 5 OFFCURVE",
"626 57 CURVE",
"651 178 LINE",
"572 122 OFFCURVE",
"492 100 OFFCURVE",
"396 100 CURVE SMOOTH",
"223 100 OFFCURVE",
"159 195 OFFCURVE",
"192 349 CURVE SMOOTH",
"224 502 OFFCURVE",
"348 598 OFFCURVE",
"502 598 CURVE SMOOTH",
"594 598 OFFCURVE",
"667 576 OFFCURVE",
"717 524 CURVE",
"743 645 LINE",
"687 692 OFFCURVE",
"613 714 OFFCURVE",
"515 714 CURVE SMOOTH",
"285 714 OFFCURVE",
"113 578 OFFCURVE",
"66 355 CURVE SMOOTH",
"18 132 OFFCURVE",
"157 -15 OFFCURVE",
"360 -15 CURVE SMOOTH"
);
},
{
closed = 1;
nodes = (
"548 742 LINE",
"731 913 LINE",
"599 913 LINE",
"501 813 LINE",
"447 913 LINE",
"327 913 LINE",
"436 742 LINE"
);
}
);
width = 704;
}
);
leftKerningGroup = C;
note = Ccaron;
rightKerningGroup = C;
unicode = 010C;
},
{
glyphname = Ccedilla;
lastChange = "2015-11-30 01:00:51 +0000";
layers = (
{
layerId = "A85C0A33-2487-4E47-AED8-78B93E482A34";
name = "Regular Italic";
paths = (
{
closed = 1;
nodes = (
"394 -248 OFFCURVE",
"458 -213 OFFCURVE",
"472 -150 CURVE SMOOTH",
"483 -97 OFFCURVE",
"459 -59 OFFCURVE",
"402 -52 CURVE",
"426 -12 LINE",
"502 -4 OFFCURVE",
"572 16 OFFCURVE",
"626 57 CURVE",
"651 178 LINE",
"572 122 OFFCURVE",
"492 100 OFFCURVE",
"396 100 CURVE SMOOTH",
"223 100 OFFCURVE",
"159 195 OFFCURVE",
"192 349 CURVE SMOOTH",
"224 502 OFFCURVE",
"348 598 OFFCURVE",
"502 598 CURVE SMOOTH",
"594 598 OFFCURVE",
"667 576 OFFCURVE",
"717 524 CURVE",
"743 645 LINE",
"687 692 OFFCURVE",
"613 714 OFFCURVE",
"515 714 CURVE SMOOTH",
"285 714 OFFCURVE",
"113 578 OFFCURVE",
"66 355 CURVE SMOOTH",
"22 149 OFFCURVE",
"136 9 OFFCURVE",
"313 -12 CURVE",
"270 -85 LINE",
"343 -85 OFFCURVE",
"365 -108 OFFCURVE",
"358 -138 CURVE SMOOTH",
"352 -166 OFFCURVE",
"328 -179 OFFCURVE",
"290 -179 CURVE SMOOTH",
"270 -179 OFFCURVE",
"248 -174 OFFCURVE",
"235 -167 CURVE",
"219 -236 LINE",
"236 -243 OFFCURVE",
"271 -248 OFFCURVE",
"308 -248 CURVE SMOOTH"
);
}
);
width = 704;
}
);
leftKerningGroup = C;
note = Ccedilla;
rightKerningGroup = C;
unicode = 00C7;
},
{
glyphname = Ccircumflex;
lastChange = "2015-11-30 01:00:52 +0000";
layers = (
{
layerId = "A85C0A33-2487-4E47-AED8-78B93E482A34";
name = "Regular Italic";
paths = (
{
closed = 1;
nodes = (
"460 -15 OFFCURVE",
"557 5 OFFCURVE",
"626 57 CURVE",
"651 178 LINE",
"572 122 OFFCURVE",
"492 100 OFFCURVE",
"396 100 CURVE SMOOTH",
"223 100 OFFCURVE",
"159 195 OFFCURVE",
"192 349 CURVE SMOOTH",
"224 502 OFFCURVE",
"348 598 OFFCURVE",
"502 598 CURVE SMOOTH",
"594 598 OFFCURVE",
"667 576 OFFCURVE",
"717 524 CURVE",
"743 645 LINE",
"687 692 OFFCURVE",
"613 714 OFFCURVE",
"515 714 CURVE SMOOTH",
"285 714 OFFCURVE",
"113 578 OFFCURVE",
"66 355 CURVE SMOOTH",
"18 132 OFFCURVE",
"157 -15 OFFCURVE",
"360 -15 CURVE SMOOTH"
);
},
{
closed = 1;
nodes = (
"421 742 LINE",
"518 841 LINE",
"573 742 LINE",
"694 742 LINE",
"585 913 LINE",
"473 913 LINE",
"290 742 LINE"
);
}
);
width = 704;
}
);
leftKerningGroup = C;
note = Ccircumflex;
rightKerningGroup = C;
unicode = 0108;
},
{
glyphname = Cdotaccent;
lastChange = "2015-11-30 01:00:50 +0000";
layers = (
{
layerId = "A85C0A33-2487-4E47-AED8-78B93E482A34";
name = "Regular Italic";
paths = (
{
closed = 1;
nodes = (
"460 -15 OFFCURVE",
"557 5 OFFCURVE",
"626 57 CURVE",
"651 178 LINE",
"572 122 OFFCURVE",
"492 100 OFFCURVE",
"396 100 CURVE SMOOTH",
"223 100 OFFCURVE",
"159 195 OFFCURVE",
"192 349 CURVE SMOOTH",
"224 502 OFFCURVE",
"348 598 OFFCURVE",
"502 598 CURVE SMOOTH",
"594 598 OFFCURVE",
"667 576 OFFCURVE",
"717 524 CURVE",
"743 645 LINE",
"687 692 OFFCURVE",
"613 714 OFFCURVE",
"515 714 CURVE SMOOTH",
"285 714 OFFCURVE",
"113 578 OFFCURVE",
"66 355 CURVE SMOOTH",
"18 132 OFFCURVE",
"157 -15 OFFCURVE",
"360 -15 CURVE SMOOTH"
);
},
{
closed = 1;
nodes = (
"526 752 OFFCURVE",
"563 781 OFFCURVE",
"570 818 CURVE SMOOTH",
"578 855 OFFCURVE",
"555 885 OFFCURVE",
"519 885 CURVE SMOOTH",
"483 885 OFFCURVE",
"445 855 OFFCURVE",
"437 818 CURVE SMOOTH",
"430 781 OFFCURVE",
"454 752 OFFCURVE",
"490 752 CURVE SMOOTH"
);
}
);
width = 704;
}
);
leftKerningGroup = C;
note = Cdotaccent;
rightKerningGroup = C;
unicode = 010A;
},
{
glyphname = D;
lastChange = "2015-11-30 01:00:49 +0000";
layers = (
{
layerId = "A85C0A33-2487-4E47-AED8-78B93E482A34";
name = "Regular Italic";
paths = (
{
closed = 1;
nodes = (
"243 0 LINE SMOOTH",
"479 0 OFFCURVE",
"645 115 OFFCURVE",
"691 353 CURVE SMOOTH",
"730 556 OFFCURVE",
"613 699 OFFCURVE",
"392 699 CURVE SMOOTH",
"158 699 LINE",
"10 0 LINE"
);
},
{
closed = 1;
nodes = (
"263 594 LINE",
"374 594 LINE SMOOTH",
"548 594 OFFCURVE",
"593 495 OFFCURVE",
"563 353 CURVE SMOOTH",
"530 199 OFFCURVE",
"430 105 OFFCURVE",
"257 105 CURVE SMOOTH",
"159 105 LINE"
);
}
);
width = 706;
}
);
note = D;
rightKerningGroup = D;
unicode = 0044;
},
{
glyphname = Eth;
lastChange = "2015-11-30 01:00:52 +0000";
layers = (
{
layerId = "A85C0A33-2487-4E47-AED8-78B93E482A34";
name = "Regular Italic";
paths = (
{
closed = 1;
nodes = (
"262 0 LINE SMOOTH",
"498 0 OFFCURVE",
"664 115 OFFCURVE",
"710 353 CURVE SMOOTH",
"749 556 OFFCURVE",
"632 699 OFFCURVE",
"411 699 CURVE SMOOTH",
"177 699 LINE",
"113 397 LINE",
"54 397 LINE",
"33 301 LINE",
"92 301 LINE",
"29 0 LINE"
);
},
{
closed = 1;
nodes = (
"219 301 LINE",
"391 301 LINE",
"412 397 LINE",
"240 397 LINE",
"282 594 LINE",
"393 594 LINE SMOOTH",
"567 594 OFFCURVE",
"612 495 OFFCURVE",
"582 353 CURVE SMOOTH",
"549 199 OFFCURVE",
"449 105 OFFCURVE",
"276 105 CURVE SMOOTH",
"178 105 LINE"
);
}
);
width = 725;
}
);
note = Eth;
rightKerningGroup = D;
unicode = 00D0;
},
{
glyphname = Dcaron;
lastChange = "2015-11-30 01:00:51 +0000";
layers = (
{
layerId = "A85C0A33-2487-4E47-AED8-78B93E482A34";
name = "Regular Italic";
paths = (
{
closed = 1;
nodes = (
"243 0 LINE SMOOTH",
"479 0 OFFCURVE",
"645 115 OFFCURVE",
"691 353 CURVE SMOOTH",
"730 556 OFFCURVE",
"613 699 OFFCURVE",
"392 699 CURVE SMOOTH",
"158 699 LINE",
"10 0 LINE"
);
},
{
closed = 1;
nodes = (
"263 594 LINE",
"374 594 LINE SMOOTH",
"548 594 OFFCURVE",
"593 495 OFFCURVE",
"563 353 CURVE SMOOTH",
"530 199 OFFCURVE",
"430 105 OFFCURVE",
"257 105 CURVE SMOOTH",
"159 105 LINE"
);
},
{
closed = 1;
nodes = (
"473 742 LINE",
"656 913 LINE",
"524 913 LINE",
"426 813 LINE",
"372 913 LINE",
"252 913 LINE",
"361 742 LINE"
);
}
);
width = 706;
}
);
note = Dcaron;
rightKerningGroup = D;
unicode = 010E;
},
{
glyphname = Dcroat;
lastChange = "2015-11-30 01:00:51 +0000";
layers = (
{
layerId = "A85C0A33-2487-4E47-AED8-78B93E482A34";
name = "Regular Italic";
paths = (
{
closed = 1;
nodes = (
"262 0 LINE SMOOTH",
"498 0 OFFCURVE",
"664 115 OFFCURVE",
"710 353 CURVE SMOOTH",
"749 556 OFFCURVE",
"632 699 OFFCURVE",
"411 699 CURVE SMOOTH",
"177 699 LINE",
"113 397 LINE",
"54 397 LINE",
"33 301 LINE",
"92 301 LINE",
"29 0 LINE"
);
},
{
closed = 1;
nodes = (
"219 301 LINE",
"391 301 LINE",
"412 397 LINE",
"240 397 LINE",
"282 594 LINE",
"393 594 LINE SMOOTH",
"567 594 OFFCURVE",
"612 495 OFFCURVE",
"582 353 CURVE SMOOTH",
"549 199 OFFCURVE",
"449 105 OFFCURVE",
"276 105 CURVE SMOOTH",
"178 105 LINE"
);
}
);
width = 725;
}
);
note = Dcroat;
rightKerningGroup = D;
unicode = 0110;
},
{
glyphname = Ddotbelow;
lastChange = "2015-11-30 01:00:51 +0000";
layers = (
{
layerId = "A85C0A33-2487-4E47-AED8-78B93E482A34";
name = "Regular Italic";
paths = (
{
closed = 1;
nodes = (
"243 0 LINE SMOOTH",
"479 0 OFFCURVE",
"645 115 OFFCURVE",
"691 353 CURVE SMOOTH",
"730 556 OFFCURVE",
"613 699 OFFCURVE",
"392 699 CURVE SMOOTH",
"158 699 LINE",
"10 0 LINE"
);
},
{
closed = 1;
nodes = (
"225 -179 OFFCURVE",
"261 -150 OFFCURVE",
"268 -113 CURVE SMOOTH",
"276 -76 OFFCURVE",
"253 -46 OFFCURVE",
"218 -46 CURVE SMOOTH",
"182 -46 OFFCURVE",
"144 -76 OFFCURVE",
"136 -113 CURVE SMOOTH",
"129 -150 OFFCURVE",
"153 -179 OFFCURVE",
"189 -179 CURVE SMOOTH"
);
},
{
closed = 1;
nodes = (
"263 594 LINE",
"374 594 LINE SMOOTH",
"548 594 OFFCURVE",
"593 495 OFFCURVE",
"563 353 CURVE SMOOTH",
"530 199 OFFCURVE",
"430 105 OFFCURVE",
"257 105 CURVE SMOOTH",
"159 105 LINE"
);
}
);
width = 706;
}
);
note = Ddotbelow;
rightKerningGroup = D;
unicode = 1E0C;
},
{
glyphname = Dlinebelow;
lastChange = "2015-11-30 01:00:51 +0000";
layers = (
{
layerId = "A85C0A33-2487-4E47-AED8-78B93E482A34";
name = "Regular Italic";
paths = (
{
closed = 1;
nodes = (
"243 0 LINE SMOOTH",
"479 0 OFFCURVE",
"645 115 OFFCURVE",
"691 353 CURVE SMOOTH",
"730 556 OFFCURVE",
"613 699 OFFCURVE",
"392 699 CURVE SMOOTH",
"158 699 LINE",
"10 0 LINE"
);
},
{
closed = 1;
nodes = (
"373 -151 LINE",
"391 -68 LINE",
"69 -68 LINE",
"51 -151 LINE"
);
},
{
closed = 1;
nodes = (
"263 594 LINE",
"374 594 LINE SMOOTH",
"548 594 OFFCURVE",
"593 495 OFFCURVE",
"563 353 CURVE SMOOTH",
"530 199 OFFCURVE",
"430 105 OFFCURVE",
"257 105 CURVE SMOOTH",
"159 105 LINE"
);
}
);
width = 706;
}
);
note = Dlinebelow;
rightKerningGroup = D;
unicode = 1E0E;
},
{
glyphname = E;
lastChange = "2015-11-30 01:00:50 +0000";
layers = (
{
layerId = "A85C0A33-2487-4E47-AED8-78B93E482A34";
name = "Regular Italic";
paths = (
{
closed = 1;
nodes = (
"483 0 LINE",
"505 105 LINE",
"159 105 LINE",
"200 297 LINE",
"457 297 LINE",
"479 402 LINE",
"222 402 LINE",
"263 594 LINE",
"609 594 LINE",
"631 699 LINE",
"158 699 LINE",
"10 0 LINE"
);
}
);
width = 563;
}
);
leftKerningGroup = E;
note = E;
rightKerningGroup = E;
unicode = 0045;
},
{
glyphname = Eacute;
lastChange = "2015-11-30 01:00:50 +0000";
layers = (
{
layerId = "A85C0A33-2487-4E47-AED8-78B93E482A34";
name = "Regular Italic";
paths = (
{
closed = 1;
nodes = (
"483 0 LINE",
"505 105 LINE",
"159 105 LINE",
"200 297 LINE",
"457 297 LINE",
"479 402 LINE",
"222 402 LINE",
"263 594 LINE",
"609 594 LINE",
"631 699 LINE",
"158 699 LINE",
"10 0 LINE"
);
},
{
closed = 1;
nodes = (
"422 742 LINE",
"545 916 LINE",
"412 916 LINE",
"306 742 LINE"
);
}
);
width = 563;
}
);
leftKerningGroup = E;
note = Eacute;
rightKerningGroup = E;
unicode = 00C9;
},
{
glyphname = Ebreve;
lastChange = "2015-11-30 01:00:52 +0000";
layers = (
{
layerId = "A85C0A33-2487-4E47-AED8-78B93E482A34";
name = "Regular Italic";
paths = (
{
closed = 1;
nodes = (
"483 0 LINE",
"505 105 LINE",
"159 105 LINE",
"200 297 LINE",
"457 297 LINE",
"479 402 LINE",
"222 402 LINE",
"263 594 LINE",
"609 594 LINE",
"631 699 LINE",
"158 699 LINE",
"10 0 LINE"
);
},
{
closed = 1;
nodes = (
"498 742 OFFCURVE",
"571 803 OFFCURVE",
"590 893 CURVE",
"490 893 LINE",
"481 849 OFFCURVE",
"452 826 OFFCURVE",
"410 826 CURVE SMOOTH",
"368 826 OFFCURVE",
"349 849 OFFCURVE",
"358 893 CURVE",
"269 893 LINE",
"250 803 OFFCURVE",
"296 742 OFFCURVE",
"397 742 CURVE SMOOTH"
);
}
);
width = 573;
}
);
leftKerningGroup = E;
note = Ebreve;
rightKerningGroup = E;
unicode = 0114;
},
{
glyphname = Ecaron;
lastChange = "2015-11-30 01:00:51 +0000";
layers = (
{
layerId = "A85C0A33-2487-4E47-AED8-78B93E482A34";
name = "Regular Italic";
paths = (
{
closed = 1;
nodes = (
"483 0 LINE",
"505 105 LINE",
"159 105 LINE",
"200 297 LINE",
"457 297 LINE",
"479 402 LINE",
"222 402 LINE",
"263 594 LINE",
"609 594 LINE",
"631 699 LINE",
"158 699 LINE",
"10 0 LINE"
);
},
{
closed = 1;
nodes = (
"457 742 LINE",
"640 913 LINE",
"508 913 LINE",
"410 813 LINE",
"356 913 LINE",
"236 913 LINE",
"345 742 LINE"
);
}
);
width = 573;
}
);
leftKerningGroup = E;
note = Ecaron;
rightKerningGroup = E;
unicode = 011A;
},
{
glyphname = Ecircumflex;
lastChange = "2015-11-30 01:00:52 +0000";
layers = (
{
layerId = "A85C0A33-2487-4E47-AED8-78B93E482A34";
name = "Regular Italic";
paths = (
{
closed = 1;
nodes = (
"483 0 LINE",
"505 105 LINE",
"159 105 LINE",
"200 297 LINE",
"457 297 LINE",
"479 402 LINE",
"222 402 LINE",
"263 594 LINE",
"609 594 LINE",
"631 699 LINE",
"158 699 LINE",
"10 0 LINE"
);
},
{
closed = 1;
nodes = (
"297 742 LINE",
"394 841 LINE",
"449 742 LINE",
"570 742 LINE",
"461 913 LINE",
"349 913 LINE",
"166 742 LINE"
);
}
);
width = 573;
}
);
leftKerningGroup = E;
note = Ecircumflex;
rightKerningGroup = E;
unicode = 00CA;
},
{
glyphname = Ecircumflexacute;
lastChange = "2015-11-30 01:00:49 +0000";
layers = (
{
layerId = "A85C0A33-2487-4E47-AED8-78B93E482A34";
name = "Regular Italic";
paths = (
{
closed = 1;
nodes = (
"483 0 LINE",
"505 105 LINE",
"159 105 LINE",
"200 297 LINE",
"457 297 LINE",
"479 402 LINE",
"222 402 LINE",
"263 594 LINE",
"609 594 LINE",
"631 699 LINE",
"158 699 LINE",
"10 0 LINE"
);
},
{
closed = 1;
nodes = (
"314 742 LINE",
"404 826 LINE",
"458 742 LINE",
"576 742 LINE",
"471 894 LINE",
"365 894 LINE",
"194 742 LINE"
);
},
{
closed = 1;
nodes = (
"643 841 LINE",
"747 969 LINE",
"630 969 LINE",
"543 841 LINE"
);
}
);
width = 563;
}
);
leftKerningGroup = E;
note = Ecircumflexacute;
rightKerningGroup = E;
unicode = 1EBE;
},
{
glyphname = Ecircumflexdotbelow;
lastChange = "2015-11-30 01:00:50 +0000";
layers = (
{
layerId = "A85C0A33-2487-4E47-AED8-78B93E482A34";
name = "Regular Italic";
paths = (
{
closed = 1;
nodes = (
"485 0 LINE",
"507 105 LINE",
"161 105 LINE",
"202 297 LINE",
"459 297 LINE",
"481 402 LINE",
"224 402 LINE",
"265 594 LINE",
"611 594 LINE",
"633 699 LINE",
"160 699 LINE",
"12 0 LINE"
);
},
{
closed = 1;
nodes = (
"242 -179 OFFCURVE",
"278 -150 OFFCURVE",
"285 -113 CURVE SMOOTH",
"293 -76 OFFCURVE",
"270 -46 OFFCURVE",
"235 -46 CURVE SMOOTH",
"199 -46 OFFCURVE",
"161 -76 OFFCURVE",
"153 -113 CURVE SMOOTH",
"146 -150 OFFCURVE",
"170 -179 OFFCURVE",
"206 -179 CURVE SMOOTH"
);
},
{
closed = 1;
nodes = (
"308 742 LINE",
"405 841 LINE",
"460 742 LINE",
"581 742 LINE",
"472 913 LINE",
"360 913 LINE",
"177 742 LINE"
);
}
);
width = 575;
}
);
leftKerningGroup = E;
note = Ecircumflexdotbelow;
rightKerningGroup = E;
unicode = 1EC6;
},
{
glyphname = Ecircumflexgrave;
lastChange = "2015-11-30 01:00:52 +0000";
layers = (
{
layerId = "A85C0A33-2487-4E47-AED8-78B93E482A34";
name = "Regular Italic";
paths = (
{
closed = 1;
nodes = (
"483 0 LINE",
"505 105 LINE",
"159 105 LINE",
"200 297 LINE",
"457 297 LINE",
"479 402 LINE",
"222 402 LINE",
"263 594 LINE",
"609 594 LINE",
"631 699 LINE",
"158 699 LINE",
"10 0 LINE"
);
},
{
closed = 1;
nodes = (
"292 841 LINE",
"258 969 LINE",
"141 969 LINE",
"191 841 LINE"
);
},
{
closed = 1;
nodes = (
"335 742 LINE",
"425 826 LINE",
"478 742 LINE",
"598 742 LINE",
"491 894 LINE",
"386 894 LINE",
"216 742 LINE"
);
}
);
width = 563;
}
);
leftKerningGroup = E;
note = Ecircumflexgrave;
rightKerningGroup = E;
unicode = 1EC0;
},
{
glyphname = Ecircumflexhookabove;
lastChange = "2015-11-30 01:00:50 +0000";
layers = (
{
layerId = "A85C0A33-2487-4E47-AED8-78B93E482A34";
name = "Regular Italic";
paths = (
{
closed = 1;
nodes = (
"483 0 LINE",
"505 105 LINE",
"159 105 LINE",
"200 297 LINE",
"457 297 LINE",
"479 402 LINE",
"222 402 LINE",
"263 594 LINE",
"609 594 LINE",
"631 699 LINE",
"158 699 LINE",
"10 0 LINE"
);
},
{
closed = 1;
nodes = (
"333 742 LINE",
"423 826 LINE",
"477 742 LINE",
"595 742 LINE",
"490 894 LINE",
"384 894 LINE",
"213 742 LINE"
);
},
{
closed = 1;
nodes = (
"638 830 LINE",
"643 854 LINE",
"684 861 OFFCURVE",
"714 885 OFFCURVE",
"721 919 CURVE SMOOTH",
"730 961 OFFCURVE",
"699 989 OFFCURVE",
"639 989 CURVE SMOOTH",
"615 989 OFFCURVE",
"584 984 OFFCURVE",
"565 978 CURVE",
"555 929 LINE",
"566 934 OFFCURVE",
"583 937 OFFCURVE",
"597 937 CURVE SMOOTH",
"625 937 OFFCURVE",
"638 932 OFFCURVE",
"633 911 CURVE SMOOTH",
"628 887 OFFCURVE",
"607 880 OFFCURVE",
"570 880 CURVE",
"560 830 LINE"
);
}
);
width = 563;
}
);
leftKerningGroup = E;
note = Ecircumflexhookabove;
rightKerningGroup = E;
unicode = 1EC2;
},
{
glyphname = Ecircumflextilde;
lastChange = "2015-11-30 01:00:51 +0000";
layers = (
{
layerId = "A85C0A33-2487-4E47-AED8-78B93E482A34";
name = "Regular Italic";
paths = (
{
closed = 1;
nodes = (
"483 0 LINE",
"505 105 LINE",
"159 105 LINE",
"200 297 LINE",
"457 297 LINE",
"479 402 LINE",
"222 402 LINE",
"263 594 LINE",
"609 594 LINE",
"631 699 LINE",
"158 699 LINE",
"10 0 LINE"
);
},
{
closed = 1;
nodes = (
"336 742 LINE",
"426 826 LINE",
"480 742 LINE",
"598 742 LINE",
"493 894 LINE",
"387 894 LINE",
"216 742 LINE"
);
},
{
closed = 1;
nodes = (
"558 906 OFFCURVE",
"585 916 OFFCURVE",
"607 940 CURVE",
"626 1030 LINE",
"598 999 OFFCURVE",
"571 988 OFFCURVE",
"540 988 CURVE SMOOTH",
"492 988 OFFCURVE",
"446 1031 OFFCURVE",
"396 1031 CURVE SMOOTH",
"361 1031 OFFCURVE",
"332 1021 OFFCURVE",
"310 996 CURVE",
"291 907 LINE",
"321 938 OFFCURVE",
"347 949 OFFCURVE",
"378 949 CURVE SMOOTH",
"425 949 OFFCURVE",
"469 906 OFFCURVE",
"523 906 CURVE SMOOTH"
);
}
);
width = 573;
}
);
leftKerningGroup = E;
note = Ecircumflextilde;
rightKerningGroup = E;
unicode = 1EC4;
},
{
glyphname = Edieresis;
lastChange = "2015-11-30 01:00:50 +0000";
layers = (
{
layerId = "A85C0A33-2487-4E47-AED8-78B93E482A34";
name = "Regular Italic";
paths = (
{
closed = 1;
nodes = (
"483 0 LINE",
"505 105 LINE",
"159 105 LINE",
"200 297 LINE",
"457 297 LINE",
"479 402 LINE",
"222 402 LINE",
"263 594 LINE",
"609 594 LINE",
"631 699 LINE",
"158 699 LINE",
"10 0 LINE"
);
},
{
closed = 1;
nodes = (
"295 752 OFFCURVE",
"332 781 OFFCURVE",
"339 818 CURVE SMOOTH",
"347 855 OFFCURVE",
"324 885 OFFCURVE",
"288 885 CURVE SMOOTH",
"253 885 OFFCURVE",
"215 855 OFFCURVE",
"207 818 CURVE SMOOTH",
"200 781 OFFCURVE",
"224 752 OFFCURVE",
"259 752 CURVE SMOOTH"
);
},
{
closed = 1;
nodes = (
"532 752 OFFCURVE",
"569 781 OFFCURVE",
"576 818 CURVE SMOOTH",
"584 855 OFFCURVE",
"561 885 OFFCURVE",
"525 885 CURVE SMOOTH",
"489 885 OFFCURVE",
"451 855 OFFCURVE",
"443 818 CURVE SMOOTH",
"436 781 OFFCURVE",
"460 752 OFFCURVE",
"496 752 CURVE SMOOTH"
);
}
);
width = 573;
}
);
leftKerningGroup = E;
note = Edieresis;
rightKerningGroup = E;
unicode = 00CB;
},
{
glyphname = Edotaccent;
lastChange = "2015-11-30 01:00:51 +0000";
layers = (
{
layerId = "A85C0A33-2487-4E47-AED8-78B93E482A34";
name = "Regular Italic";
paths = (
{
closed = 1;
nodes = (
"483 0 LINE",
"505 105 LINE",
"159 105 LINE",
"200 297 LINE",
"457 297 LINE",
"479 402 LINE",
"222 402 LINE",
"263 594 LINE",
"609 594 LINE",
"631 699 LINE",
"158 699 LINE",
"10 0 LINE"
);
},
{
closed = 1;
nodes = (
"432 752 OFFCURVE",
"469 781 OFFCURVE",
"476 818 CURVE SMOOTH",
"484 855 OFFCURVE",
"461 885 OFFCURVE",
"425 885 CURVE SMOOTH",
"389 885 OFFCURVE",
"351 855 OFFCURVE",
"343 818 CURVE SMOOTH",
"336 781 OFFCURVE",
"360 752 OFFCURVE",
"396 752 CURVE SMOOTH"
);
}
);
width = 573;
}
);
leftKerningGroup = E;
note = Edotaccent;
rightKerningGroup = E;
unicode = 0116;
},
{
glyphname = Edotbelow;
lastChange = "2015-11-30 01:00:51 +0000";
layers = (
{
layerId = "A85C0A33-2487-4E47-AED8-78B93E482A34";
name = "Regular Italic";
paths = (
{
closed = 1;
nodes = (
"483 0 LINE",
"505 105 LINE",
"159 105 LINE",
"200 297 LINE",
"457 297 LINE",
"479 402 LINE",
"222 402 LINE",
"263 594 LINE",
"609 594 LINE",
"631 699 LINE",
"158 699 LINE",
"10 0 LINE"
);
},
{
closed = 1;
nodes = (
"241 -179 OFFCURVE",
"277 -150 OFFCURVE",
"284 -113 CURVE SMOOTH",
"292 -76 OFFCURVE",
"269 -46 OFFCURVE",
"234 -46 CURVE SMOOTH",
"198 -46 OFFCURVE",
"160 -76 OFFCURVE",
"152 -113 CURVE SMOOTH",
"145 -150 OFFCURVE",
"169 -179 OFFCURVE",
"205 -179 CURVE SMOOTH"
);
}
);
width = 573;
}
);
leftKerningGroup = E;
note = Edotbelow;
rightKerningGroup = E;
unicode = 1EB8;
},
{
glyphname = Egrave;
lastChange = "2015-11-30 01:00:49 +0000";
layers = (
{
layerId = "A85C0A33-2487-4E47-AED8-78B93E482A34";
name = "Regular Italic";
paths = (
{
closed = 1;
nodes = (
"483 0 LINE",
"505 105 LINE",
"159 105 LINE",
"200 297 LINE",
"457 297 LINE",
"479 402 LINE",
"222 402 LINE",
"263 594 LINE",
"609 594 LINE",
"631 699 LINE",
"158 699 LINE",
"10 0 LINE"
);
},
{
closed = 1;
nodes = (
"443 742 LINE",
"411 916 LINE",
"278 916 LINE",
"327 742 LINE"
);
}
);
width = 573;
}
);
leftKerningGroup = E;
note = Egrave;
rightKerningGroup = E;
unicode = 00C8;
},
{
glyphname = Ehookabove;
lastChange = "2015-11-30 01:00:52 +0000";
layers = (
{
layerId = "A85C0A33-2487-4E47-AED8-78B93E482A34";
name = "Regular Italic";
paths = (
{
closed = 1;
nodes = (
"483 0 LINE",
"505 105 LINE",
"159 105 LINE",
"200 297 LINE",
"457 297 LINE",
"479 402 LINE",
"222 402 LINE",
"263 594 LINE",
"609 594 LINE",
"631 699 LINE",
"158 699 LINE",
"10 0 LINE"
);
},
{
closed = 1;
nodes = (
"431 742 LINE",
"438 776 LINE",
"499 785 OFFCURVE",
"539 822 OFFCURVE",
"549 870 CURVE SMOOTH",
"562 929 OFFCURVE",
"524 970 OFFCURVE",
"430 970 CURVE SMOOTH",
"394 970 OFFCURVE",
"354 963 OFFCURVE",
"329 956 CURVE",
"315 890 LINE",
"330 896 OFFCURVE",
"368 902 OFFCURVE",
"384 902 CURVE SMOOTH",
"429 902 OFFCURVE",
"443 891 OFFCURVE",
"438 865 CURVE SMOOTH",
"430 827 OFFCURVE",
"393 816 OFFCURVE",
"337 816 CURVE",
"321 742 LINE"
);
}
);
width = 573;
}
);
leftKerningGroup = E;
note = Ehookabove;
rightKerningGroup = E;
unicode = 1EBA;
},
{
glyphname = Emacron;
lastChange = "2015-11-30 01:00:50 +0000";
layers = (
{
layerId = "A85C0A33-2487-4E47-AED8-78B93E482A34";
name = "Regular Italic";
paths = (
{
closed = 1;
nodes = (
"483 0 LINE",
"505 105 LINE",
"159 105 LINE",
"200 297 LINE",
"457 297 LINE",
"479 402 LINE",
"222 402 LINE",
"263 594 LINE",
"609 594 LINE",
"631 699 LINE",
"158 699 LINE",
"10 0 LINE"
);
},
{
closed = 1;
nodes = (
"554 752 LINE",
"572 836 LINE",
"250 836 LINE",
"232 752 LINE"
);
}
);
width = 573;
}
);
leftKerningGroup = E;
note = Emacron;
rightKerningGroup = E;
unicode = 0112;
},
{
glyphname = Eogonek;
lastChange = "2015-11-30 01:00:51 +0000";
layers = (
{
layerId = "A85C0A33-2487-4E47-AED8-78B93E482A34";
name = "Regular Italic";
paths = (
{
closed = 1;
nodes = (
"393 -213 OFFCURVE",
"427 -208 OFFCURVE",
"450 -200 CURVE",
"465 -128 LINE",
"450 -135 OFFCURVE",
"432 -139 OFFCURVE",
"415 -139 CURVE SMOOTH",
"391 -139 OFFCURVE",
"378 -125 OFFCURVE",
"383 -99 CURVE SMOOTH",
"391 -61 OFFCURVE",
"424 -31 OFFCURVE",
"483 0 CURVE",
"505 105 LINE",
"159 105 LINE",
"200 297 LINE",
"457 297 LINE",
"479 402 LINE",
"222 402 LINE",
"263 594 LINE",
"609 594 LINE",
"631 699 LINE",
"158 699 LINE",
"10 0 LINE",
"367 0 LINE",
"320 -26 OFFCURVE",
"280 -68 OFFCURVE",
"269 -121 CURVE SMOOTH",
"255 -184 OFFCURVE",
"298 -213 OFFCURVE",
"361 -213 CURVE SMOOTH"
);
}
);
width = 573;
}
);
leftKerningGroup = E;
note = Eogonek;
rightKerningGroup = E;
unicode = 0118;
},
{
glyphname = Etilde;
lastChange = "2015-11-30 01:00:52 +0000";
layers = (
{
layerId = "A85C0A33-2487-4E47-AED8-78B93E482A34";
name = "Regular Italic";
paths = (
{
closed = 1;
nodes = (
"483 0 LINE",
"505 105 LINE",
"159 105 LINE",
"200 297 LINE",
"457 297 LINE",
"479 402 LINE",
"222 402 LINE",
"263 594 LINE",
"609 594 LINE",
"631 699 LINE",
"158 699 LINE",
"10 0 LINE"
);
},
{
closed = 1;
nodes = (
"226 781 OFFCURVE",
"261 794 OFFCURVE",
"298 794 CURVE SMOOTH",
"362 794 OFFCURVE",
"404 744 OFFCURVE",
"477 744 CURVE SMOOTH",
"519 744 OFFCURVE",
"556 755 OFFCURVE",
"585 786 CURVE",
"607 889 LINE",
"571 851 OFFCURVE",
"535 838 OFFCURVE",
"497 838 CURVE SMOOTH",
"432 838 OFFCURVE",
"386 888 OFFCURVE",
"318 888 CURVE SMOOTH",
"277 888 OFFCURVE",
"239 876 OFFCURVE",
"209 845 CURVE",
"187 742 LINE"
);
}
);
width = 573;
}
);
leftKerningGroup = E;
note = Etilde;
rightKerningGroup = E;
unicode = 1EBC;
},
{
glyphname = F;
lastChange = "2015-11-30 01:00:49 +0000";
layers = (
{
layerId = "A85C0A33-2487-4E47-AED8-78B93E482A34";
name = "Regular Italic";
paths = (
{
closed = 1;
nodes = (
"137 0 LINE",
"201 302 LINE",
"458 302 LINE",
"478 397 LINE",
"221 397 LINE",
"263 593 LINE",
"609 593 LINE",
"631 699 LINE",
"158 699 LINE",
"10 0 LINE"
);
}
);
width = 553;
}
);
note = F;
unicode = 0046;
},
{
glyphname = G;
lastChange = "2015-11-30 01:00:52 +0000";
layers = (
{
layerId = "A85C0A33-2487-4E47-AED8-78B93E482A34";
name = "Regular Italic";
paths = (
{
closed = 1;
nodes = (
"467 -15 OFFCURVE",
"555 8 OFFCURVE",
"635 57 CURVE",
"704 383 LINE",
"459 383 LINE",
"437 282 LINE",
"555 282 LINE",
"522 125 LINE",
"485 108 OFFCURVE",
"439 99 OFFCURVE",
"390 99 CURVE SMOOTH",
"216 99 OFFCURVE",
"159 195 OFFCURVE",
"192 349 CURVE SMOOTH",
"224 502 OFFCURVE",
"345 598 OFFCURVE",
"502 598 CURVE SMOOTH",
"602 598 OFFCURVE",
"666 575 OFFCURVE",
"716 526 CURVE",
"742 647 LINE",
"688 690 OFFCURVE",
"614 714 OFFCURVE",
"515 714 CURVE SMOOTH",
"297 714 OFFCURVE",
"113 577 OFFCURVE",
"64 349 CURVE SMOOTH",
"16 126 OFFCURVE",
"150 -15 OFFCURVE",
"360 -15 CURVE SMOOTH"
);
}
);
width = 713;
}
);
leftKerningGroup = C;
note = G;
unicode = 0047;
},
{
glyphname = Gbreve;
lastChange = "2015-11-30 01:00:50 +0000";
layers = (
{
layerId = "A85C0A33-2487-4E47-AED8-78B93E482A34";
name = "Regular Italic";
paths = (
{
closed = 1;
nodes = (
"467 -15 OFFCURVE",
"555 8 OFFCURVE",
"635 57 CURVE",
"704 383 LINE",
"459 383 LINE",
"437 282 LINE",
"555 282 LINE",
"522 125 LINE",
"485 108 OFFCURVE",
"439 99 OFFCURVE",
"390 99 CURVE SMOOTH",
"216 99 OFFCURVE",
"159 195 OFFCURVE",
"192 349 CURVE SMOOTH",
"224 502 OFFCURVE",
"345 598 OFFCURVE",
"502 598 CURVE SMOOTH",
"602 598 OFFCURVE",
"666 575 OFFCURVE",
"716 526 CURVE",
"742 647 LINE",
"688 690 OFFCURVE",
"614 714 OFFCURVE",
"515 714 CURVE SMOOTH",
"297 714 OFFCURVE",
"113 577 OFFCURVE",
"64 349 CURVE SMOOTH",
"16 126 OFFCURVE",
"150 -15 OFFCURVE",
"360 -15 CURVE SMOOTH"
);
},
{
closed = 1;
nodes = (
"606 742 OFFCURVE",
"679 803 OFFCURVE",
"698 893 CURVE",
"598 893 LINE",
"589 849 OFFCURVE",
"560 826 OFFCURVE",
"518 826 CURVE SMOOTH",
"476 826 OFFCURVE",
"457 849 OFFCURVE",
"466 893 CURVE",
"377 893 LINE",
"358 803 OFFCURVE",
"404 742 OFFCURVE",
"505 742 CURVE SMOOTH"
);
}
);
width = 713;
}
);
leftKerningGroup = C;
note = Gbreve;
unicode = 011E;
},
{
glyphname = Gcaron;
lastChange = "2015-11-30 01:00:51 +0000";
layers = (
{
layerId = "A85C0A33-2487-4E47-AED8-78B93E482A34";
name = "Regular Italic";
paths = (
{
closed = 1;
nodes = (
"467 -15 OFFCURVE",
"555 8 OFFCURVE",
"635 57 CURVE",
"704 383 LINE",
"459 383 LINE",
"437 282 LINE",
"555 282 LINE",
"522 125 LINE",
"485 108 OFFCURVE",
"439 99 OFFCURVE",
"390 99 CURVE SMOOTH",
"216 99 OFFCURVE",
"159 195 OFFCURVE",
"192 349 CURVE SMOOTH",
"224 502 OFFCURVE",
"345 598 OFFCURVE",
"502 598 CURVE SMOOTH",
"602 598 OFFCURVE",
"666 575 OFFCURVE",
"716 526 CURVE",
"742 647 LINE",
"688 690 OFFCURVE",
"614 714 OFFCURVE",
"515 714 CURVE SMOOTH",
"297 714 OFFCURVE",
"113 577 OFFCURVE",
"64 349 CURVE SMOOTH",
"16 126 OFFCURVE",
"150 -15 OFFCURVE",
"360 -15 CURVE SMOOTH"
);
},
{
closed = 1;
nodes = (
"541 742 LINE",
"724 913 LINE",
"592 913 LINE",
"494 813 LINE",
"440 913 LINE",
"320 913 LINE",
"429 742 LINE"
);
}
);
width = 713;
}
);
leftKerningGroup = C;
note = Gcaron;
unicode = 01E6;
},
{
glyphname = Gcircumflex;
lastChange = "2015-11-30 01:00:50 +0000";
layers = (
{
layerId = "A85C0A33-2487-4E47-AED8-78B93E482A34";
name = "Regular Italic";
paths = (
{
closed = 1;
nodes = (
"467 -15 OFFCURVE",
"555 8 OFFCURVE",
"635 57 CURVE",
"704 383 LINE",
"459 383 LINE",
"437 282 LINE",
"555 282 LINE",
"522 125 LINE",
"485 108 OFFCURVE",
"439 99 OFFCURVE",
"390 99 CURVE SMOOTH",
"216 99 OFFCURVE",
"159 195 OFFCURVE",
"192 349 CURVE SMOOTH",
"224 502 OFFCURVE",
"345 598 OFFCURVE",
"502 598 CURVE SMOOTH",
"602 598 OFFCURVE",
"666 575 OFFCURVE",
"716 526 CURVE",
"742 647 LINE",
"688 690 OFFCURVE",
"614 714 OFFCURVE",
"515 714 CURVE SMOOTH",
"297 714 OFFCURVE",
"113 577 OFFCURVE",
"64 349 CURVE SMOOTH",
"16 126 OFFCURVE",
"150 -15 OFFCURVE",
"360 -15 CURVE SMOOTH"
);
},
{
closed = 1;
nodes = (
"425 742 LINE",
"522 841 LINE",
"577 742 LINE",
"698 742 LINE",
"589 913 LINE",
"477 913 LINE",
"294 742 LINE"
);
}
);
width = 713;
}
);
leftKerningGroup = C;
note = Gcircumflex;
unicode = 011C;
},
{
glyphname = Gcommaaccent;
lastChange = "2015-11-30 01:00:52 +0000";
layers = (
{
layerId = "A85C0A33-2487-4E47-AED8-78B93E482A34";
name = "Regular Italic";
paths = (
{
closed = 1;
nodes = (
"467 -15 OFFCURVE",
"555 8 OFFCURVE",
"635 57 CURVE",
"704 383 LINE",
"459 383 LINE",
"437 282 LINE",
"555 282 LINE",
"522 125 LINE",
"485 108 OFFCURVE",
"439 99 OFFCURVE",
"390 99 CURVE SMOOTH",
"216 99 OFFCURVE",
"159 195 OFFCURVE",
"192 349 CURVE SMOOTH",
"224 502 OFFCURVE",
"345 598 OFFCURVE",
"502 598 CURVE SMOOTH",
"602 598 OFFCURVE",
"666 575 OFFCURVE",
"716 526 CURVE",
"742 647 LINE",
"688 690 OFFCURVE",
"614 714 OFFCURVE",
"515 714 CURVE SMOOTH",
"297 714 OFFCURVE",
"113 577 OFFCURVE",
"64 349 CURVE SMOOTH",
"16 126 OFFCURVE",
"150 -15 OFFCURVE",
"360 -15 CURVE SMOOTH"
);
},
{
closed = 1;
nodes = (
"296 -259 LINE",
"438 -56 LINE",
"307 -56 LINE",
"182 -259 LINE"
);
}
);
width = 713;
}
);
leftKerningGroup = C;
note = Gcommaaccent;
unicode = 0122;
},
{
glyphname = Gdotaccent;
lastChange = "2015-11-30 01:00:49 +0000";
layers = (
{
layerId = "A85C0A33-2487-4E47-AED8-78B93E482A34";
name = "Regular Italic";
paths = (
{
closed = 1;
nodes = (
"467 -15 OFFCURVE",
"555 8 OFFCURVE",
"635 57 CURVE",
"704 383 LINE",
"459 383 LINE",
"437 282 LINE",
"555 282 LINE",
"522 125 LINE",
"485 108 OFFCURVE",
"439 99 OFFCURVE",
"390 99 CURVE SMOOTH",
"216 99 OFFCURVE",
"159 195 OFFCURVE",
"192 349 CURVE SMOOTH",
"224 502 OFFCURVE",
"345 598 OFFCURVE",
"502 598 CURVE SMOOTH",
"602 598 OFFCURVE",
"666 575 OFFCURVE",
"716 526 CURVE",
"742 647 LINE",
"688 690 OFFCURVE",
"614 714 OFFCURVE",
"515 714 CURVE SMOOTH",
"297 714 OFFCURVE",
"113 577 OFFCURVE",
"64 349 CURVE SMOOTH",
"16 126 OFFCURVE",
"150 -15 OFFCURVE",
"360 -15 CURVE SMOOTH"
);
},
{
closed = 1;
nodes = (
"539 752 OFFCURVE",
"576 781 OFFCURVE",
"583 818 CURVE SMOOTH",
"591 855 OFFCURVE",
"568 885 OFFCURVE",
"532 885 CURVE SMOOTH",
"496 885 OFFCURVE",
"458 855 OFFCURVE",
"450 818 CURVE SMOOTH",
"443 781 OFFCURVE",
"467 752 OFFCURVE",
"503 752 CURVE SMOOTH"
);
}
);
width = 713;
}
);
leftKerningGroup = C;
note = Gdotaccent;
unicode = 0120;
},
{
glyphname = Gmacron;
lastChange = "2015-11-30 01:00:49 +0000";
layers = (
{
layerId = "A85C0A33-2487-4E47-AED8-78B93E482A34";
name = "Regular Italic";
paths = (
{
closed = 1;
nodes = (
"467 -15 OFFCURVE",
"555 8 OFFCURVE",
"635 57 CURVE",
"704 383 LINE",
"459 383 LINE",
"437 282 LINE",
"555 282 LINE",
"522 125 LINE",
"485 108 OFFCURVE",
"439 99 OFFCURVE",
"390 99 CURVE SMOOTH",
"216 99 OFFCURVE",
"159 195 OFFCURVE",
"192 349 CURVE SMOOTH",
"224 502 OFFCURVE",
"345 598 OFFCURVE",
"502 598 CURVE SMOOTH",
"602 598 OFFCURVE",
"666 575 OFFCURVE",
"716 526 CURVE",
"742 647 LINE",
"688 690 OFFCURVE",
"614 714 OFFCURVE",
"515 714 CURVE SMOOTH",
"297 714 OFFCURVE",
"113 577 OFFCURVE",
"64 349 CURVE SMOOTH",
"16 126 OFFCURVE",
"150 -15 OFFCURVE",
"360 -15 CURVE SMOOTH"
);
},
{
closed = 1;
nodes = (
"663 752 LINE",
"681 836 LINE",
"359 836 LINE",
"341 752 LINE"
);
}
);
width = 713;
}
);
leftKerningGroup = C;
note = Gmacron;
unicode = 1E20;
},
{
glyphname = H;
lastChange = "2015-11-30 01:00:49 +0000";
layers = (
{
layerId = "A85C0A33-2487-4E47-AED8-78B93E482A34";
name = "Regular Italic";
paths = (
{
closed = 1;
nodes = (
"137 0 LINE",
"201 304 LINE",
"537 304 LINE",
"473 0 LINE",
"599 0 LINE",
"747 699 LINE",
"621 699 LINE",
"559 409 LINE",
"223 409 LINE",
"285 699 LINE",
"158 699 LINE",
"10 0 LINE"
);
}
);
width = 709;
}
);
note = H;
unicode = 0048;
},
{
glyphname = Hbar;
lastChange = "2015-11-30 01:00:52 +0000";
layers = (
{
layerId = "A85C0A33-2487-4E47-AED8-78B93E482A34";
name = "Regular Italic";
paths = (
{
closed = 1;
nodes = (
"142 0 LINE",
"206 304 LINE",
"542 304 LINE",
"478 0 LINE",
"604 0 LINE",
"709 499 LINE",
"757 499 LINE",
"779 604 LINE",
"732 604 LINE",
"752 699 LINE",
"626 699 LINE",
"605 604 LINE",
"269 604 LINE",
"290 699 LINE",
"163 699 LINE",
"143 604 LINE",
"93 604 LINE",
"71 499 LINE",
"120 499 LINE",
"15 0 LINE"
);
},
{
closed = 1;
nodes = (
"247 499 LINE",
"583 499 LINE",
"564 409 LINE",
"228 409 LINE"
);
}
);
width = 726;
}
);
note = Hbar;
unicode = 0126;
},
{
glyphname = Hbrevebelow;
lastChange = "2015-11-30 01:00:51 +0000";
layers = (
{
layerId = "A85C0A33-2487-4E47-AED8-78B93E482A34";
name = "Regular Italic";
paths = (
{
closed = 1;
nodes = (
"137 0 LINE",
"201 304 LINE",
"537 304 LINE",
"473 0 LINE",
"599 0 LINE",
"747 699 LINE",
"621 699 LINE",
"559 409 LINE",
"223 409 LINE",
"285 699 LINE",
"158 699 LINE",
"10 0 LINE"
);
},
{
closed = 1;
nodes = (
"360 -210 OFFCURVE",
"433 -149 OFFCURVE",
"452 -59 CURVE",
"352 -59 LINE",
"343 -103 OFFCURVE",
"314 -126 OFFCURVE",
"273 -126 CURVE SMOOTH",
"231 -126 OFFCURVE",
"212 -103 OFFCURVE",
"221 -59 CURVE",
"131 -59 LINE",
"112 -149 OFFCURVE",
"159 -210 OFFCURVE",
"260 -210 CURVE SMOOTH"
);
}
);
width = 709;
}
);
note = Hbrevebelow;
unicode = 1E2A;
},
{
glyphname = Hcircumflex;
lastChange = "2015-11-30 01:00:52 +0000";
layers = (
{
layerId = "A85C0A33-2487-4E47-AED8-78B93E482A34";
name = "Regular Italic";
paths = (
{
closed = 1;
nodes = (
"137 0 LINE",
"201 304 LINE",
"537 304 LINE",
"473 0 LINE",
"599 0 LINE",
"747 699 LINE",
"621 699 LINE",
"559 409 LINE",
"223 409 LINE",
"285 699 LINE",
"158 699 LINE",
"10 0 LINE"
);
},
{
closed = 1;
nodes = (
"370 742 LINE",
"467 841 LINE",
"522 742 LINE",
"643 742 LINE",
"534 913 LINE",
"422 913 LINE",
"239 742 LINE"
);
}
);
width = 709;
}
);
note = Hcircumflex;
unicode = 0124;
},
{
glyphname = Hdotbelow;
lastChange = "2015-11-30 01:00:52 +0000";
layers = (
{
layerId = "A85C0A33-2487-4E47-AED8-78B93E482A34";
name = "Regular Italic";
paths = (
{
closed = 1;
nodes = (
"137 0 LINE",
"201 304 LINE",
"537 304 LINE",
"473 0 LINE",
"599 0 LINE",
"747 699 LINE",
"621 699 LINE",
"559 409 LINE",
"223 409 LINE",
"285 699 LINE",
"158 699 LINE",
"10 0 LINE"
);
},
{
closed = 1;
nodes = (
"303 -179 OFFCURVE",
"339 -150 OFFCURVE",
"346 -113 CURVE SMOOTH",
"354 -76 OFFCURVE",
"331 -46 OFFCURVE",
"296 -46 CURVE SMOOTH",
"260 -46 OFFCURVE",
"222 -76 OFFCURVE",
"214 -113 CURVE SMOOTH",
"207 -150 OFFCURVE",
"231 -179 OFFCURVE",
"267 -179 CURVE SMOOTH"
);
}
);
width = 709;
}
);
note = Hdotbelow;
unicode = 1E24;
},
{
glyphname = I;
lastChange = "2015-11-30 01:00:52 +0000";
layers = (
{
layerId = "A85C0A33-2487-4E47-AED8-78B93E482A34";
name = "Regular Italic";
paths = (
{
closed = 1;
nodes = (
"137 0 LINE",
"285 699 LINE",
"158 699 LINE",
"10 0 LINE"
);
}
);
width = 247;
}
);
note = I;
unicode = 0049;
},
{
glyphname = IJ;
lastChange = "2015-11-30 01:00:49 +0000";
layers = (
{
layerId = "A85C0A33-2487-4E47-AED8-78B93E482A34";
name = "Regular Italic";
paths = (
{
closed = 1;
nodes = (
"463 -15 OFFCURVE",
"536 54 OFFCURVE",
"563 182 CURVE SMOOTH",
"673 699 LINE",
"546 699 LINE",
"438 189 LINE SMOOTH",
"423 120 OFFCURVE",
"389 96 OFFCURVE",
"320 96 CURVE SMOOTH",
"292 96 OFFCURVE",
"261 101 OFFCURVE",
"242 110 CURVE",
"219 4 LINE",
"240 -7 OFFCURVE",
"288 -15 OFFCURVE",
"327 -15 CURVE SMOOTH"
);
},
{
closed = 1;
nodes = (
"140 0 LINE",
"288 699 LINE",
"161 699 LINE",
"13 0 LINE"
);
}
);
width = 633;
}
);
note = IJ;
rightKerningGroup = J;
unicode = 0132;
},
{
glyphname = Iacute;
lastChange = "2015-11-30 01:00:51 +0000";
layers = (
{
layerId = "A85C0A33-2487-4E47-AED8-78B93E482A34";
name = "Regular Italic";
paths = (
{
closed = 1;
nodes = (
"140 0 LINE",
"288 699 LINE",
"161 699 LINE",
"13 0 LINE"
);
},
{
closed = 1;
nodes = (
"273 742 LINE",
"396 916 LINE",
"263 916 LINE",
"157 742 LINE"
);
}
);
width = 253;
}
);
note = Iacute;
unicode = 00CD;
},
{
glyphname = Ibreve;
lastChange = "2015-11-30 01:00:49 +0000";
layers = (
{
layerId = "A85C0A33-2487-4E47-AED8-78B93E482A34";
name = "Regular Italic";
paths = (
{
closed = 1;
nodes = (
"140 0 LINE",
"288 699 LINE",
"161 699 LINE",
"13 0 LINE"
);
},
{
closed = 1;
nodes = (
"314 742 OFFCURVE",
"387 803 OFFCURVE",
"406 893 CURVE",
"306 893 LINE",
"297 849 OFFCURVE",
"268 826 OFFCURVE",
"226 826 CURVE SMOOTH",
"184 826 OFFCURVE",
"165 849 OFFCURVE",
"174 893 CURVE",
"85 893 LINE",
"66 803 OFFCURVE",
"112 742 OFFCURVE",
"213 742 CURVE SMOOTH"
);
}
);
width = 253;
}
);
note = Ibreve;
unicode = 012C;
},
{
glyphname = Icaron;
lastChange = "2015-11-30 01:00:50 +0000";
layers = (
{
layerId = "A85C0A33-2487-4E47-AED8-78B93E482A34";
name = "Regular Italic";
paths = (
{
closed = 1;
nodes = (
"137 0 LINE",
"285 699 LINE",
"158 699 LINE",
"10 0 LINE"
);
},
{
closed = 1;
nodes = (
"272 764 LINE",
"455 935 LINE",
"323 935 LINE",
"225 835 LINE",
"171 935 LINE",
"51 935 LINE",
"160 764 LINE"
);
}
);
width = 247;
}
);
note = Icaron;
unicode = 01CF;
},
{
glyphname = Icircumflex;
lastChange = "2015-11-30 01:00:51 +0000";
layers = (
{
layerId = "A85C0A33-2487-4E47-AED8-78B93E482A34";
name = "Regular Italic";
paths = (
{
closed = 1;
nodes = (
"140 0 LINE",
"288 699 LINE",
"161 699 LINE",
"13 0 LINE"
);
},
{
closed = 1;
nodes = (
"142 742 LINE",
"239 841 LINE",
"294 742 LINE",
"415 742 LINE",
"306 913 LINE",
"194 913 LINE",
"11 742 LINE"
);
}
);
width = 253;
}
);
note = Icircumflex;
unicode = 00CE;
},
{
glyphname = Idieresis;
lastChange = "2015-11-30 01:00:50 +0000";
layers = (
{
layerId = "A85C0A33-2487-4E47-AED8-78B93E482A34";
name = "Regular Italic";
paths = (
{
closed = 1;
nodes = (
"140 0 LINE",
"288 699 LINE",
"161 699 LINE",
"13 0 LINE"
);
},
{
closed = 1;
nodes = (
"132 752 OFFCURVE",
"169 781 OFFCURVE",
"176 818 CURVE SMOOTH",
"184 855 OFFCURVE",
"161 885 OFFCURVE",
"125 885 CURVE SMOOTH",
"90 885 OFFCURVE",
"52 855 OFFCURVE",
"44 818 CURVE SMOOTH",
"37 781 OFFCURVE",
"61 752 OFFCURVE",
"96 752 CURVE SMOOTH"
);
},
{
closed = 1;
nodes = (
"369 752 OFFCURVE",
"406 781 OFFCURVE",
"413 818 CURVE SMOOTH",
"421 855 OFFCURVE",
"398 885 OFFCURVE",
"362 885 CURVE SMOOTH",
"326 885 OFFCURVE",
"288 855 OFFCURVE",
"280 818 CURVE SMOOTH",
"273 781 OFFCURVE",
"297 752 OFFCURVE",
"333 752 CURVE SMOOTH"
);
}
);
width = 253;
}
);
note = Idieresis;
unicode = 00CF;
},
{
glyphname = Idotaccent;
lastChange = "2015-11-30 01:00:50 +0000";
layers = (
{
layerId = "A85C0A33-2487-4E47-AED8-78B93E482A34";
name = "Regular Italic";
paths = (
{
closed = 1;
nodes = (
"140 0 LINE",
"288 699 LINE",
"161 699 LINE",
"13 0 LINE"
);
},
{
closed = 1;
nodes = (
"251 752 OFFCURVE",
"288 781 OFFCURVE",
"295 818 CURVE SMOOTH",
"303 855 OFFCURVE",
"280 885 OFFCURVE",
"244 885 CURVE SMOOTH",
"208 885 OFFCURVE",
"170 855 OFFCURVE",
"162 818 CURVE SMOOTH",
"155 781 OFFCURVE",
"179 752 OFFCURVE",
"215 752 CURVE SMOOTH"
);
}
);
width = 253;
}
);
note = Idotaccent;
unicode = 0130;
},
{
glyphname = Idotbelow;
lastChange = "2015-11-30 01:00:50 +0000";
layers = (
{
layerId = "A85C0A33-2487-4E47-AED8-78B93E482A34";
name = "Regular Italic";
paths = (
{
closed = 1;
nodes = (
"140 0 LINE",
"288 699 LINE",
"161 699 LINE",
"13 0 LINE"
);
},
{
closed = 1;
nodes = (
"75 -179 OFFCURVE",
"111 -150 OFFCURVE",
"118 -113 CURVE SMOOTH",
"126 -76 OFFCURVE",
"103 -46 OFFCURVE",
"68 -46 CURVE SMOOTH",
"32 -46 OFFCURVE",
"-6 -76 OFFCURVE",
"-14 -113 CURVE SMOOTH",
"-21 -150 OFFCURVE",
"3 -179 OFFCURVE",
"39 -179 CURVE SMOOTH"
);
}
);
width = 253;
}
);
note = Idotbelow;
unicode = 1ECA;
},
{
glyphname = Igrave;
lastChange = "2015-11-30 01:00:51 +0000";
layers = (
{
layerId = "A85C0A33-2487-4E47-AED8-78B93E482A34";
name = "Regular Italic";
paths = (
{
closed = 1;
nodes = (
"140 0 LINE",
"288 699 LINE",
"161 699 LINE",
"13 0 LINE"
);
},
{
closed = 1;
nodes = (
"271 742 LINE",
"239 916 LINE",
"106 916 LINE",
"155 742 LINE"
);
}
);
width = 253;
}
);
note = Igrave;
unicode = 00CC;
},
{
glyphname = Ihookabove;
lastChange = "2015-11-30 01:00:51 +0000";
layers = (
{
layerId = "A85C0A33-2487-4E47-AED8-78B93E482A34";
name = "Regular Italic";
paths = (
{
closed = 1;
nodes = (
"140 0 LINE",
"288 699 LINE",
"161 699 LINE",
"13 0 LINE"
);
},
{
closed = 1;
nodes = (
"268 742 LINE",
"275 776 LINE",
"336 785 OFFCURVE",
"376 822 OFFCURVE",
"386 870 CURVE SMOOTH",
"399 929 OFFCURVE",
"361 970 OFFCURVE",
"267 970 CURVE SMOOTH",
"231 970 OFFCURVE",
"191 963 OFFCURVE",
"166 956 CURVE",
"152 890 LINE",
"167 896 OFFCURVE",
"205 902 OFFCURVE",
"221 902 CURVE SMOOTH",
"266 902 OFFCURVE",
"280 891 OFFCURVE",
"275 865 CURVE SMOOTH",
"267 827 OFFCURVE",
"230 816 OFFCURVE",
"174 816 CURVE",
"158 742 LINE"
);
}
);
width = 253;
}
);
note = Ihookabove;
unicode = 1EC8;
},
{
glyphname = Imacron;
lastChange = "2015-11-30 01:00:50 +0000";
layers = (
{
layerId = "A85C0A33-2487-4E47-AED8-78B93E482A34";
name = "Regular Italic";
paths = (
{
closed = 1;
nodes = (
"140 0 LINE",
"288 699 LINE",
"161 699 LINE",
"13 0 LINE"
);
},
{
closed = 1;
nodes = (
"402 752 LINE",
"420 836 LINE",
"88 836 LINE",
"70 752 LINE"
);
}
);
width = 253;
}
);
note = Imacron;
unicode = 012A;
},
{
glyphname = Iogonek;
lastChange = "2015-11-30 01:00:52 +0000";
layers = (
{
layerId = "A85C0A33-2487-4E47-AED8-78B93E482A34";
name = "Regular Italic";
paths = (
{
closed = 1;
nodes = (
"46 -213 OFFCURVE",
"80 -208 OFFCURVE",
"103 -200 CURVE",
"118 -128 LINE",
"103 -135 OFFCURVE",
"85 -139 OFFCURVE",
"68 -139 CURVE SMOOTH",
"44 -139 OFFCURVE",
"31 -125 OFFCURVE",
"36 -99 CURVE SMOOTH",
"44 -61 OFFCURVE",
"77 -31 OFFCURVE",
"140 0 CURVE",
"288 699 LINE",
"161 699 LINE",
"13 0 LINE",
"-27 -26 OFFCURVE",
"-67 -68 OFFCURVE",
"-78 -121 CURVE SMOOTH",
"-92 -184 OFFCURVE",
"-49 -213 OFFCURVE",
"14 -213 CURVE SMOOTH"
);
}
);
width = 253;
}
);
note = Iogonek;
unicode = 012E;
},
{
glyphname = Itilde;
lastChange = "2015-11-30 01:00:50 +0000";
layers = (
{
layerId = "A85C0A33-2487-4E47-AED8-78B93E482A34";
name = "Regular Italic";
paths = (
{
closed = 1;
nodes = (
"140 0 LINE",
"288 699 LINE",
"161 699 LINE",
"13 0 LINE"
);
},
{
closed = 1;
nodes = (
"58 781 OFFCURVE",
"93 794 OFFCURVE",
"130 794 CURVE SMOOTH",
"194 794 OFFCURVE",
"236 744 OFFCURVE",
"309 744 CURVE SMOOTH",
"351 744 OFFCURVE",
"388 755 OFFCURVE",
"417 786 CURVE",
"439 889 LINE",
"403 851 OFFCURVE",
"367 838 OFFCURVE",
"329 838 CURVE SMOOTH",
"264 838 OFFCURVE",
"218 888 OFFCURVE",
"150 888 CURVE SMOOTH",
"109 888 OFFCURVE",
"71 876 OFFCURVE",
"41 845 CURVE",
"19 742 LINE"
);
}
);
width = 253;
}
);
note = Itilde;
unicode = 0128;
},
{
glyphname = J;
lastChange = "2015-11-30 01:00:49 +0000";
layers = (
{
layerId = "A85C0A33-2487-4E47-AED8-78B93E482A34";
name = "Regular Italic";
paths = (
{
closed = 1;
nodes = (
"214 -15 OFFCURVE",
"287 54 OFFCURVE",
"314 182 CURVE SMOOTH",
"424 699 LINE",
"297 699 LINE",
"189 189 LINE SMOOTH",
"174 120 OFFCURVE",
"140 96 OFFCURVE",
"71 96 CURVE SMOOTH",
"43 96 OFFCURVE",
"12 101 OFFCURVE",
"-7 110 CURVE",
"-30 4 LINE",
"-9 -7 OFFCURVE",
"39 -15 OFFCURVE",
"78 -15 CURVE SMOOTH"
);
}
);
width = 386;
}
);
note = J;
rightKerningGroup = J;
unicode = 004A;
},
{
glyphname = Jcircumflex;
lastChange = "2015-11-30 01:00:52 +0000";
layers = (
{
layerId = "A85C0A33-2487-4E47-AED8-78B93E482A34";
name = "Regular Italic";
paths = (
{
closed = 1;
nodes = (
"214 -15 OFFCURVE",
"287 54 OFFCURVE",
"314 182 CURVE SMOOTH",
"424 699 LINE",
"297 699 LINE",
"189 189 LINE SMOOTH",
"174 120 OFFCURVE",
"140 96 OFFCURVE",
"71 96 CURVE SMOOTH",
"43 96 OFFCURVE",
"12 101 OFFCURVE",
"-7 110 CURVE",
"-30 4 LINE",
"-9 -7 OFFCURVE",
"39 -15 OFFCURVE",
"78 -15 CURVE SMOOTH"
);
},
{
closed = 1;
nodes = (
"279 742 LINE",
"376 841 LINE",
"431 742 LINE",
"552 742 LINE",
"443 913 LINE",
"331 913 LINE",
"148 742 LINE"
);
}
);
width = 384;
}
);
note = Jcircumflex;
rightKerningGroup = J;
unicode = 0134;
},
{
glyphname = K;
lastChange = "2015-11-30 01:00:52 +0000";
layers = (
{
layerId = "A85C0A33-2487-4E47-AED8-78B93E482A34";
name = "Regular Italic";
paths = (
{
closed = 1;
nodes = (
"137 0 LINE",
"207 331 LINE",
"444 0 LINE",
"593 0 LINE",
"341 352 LINE",
"724 699 LINE",
"572 699 LINE",
"218 383 LINE",
"285 699 LINE",
"158 699 LINE",
"10 0 LINE"
);
}
);
width = 686;
}
);
leftKerningGroup = K;
note = K;
rightKerningGroup = K;
unicode = 004B;
},
{
glyphname = Kcommaaccent;
lastChange = "2015-11-30 01:00:52 +0000";
layers = (
{
layerId = "A85C0A33-2487-4E47-AED8-78B93E482A34";
name = "Regular Italic";
paths = (
{
closed = 1;
nodes = (
"137 0 LINE",
"207 331 LINE",
"444 0 LINE",
"593 0 LINE",
"341 352 LINE",
"724 699 LINE",
"572 699 LINE",
"218 383 LINE",
"285 699 LINE",
"158 699 LINE",
"10 0 LINE"
);
},
{
closed = 1;
nodes = (
"192 -259 LINE",
"334 -56 LINE",
"203 -56 LINE",
"78 -259 LINE"
);
}
);
width = 686;
}
);
leftKerningGroup = K;
note = Kcommaaccent;
rightKerningGroup = K;
unicode = 0136;
},
{
glyphname = L;
lastChange = "2015-11-30 01:00:51 +0000";
layers = (
{
layerId = "A85C0A33-2487-4E47-AED8-78B93E482A34";
name = "Regular Italic";
paths = (
{
closed = 1;
nodes = (
"473 0 LINE",
"495 105 LINE",
"159 105 LINE",
"285 699 LINE",
"158 699 LINE",
"10 0 LINE"
);
}
);
width = 543;
}
);
note = L;
rightKerningGroup = L;
unicode = 004C;
},
{
glyphname = Lacute;
lastChange = "2015-11-30 01:00:49 +0000";
layers = (
{
layerId = "A85C0A33-2487-4E47-AED8-78B93E482A34";
name = "Regular Italic";
paths = (
{
closed = 1;
nodes = (
"473 0 LINE",
"495 105 LINE",
"159 105 LINE",
"285 699 LINE",
"158 699 LINE",
"10 0 LINE"
);
},
{
closed = 1;
nodes = (
"270 742 LINE",
"393 916 LINE",
"260 916 LINE",
"154 742 LINE"
);
}
);
width = 543;
}
);
note = Lacute;
rightKerningGroup = L;
unicode = 0139;
},
{
glyphname = Lcaron;
lastChange = "2015-11-30 01:00:50 +0000";
layers = (
{
layerId = "A85C0A33-2487-4E47-AED8-78B93E482A34";
name = "Regular Italic";
paths = (
{
closed = 1;
nodes = (
"473 0 LINE",
"495 105 LINE",
"159 105 LINE",
"285 699 LINE",
"158 699 LINE",
"10 0 LINE"
);
},
{
closed = 1;
nodes = (
"456 504 LINE",
"598 707 LINE",
"467 707 LINE",
"342 504 LINE"
);
}
);
width = 543;
}
);
note = Lcaron;
rightKerningGroup = L;
unicode = 013D;
},
{
glyphname = Lcommaaccent;
lastChange = "2015-11-30 01:00:51 +0000";
layers = (
{
layerId = "A85C0A33-2487-4E47-AED8-78B93E482A34";
name = "Regular Italic";
paths = (
{
closed = 1;
nodes = (
"473 0 LINE",
"495 105 LINE",
"159 105 LINE",
"285 699 LINE",
"158 699 LINE",
"10 0 LINE"
);
},
{
closed = 1;
nodes = (
"162 -259 LINE",
"304 -56 LINE",
"173 -56 LINE",
"48 -259 LINE"
);
}
);
width = 543;
}
);
note = Lcommaaccent;
rightKerningGroup = L;
unicode = 013B;
},
{
glyphname = Ldot;
lastChange = "2015-11-30 01:00:50 +0000";
layers = (
{
layerId = "A85C0A33-2487-4E47-AED8-78B93E482A34";
name = "Regular Italic";
paths = (
{
closed = 1;
nodes = (
"473 0 LINE",
"495 105 LINE",
"159 105 LINE",
"285 699 LINE",
"158 699 LINE",
"10 0 LINE"
);
},
{
closed = 1;
nodes = (
"432 321 OFFCURVE",
"469 350 OFFCURVE",
"476 387 CURVE SMOOTH",
"484 424 OFFCURVE",
"461 454 OFFCURVE",
"425 454 CURVE SMOOTH",
"389 454 OFFCURVE",
"351 424 OFFCURVE",
"343 387 CURVE SMOOTH",
"336 350 OFFCURVE",
"360 321 OFFCURVE",
"396 321 CURVE SMOOTH"
);
}
);
width = 543;
}
);
note = Ldot;
rightKerningGroup = L;
unicode = 013F;
},
{
glyphname = Ldotbelow;
lastChange = "2015-11-30 01:00:50 +0000";
layers = (
{
layerId = "A85C0A33-2487-4E47-AED8-78B93E482A34";
name = "Regular Italic";
paths = (
{
closed = 1;
nodes = (
"473 0 LINE",
"495 105 LINE",
"159 105 LINE",
"285 699 LINE",
"158 699 LINE",
"10 0 LINE"
);
},
{
closed = 1;
nodes = (
"210 -179 OFFCURVE",
"246 -150 OFFCURVE",
"253 -113 CURVE SMOOTH",
"261 -76 OFFCURVE",
"238 -46 OFFCURVE",
"203 -46 CURVE SMOOTH",
"167 -46 OFFCURVE",
"129 -76 OFFCURVE",
"121 -113 CURVE SMOOTH",
"114 -150 OFFCURVE",
"138 -179 OFFCURVE",
"174 -179 CURVE SMOOTH"
);
}
);
width = 543;
}
);
note = Ldotbelow;
rightKerningGroup = L;
unicode = 1E36;
},
{
glyphname = Ldotbelowmacron;
lastChange = "2015-11-30 01:00:52 +0000";
layers = (
{
layerId = "A85C0A33-2487-4E47-AED8-78B93E482A34";
name = "Regular Italic";
paths = (
{
closed = 1;
nodes = (
"490 0 LINE",
"512 105 LINE",
"176 105 LINE",
"302 699 LINE",
"175 699 LINE",
"27 0 LINE"
);
},
{
closed = 1;
nodes = (
"251 -179 OFFCURVE",
"287 -150 OFFCURVE",
"294 -113 CURVE SMOOTH",
"302 -76 OFFCURVE",
"279 -46 OFFCURVE",
"244 -46 CURVE SMOOTH",
"208 -46 OFFCURVE",
"170 -76 OFFCURVE",
"162 -113 CURVE SMOOTH",
"155 -150 OFFCURVE",
"179 -179 OFFCURVE",
"215 -179 CURVE SMOOTH"
);
},
{
closed = 1;
nodes = (
"482 752 LINE",
"500 836 LINE",
"178 836 LINE",
"160 752 LINE"
);
}
);
width = 560;
}
);
note = Ldotbelowmacron;
rightKerningGroup = L;
unicode = 1E38;
},
{
glyphname = Llinebelow;
lastChange = "2015-11-30 01:00:51 +0000";
layers = (
{
layerId = "A85C0A33-2487-4E47-AED8-78B93E482A34";
name = "Regular Italic";
paths = (
{
closed = 1;
nodes = (
"473 0 LINE",
"495 105 LINE",
"159 105 LINE",
"285 699 LINE",
"158 699 LINE",
"10 0 LINE"
);
},
{
closed = 1;
nodes = (
"365 -151 LINE",
"383 -68 LINE",
"61 -68 LINE",
"43 -151 LINE"
);
}
);
width = 543;
}
);
note = Llinebelow;
rightKerningGroup = L;
unicode = 1E3A;
},
{
glyphname = Lslash;
lastChange = "2015-11-30 01:00:50 +0000";
layers = (
{
layerId = "A85C0A33-2487-4E47-AED8-78B93E482A34";
name = "Regular Italic";
paths = (
{
closed = 1;
nodes = (
"517 0 LINE",
"539 105 LINE",
"203 105 LINE",
"253 340 LINE",
"422 409 LINE",
"448 530 LINE",
"278 461 LINE",
"329 699 LINE",
"202 699 LINE",
"139 404 LINE",
"36 362 LINE",
"11 241 LINE",
"114 283 LINE",
"54 0 LINE"
);
}
);
width = 587;
}
);
note = Lslash;
rightKerningGroup = L;
unicode = 0141;
},
{
glyphname = M;
lastChange = "2015-11-30 01:00:52 +0000";
layers = (
{
layerId = "A85C0A33-2487-4E47-AED8-78B93E482A34";
name = "Regular Italic";
paths = (
{
closed = 1;
nodes = (
"130 0 LINE",
"226 454 LINE",
"338 0 LINE",
"398 0 LINE",
"702 454 LINE",
"606 0 LINE",
"726 0 LINE",
"874 699 LINE",
"745 699 LINE",
"402 187 LINE",
"277 699 LINE",
"158 699 LINE",
"10 0 LINE"
);
}
);
width = 836;
}
);
note = M;
unicode = 004D;
},
{
glyphname = Mdotbelow;
lastChange = "2015-11-30 01:00:50 +0000";
layers = (
{
layerId = "A85C0A33-2487-4E47-AED8-78B93E482A34";
name = "Regular Italic";
paths = (
{
closed = 1;
nodes = (
"130 0 LINE",
"226 454 LINE",
"338 0 LINE",
"398 0 LINE",
"702 454 LINE",
"606 0 LINE",
"726 0 LINE",
"874 699 LINE",
"745 699 LINE",
"402 187 LINE",
"277 699 LINE",
"158 699 LINE",
"10 0 LINE"
);
},
{
closed = 1;
nodes = (
"367 -179 OFFCURVE",
"403 -150 OFFCURVE",
"410 -113 CURVE SMOOTH",
"418 -76 OFFCURVE",
"395 -46 OFFCURVE",
"360 -46 CURVE SMOOTH",
"324 -46 OFFCURVE",
"286 -76 OFFCURVE",
"278 -113 CURVE SMOOTH",
"271 -150 OFFCURVE",
"295 -179 OFFCURVE",
"331 -179 CURVE SMOOTH"
);
}
);
width = 836;
}
);
note = Mdotbelow;
unicode = 1E42;
},
{
glyphname = N;
lastChange = "2015-11-30 01:00:51 +0000";
layers = (
{
layerId = "A85C0A33-2487-4E47-AED8-78B93E482A34";
name = "Regular Italic";
paths = (
{
closed = 1;
nodes = (
"137 0 LINE",
"240 488 LINE",
"464 0 LINE",
"584 0 LINE",
"732 699 LINE",
"605 699 LINE",
"502 212 LINE",
"278 699 LINE",
"158 699 LINE",
"10 0 LINE"
);
}
);
width = 694;
}
);
note = N;
unicode = 004E;
},
{
glyphname = Nacute;
lastChange = "2015-11-30 01:00:49 +0000";
layers = (
{
layerId = "A85C0A33-2487-4E47-AED8-78B93E482A34";
name = "Regular Italic";
paths = (
{
closed = 1;
nodes = (
"137 0 LINE",
"240 488 LINE",
"464 0 LINE",
"584 0 LINE",
"732 699 LINE",
"605 699 LINE",
"502 212 LINE",
"278 699 LINE",
"158 699 LINE",
"10 0 LINE"
);
},
{
closed = 1;
nodes = (
"482 742 LINE",
"605 916 LINE",
"472 916 LINE",
"366 742 LINE"
);
}
);
width = 694;
}
);
note = Nacute;
unicode = 0143;
},
{
glyphname = Ncaron;
lastChange = "2015-11-30 01:00:49 +0000";
layers = (
{
layerId = "A85C0A33-2487-4E47-AED8-78B93E482A34";
name = "Regular Italic";
paths = (
{
closed = 1;
nodes = (
"137 0 LINE",
"240 488 LINE",
"464 0 LINE",
"584 0 LINE",
"732 699 LINE",
"605 699 LINE",
"502 212 LINE",
"278 699 LINE",
"158 699 LINE",
"10 0 LINE"
);
},
{
closed = 1;
nodes = (
"488 742 LINE",
"671 913 LINE",
"539 913 LINE",
"441 813 LINE",
"387 913 LINE",
"267 913 LINE",
"376 742 LINE"
);
}
);
width = 694;
}
);
note = Ncaron;
unicode = 0147;
},
{
glyphname = Ncommaaccent;
lastChange = "2015-11-30 01:00:52 +0000";
layers = (
{
layerId = "A85C0A33-2487-4E47-AED8-78B93E482A34";
name = "Regular Italic";
paths = (
{
closed = 1;
nodes = (
"137 0 LINE",
"240 488 LINE",
"464 0 LINE",
"584 0 LINE",
"732 699 LINE",
"605 699 LINE",
"502 212 LINE",
"278 699 LINE",
"158 699 LINE",
"10 0 LINE"
);
},
{
closed = 1;
nodes = (
"216 -259 LINE",
"358 -56 LINE",
"227 -56 LINE",
"102 -259 LINE"
);
}
);
width = 694;
}
);
note = Ncommaaccent;
unicode = 0145;
},
{
glyphname = Ndotaccent;
lastChange = "2015-11-30 01:00:51 +0000";
layers = (
{
layerId = "A85C0A33-2487-4E47-AED8-78B93E482A34";
name = "Regular Italic";
paths = (
{
closed = 1;
nodes = (
"137 0 LINE",
"240 488 LINE",
"464 0 LINE",
"584 0 LINE",
"732 699 LINE",
"605 699 LINE",
"502 212 LINE",
"278 699 LINE",
"158 699 LINE",
"10 0 LINE"
);
},
{
closed = 1;
nodes = (
"474 752 OFFCURVE",
"511 781 OFFCURVE",
"518 818 CURVE SMOOTH",
"526 855 OFFCURVE",
"503 885 OFFCURVE",
"467 885 CURVE SMOOTH",
"431 885 OFFCURVE",
"393 855 OFFCURVE",
"385 818 CURVE SMOOTH",
"378 781 OFFCURVE",
"402 752 OFFCURVE",
"438 752 CURVE SMOOTH"
);
}
);
width = 694;
}
);
note = Ndotaccent;
unicode = 1E44;
},
{
glyphname = Ndotbelow;
lastChange = "2015-11-30 01:00:51 +0000";
layers = (
{
layerId = "A85C0A33-2487-4E47-AED8-78B93E482A34";
name = "Regular Italic";
paths = (
{
closed = 1;
nodes = (
"137 0 LINE",
"240 488 LINE",
"464 0 LINE",
"584 0 LINE",
"732 699 LINE",
"605 699 LINE",
"502 212 LINE",
"278 699 LINE",
"158 699 LINE",
"10 0 LINE"
);
},
{
closed = 1;
nodes = (
"297 -179 OFFCURVE",
"333 -150 OFFCURVE",
"340 -113 CURVE SMOOTH",
"348 -76 OFFCURVE",
"325 -46 OFFCURVE",
"290 -46 CURVE SMOOTH",
"254 -46 OFFCURVE",
"216 -76 OFFCURVE",
"208 -113 CURVE SMOOTH",
"201 -150 OFFCURVE",
"225 -179 OFFCURVE",
"261 -179 CURVE SMOOTH"
);
}
);
width = 694;
}
);
note = Ndotbelow;
unicode = 1E46;
},
{
glyphname = Eng;
lastChange = "2015-11-30 01:00:49 +0000";
layers = (
{
layerId = "A85C0A33-2487-4E47-AED8-78B93E482A34";
name = "Regular Italic";
paths = (
{
closed = 1;
nodes = (
"458 -230 OFFCURVE",
"546 -176 OFFCURVE",
"572 -55 CURVE SMOOTH",
"732 699 LINE",
"605 699 LINE",
"502 212 LINE",
"278 699 LINE",
"158 699 LINE",
"10 0 LINE",
"137 0 LINE",
"240 488 LINE",
"460 9 LINE",
"449 -42 LINE SMOOTH",
"436 -101 OFFCURVE",
"405 -127 OFFCURVE",
"350 -127 CURVE SMOOTH",
"326 -127 OFFCURVE",
"306 -123 OFFCURVE",
"290 -115 CURVE",
"268 -217 LINE",
"289 -225 OFFCURVE",
"316 -230 OFFCURVE",
"350 -230 CURVE SMOOTH"
);
}
);
width = 694;
}
);
note = Eng;
unicode = 014A;
},
{
glyphname = Nlinebelow;
lastChange = "2015-11-30 01:00:51 +0000";
layers = (
{
layerId = "A85C0A33-2487-4E47-AED8-78B93E482A34";
name = "Regular Italic";
paths = (
{
closed = 1;
nodes = (
"137 0 LINE",
"240 488 LINE",
"464 0 LINE",
"584 0 LINE",
"732 699 LINE",
"605 699 LINE",
"502 212 LINE",
"278 699 LINE",
"158 699 LINE",
"10 0 LINE"
);
},
{
closed = 1;
nodes = (
"432 -151 LINE",
"450 -68 LINE",
"128 -68 LINE",
"110 -151 LINE"
);
}
);
width = 694;
}
);
note = Nlinebelow;
unicode = 1E48;
},
{
glyphname = Ntilde;
lastChange = "2015-11-30 01:00:50 +0000";
layers = (
{
layerId = "A85C0A33-2487-4E47-AED8-78B93E482A34";
name = "Regular Italic";
paths = (
{
closed = 1;
nodes = (
"137 0 LINE",
"240 488 LINE",
"464 0 LINE",
"584 0 LINE",
"732 699 LINE",
"605 699 LINE",
"502 212 LINE",
"278 699 LINE",
"158 699 LINE",
"10 0 LINE"
);
},
{
closed = 1;
nodes = (
"286 781 OFFCURVE",
"321 794 OFFCURVE",
"358 794 CURVE SMOOTH",
"422 794 OFFCURVE",
"464 744 OFFCURVE",
"537 744 CURVE SMOOTH",
"579 744 OFFCURVE",
"616 755 OFFCURVE",
"645 786 CURVE",
"667 889 LINE",
"631 851 OFFCURVE",
"595 838 OFFCURVE",
"557 838 CURVE SMOOTH",
"492 838 OFFCURVE",
"446 888 OFFCURVE",
"378 888 CURVE SMOOTH",
"337 888 OFFCURVE",
"299 876 OFFCURVE",
"269 845 CURVE",
"247 742 LINE"
);
}
);
width = 694;
}
);
note = Ntilde;
unicode = 00D1;
},
{
glyphname = O;
lastChange = "2015-11-30 01:00:49 +0000";
layers = (
{
layerId = "A85C0A33-2487-4E47-AED8-78B93E482A34";
name = "Regular Italic";
paths = (
{
closed = 1;
nodes = (
"583 -15 OFFCURVE",
"758 131 OFFCURVE",
"805 349 CURVE SMOOTH",
"851 568 OFFCURVE",
"716 714 OFFCURVE",
"512 714 CURVE SMOOTH",
"291 714 OFFCURVE",
"110 568 OFFCURVE",
"64 349 CURVE SMOOTH",
"17 131 OFFCURVE",
"147 -15 OFFCURVE",
"357 -15 CURVE SMOOTH"
);
},
{
closed = 1;
nodes = (
"211 100 OFFCURVE",
"159 195 OFFCURVE",
"192 349 CURVE SMOOTH",
"224 501 OFFCURVE",
"352 598 OFFCURVE",
"488 598 CURVE SMOOTH",
"656 598 OFFCURVE",
"709 501 OFFCURVE",
"677 349 CURVE SMOOTH",
"644 195 OFFCURVE",
"515 100 OFFCURVE",
"382 100 CURVE SMOOTH"
);
}
);
width = 821;
}
);
leftKerningGroup = O;
note = O;
rightKerningGroup = O;
unicode = 004F;
},
{
glyphname = Oacute;
lastChange = "2015-11-30 01:00:52 +0000";
layers = (
{
layerId = "A85C0A33-2487-4E47-AED8-78B93E482A34";
name = "Regular Italic";
paths = (
{
closed = 1;
nodes = (
"583 -15 OFFCURVE",
"758 131 OFFCURVE",
"805 349 CURVE SMOOTH",
"851 568 OFFCURVE",
"716 714 OFFCURVE",
"512 714 CURVE SMOOTH",
"291 714 OFFCURVE",
"110 568 OFFCURVE",
"64 349 CURVE SMOOTH",
"17 131 OFFCURVE",
"147 -15 OFFCURVE",
"357 -15 CURVE SMOOTH"
);
},
{
closed = 1;
nodes = (
"211 100 OFFCURVE",
"159 195 OFFCURVE",
"192 349 CURVE SMOOTH",
"224 501 OFFCURVE",
"352 598 OFFCURVE",
"488 598 CURVE SMOOTH",
"656 598 OFFCURVE",
"709 501 OFFCURVE",
"677 349 CURVE SMOOTH",
"644 195 OFFCURVE",
"515 100 OFFCURVE",
"382 100 CURVE SMOOTH"
);
},
{
closed = 1;
nodes = (
"555 742 LINE",
"678 916 LINE",
"545 916 LINE",
"439 742 LINE"
);
}
);
width = 821;
}
);
leftKerningGroup = O;
note = Oacute;
rightKerningGroup = O;
unicode = 00D3;
},
{
glyphname = Obreve;
lastChange = "2015-11-30 01:00:50 +0000";
layers = (
{
layerId = "A85C0A33-2487-4E47-AED8-78B93E482A34";
name = "Regular Italic";
paths = (
{
closed = 1;
nodes = (
"583 -15 OFFCURVE",
"758 131 OFFCURVE",
"805 349 CURVE SMOOTH",
"851 568 OFFCURVE",
"716 714 OFFCURVE",
"512 714 CURVE SMOOTH",
"291 714 OFFCURVE",
"110 568 OFFCURVE",
"64 349 CURVE SMOOTH",
"17 131 OFFCURVE",
"147 -15 OFFCURVE",
"357 -15 CURVE SMOOTH"
);
},
{
closed = 1;
nodes = (
"211 100 OFFCURVE",
"159 195 OFFCURVE",
"192 349 CURVE SMOOTH",
"224 501 OFFCURVE",
"352 598 OFFCURVE",
"488 598 CURVE SMOOTH",
"656 598 OFFCURVE",
"709 501 OFFCURVE",
"677 349 CURVE SMOOTH",
"644 195 OFFCURVE",
"515 100 OFFCURVE",
"382 100 CURVE SMOOTH"
);
},
{
closed = 1;
nodes = (
"598 742 OFFCURVE",
"671 803 OFFCURVE",
"690 893 CURVE",
"590 893 LINE",
"581 849 OFFCURVE",
"552 826 OFFCURVE",
"510 826 CURVE SMOOTH",
"468 826 OFFCURVE",
"449 849 OFFCURVE",
"458 893 CURVE",
"369 893 LINE",
"350 803 OFFCURVE",
"396 742 OFFCURVE",
"497 742 CURVE SMOOTH"
);
}
);
width = 821;
}
);
leftKerningGroup = O;
note = Obreve;
rightKerningGroup = O;
unicode = 014E;
},
{
glyphname = Ocaron;
lastChange = "2015-11-30 01:00:52 +0000";
layers = (
{
layerId = "A85C0A33-2487-4E47-AED8-78B93E482A34";
name = "Regular Italic";
paths = (
{
closed = 1;
nodes = (
"583 -15 OFFCURVE",
"758 131 OFFCURVE",
"805 349 CURVE SMOOTH",
"851 568 OFFCURVE",
"716 714 OFFCURVE",
"512 714 CURVE SMOOTH",
"291 714 OFFCURVE",
"110 568 OFFCURVE",
"64 349 CURVE SMOOTH",
"17 131 OFFCURVE",
"147 -15 OFFCURVE",
"357 -15 CURVE SMOOTH"
);
},
{
closed = 1;
nodes = (
"211 100 OFFCURVE",
"159 195 OFFCURVE",
"192 349 CURVE SMOOTH",
"224 501 OFFCURVE",
"352 598 OFFCURVE",
"488 598 CURVE SMOOTH",
"656 598 OFFCURVE",
"709 501 OFFCURVE",
"677 349 CURVE SMOOTH",
"644 195 OFFCURVE",
"515 100 OFFCURVE",
"382 100 CURVE SMOOTH"
);
},
{
closed = 1;
nodes = (
"552 742 LINE",
"735 913 LINE",
"603 913 LINE",
"505 813 LINE",
"451 913 LINE",
"331 913 LINE",
"440 742 LINE"
);
}
);
width = 821;
}
);
leftKerningGroup = O;
note = Ocaron;
rightKerningGroup = O;
unicode = 01D1;
},
{
glyphname = Ocircumflex;
lastChange = "2015-11-30 01:00:49 +0000";
layers = (
{
layerId = "A85C0A33-2487-4E47-AED8-78B93E482A34";
name = "Regular Italic";
paths = (
{
closed = 1;
nodes = (
"583 -15 OFFCURVE",
"758 131 OFFCURVE",
"805 349 CURVE SMOOTH",
"851 568 OFFCURVE",
"716 714 OFFCURVE",
"512 714 CURVE SMOOTH",
"291 714 OFFCURVE",
"110 568 OFFCURVE",
"64 349 CURVE SMOOTH",
"17 131 OFFCURVE",
"147 -15 OFFCURVE",
"357 -15 CURVE SMOOTH"
);
},
{
closed = 1;
nodes = (
"211 100 OFFCURVE",
"159 195 OFFCURVE",
"192 349 CURVE SMOOTH",
"224 501 OFFCURVE",
"352 598 OFFCURVE",
"488 598 CURVE SMOOTH",
"656 598 OFFCURVE",
"709 501 OFFCURVE",
"677 349 CURVE SMOOTH",
"644 195 OFFCURVE",
"515 100 OFFCURVE",
"382 100 CURVE SMOOTH"
);
},
{
closed = 1;
nodes = (
"426 742 LINE",
"523 841 LINE",
"578 742 LINE",
"699 742 LINE",
"590 913 LINE",
"478 913 LINE",
"295 742 LINE"
);
}
);
width = 821;
}
);
leftKerningGroup = O;
note = Ocircumflex;
rightKerningGroup = O;
unicode = 00D4;
},
{
glyphname = Ocircumflexacute;
lastChange = "2015-11-30 01:00:52 +0000";
layers = (
{
layerId = "A85C0A33-2487-4E47-AED8-78B93E482A34";
name = "Regular Italic";
paths = (
{
closed = 1;
nodes = (
"583 -15 OFFCURVE",
"758 131 OFFCURVE",
"805 349 CURVE SMOOTH",
"851 568 OFFCURVE",
"716 714 OFFCURVE",
"512 714 CURVE SMOOTH",
"291 714 OFFCURVE",
"110 568 OFFCURVE",
"64 349 CURVE SMOOTH",
"17 131 OFFCURVE",
"147 -15 OFFCURVE",
"357 -15 CURVE SMOOTH"
);
},
{
closed = 1;
nodes = (
"211 100 OFFCURVE",
"159 195 OFFCURVE",
"192 349 CURVE SMOOTH",
"224 501 OFFCURVE",
"352 598 OFFCURVE",
"488 598 CURVE SMOOTH",
"656 598 OFFCURVE",
"709 501 OFFCURVE",
"677 349 CURVE SMOOTH",
"644 195 OFFCURVE",
"515 100 OFFCURVE",
"382 100 CURVE SMOOTH"
);
},
{
closed = 1;
nodes = (
"460 742 LINE",
"550 826 LINE",
"604 742 LINE",
"722 742 LINE",
"617 894 LINE",
"511 894 LINE",
"340 742 LINE"
);
},
{
closed = 1;
nodes = (
"789 841 LINE",
"893 969 LINE",
"776 969 LINE",
"689 841 LINE"
);
}
);
width = 821;
}
);
leftKerningGroup = O;
note = Ocircumflexacute;
rightKerningGroup = O;
unicode = 1ED0;
},
{
glyphname = Ocircumflexdotbelow;
lastChange = "2015-11-30 01:00:50 +0000";
layers = (
{
layerId = "A85C0A33-2487-4E47-AED8-78B93E482A34";
name = "Regular Italic";
paths = (
{
closed = 1;
nodes = (
"583 -15 OFFCURVE",
"758 131 OFFCURVE",
"805 349 CURVE SMOOTH",
"851 568 OFFCURVE",
"716 714 OFFCURVE",
"512 714 CURVE SMOOTH",
"291 714 OFFCURVE",
"110 568 OFFCURVE",
"64 349 CURVE SMOOTH",
"17 131 OFFCURVE",
"147 -15 OFFCURVE",
"357 -15 CURVE SMOOTH"
);
},
{
closed = 1;
nodes = (
"360 -179 OFFCURVE",
"396 -150 OFFCURVE",
"403 -113 CURVE SMOOTH",
"411 -76 OFFCURVE",
"388 -46 OFFCURVE",
"353 -46 CURVE SMOOTH",
"317 -46 OFFCURVE",
"279 -76 OFFCURVE",
"271 -113 CURVE SMOOTH",
"264 -150 OFFCURVE",
"288 -179 OFFCURVE",
"324 -179 CURVE SMOOTH"
);
},
{
closed = 1;
nodes = (
"211 100 OFFCURVE",
"159 195 OFFCURVE",
"192 349 CURVE SMOOTH",
"224 501 OFFCURVE",
"352 598 OFFCURVE",
"488 598 CURVE SMOOTH",
"656 598 OFFCURVE",
"709 501 OFFCURVE",
"677 349 CURVE SMOOTH",
"644 195 OFFCURVE",
"515 100 OFFCURVE",
"382 100 CURVE SMOOTH"
);
},
{
closed = 1;
nodes = (
"426 742 LINE",
"523 841 LINE",
"578 742 LINE",
"699 742 LINE",
"590 913 LINE",
"478 913 LINE",
"295 742 LINE"
);
}
);
width = 821;
}
);
leftKerningGroup = O;
note = Ocircumflexdotbelow;
rightKerningGroup = O;
unicode = 1ED8;
},
{
glyphname = Ocircumflexgrave;
lastChange = "2015-11-30 01:00:51 +0000";
layers = (
{
layerId = "A85C0A33-2487-4E47-AED8-78B93E482A34";
name = "Regular Italic";
paths = (
{
closed = 1;
nodes = (
"583 -15 OFFCURVE",
"758 131 OFFCURVE",
"805 349 CURVE SMOOTH",
"851 568 OFFCURVE",
"716 714 OFFCURVE",
"512 714 CURVE SMOOTH",
"291 714 OFFCURVE",
"110 568 OFFCURVE",
"64 349 CURVE SMOOTH",
"17 131 OFFCURVE",
"147 -15 OFFCURVE",
"357 -15 CURVE SMOOTH"
);
},
{
closed = 1;
nodes = (
"211 100 OFFCURVE",
"159 195 OFFCURVE",
"192 349 CURVE SMOOTH",
"224 501 OFFCURVE",
"352 598 OFFCURVE",
"488 598 CURVE SMOOTH",
"656 598 OFFCURVE",
"709 501 OFFCURVE",
"677 349 CURVE SMOOTH",
"644 195 OFFCURVE",
"515 100 OFFCURVE",
"382 100 CURVE SMOOTH"
);
},
{
closed = 1;
nodes = (
"409 841 LINE",
"375 969 LINE",
"258 969 LINE",
"308 841 LINE"
);
},
{
closed = 1;
nodes = (
"452 742 LINE",
"542 826 LINE",
"595 742 LINE",
"715 742 LINE",
"608 894 LINE",
"503 894 LINE",
"333 742 LINE"
);
}
);
width = 821;
}
);
leftKerningGroup = O;
note = Ocircumflexgrave;
rightKerningGroup = O;
unicode = 1ED2;
},
{
glyphname = Ocircumflexhookabove;
lastChange = "2015-11-30 01:00:49 +0000";
layers = (
{
layerId = "A85C0A33-2487-4E47-AED8-78B93E482A34";
name = "Regular Italic";
paths = (
{
closed = 1;
nodes = (
"583 -15 OFFCURVE",
"758 131 OFFCURVE",
"805 349 CURVE SMOOTH",
"851 568 OFFCURVE",
"716 714 OFFCURVE",
"512 714 CURVE SMOOTH",
"291 714 OFFCURVE",
"110 568 OFFCURVE",
"64 349 CURVE SMOOTH",
"17 131 OFFCURVE",
"147 -15 OFFCURVE",
"357 -15 CURVE SMOOTH"
);
},
{
closed = 1;
nodes = (
"211 100 OFFCURVE",
"159 195 OFFCURVE",
"192 349 CURVE SMOOTH",
"224 501 OFFCURVE",
"352 598 OFFCURVE",
"488 598 CURVE SMOOTH",
"656 598 OFFCURVE",
"709 501 OFFCURVE",
"677 349 CURVE SMOOTH",
"644 195 OFFCURVE",
"515 100 OFFCURVE",
"382 100 CURVE SMOOTH"
);
},
{
closed = 1;
nodes = (
"460 742 LINE",
"550 826 LINE",
"604 742 LINE",
"722 742 LINE",
"617 894 LINE",
"511 894 LINE",
"340 742 LINE"
);
},
{
closed = 1;
nodes = (
"765 830 LINE",
"770 854 LINE",
"811 861 OFFCURVE",
"841 885 OFFCURVE",
"848 919 CURVE SMOOTH",
"857 961 OFFCURVE",
"826 989 OFFCURVE",
"766 989 CURVE SMOOTH",
"742 989 OFFCURVE",
"711 984 OFFCURVE",
"692 978 CURVE",
"682 929 LINE",
"693 934 OFFCURVE",
"710 937 OFFCURVE",
"724 937 CURVE SMOOTH",
"752 937 OFFCURVE",
"765 932 OFFCURVE",
"760 911 CURVE SMOOTH",
"755 887 OFFCURVE",
"734 880 OFFCURVE",
"697 880 CURVE",
"687 830 LINE"
);
}
);
width = 821;
}
);
leftKerningGroup = O;
note = Ocircumflexhookabove;
rightKerningGroup = O;
unicode = 1ED4;
},
{
glyphname = Ocircumflextilde;
lastChange = "2015-11-30 01:00:50 +0000";
layers = (
{
layerId = "A85C0A33-2487-4E47-AED8-78B93E482A34";
name = "Regular Italic";
paths = (
{
closed = 1;
nodes = (
"583 -15 OFFCURVE",
"758 131 OFFCURVE",
"805 349 CURVE SMOOTH",
"851 568 OFFCURVE",
"716 714 OFFCURVE",
"512 714 CURVE SMOOTH",
"291 714 OFFCURVE",
"110 568 OFFCURVE",
"64 349 CURVE SMOOTH",
"17 131 OFFCURVE",
"147 -15 OFFCURVE",
"357 -15 CURVE SMOOTH"
);
},
{
closed = 1;
nodes = (
"211 100 OFFCURVE",
"159 195 OFFCURVE",
"192 349 CURVE SMOOTH",
"224 501 OFFCURVE",
"352 598 OFFCURVE",
"488 598 CURVE SMOOTH",
"656 598 OFFCURVE",
"709 501 OFFCURVE",
"677 349 CURVE SMOOTH",
"644 195 OFFCURVE",
"515 100 OFFCURVE",
"382 100 CURVE SMOOTH"
);
},
{
closed = 1;
nodes = (
"616 742 OFFCURVE",
"686 801 OFFCURVE",
"704 889 CURVE",
"613 889 LINE",
"604 846 OFFCURVE",
"577 824 OFFCURVE",
"536 824 CURVE SMOOTH",
"495 824 OFFCURVE",
"476 846 OFFCURVE",
"485 889 CURVE",
"393 889 LINE",
"375 801 OFFCURVE",
"420 742 OFFCURVE",
"518 742 CURVE SMOOTH"
);
},
{
closed = 1;
nodes = (
"670 925 OFFCURVE",
"697 935 OFFCURVE",
"719 959 CURVE",
"738 1049 LINE",
"710 1018 OFFCURVE",
"682 1007 OFFCURVE",
"652 1007 CURVE SMOOTH",
"604 1007 OFFCURVE",
"558 1050 OFFCURVE",
"508 1050 CURVE SMOOTH",
"473 1050 OFFCURVE",
"444 1040 OFFCURVE",
"422 1015 CURVE",
"403 926 LINE",
"433 957 OFFCURVE",
"459 968 OFFCURVE",
"490 968 CURVE SMOOTH",
"537 968 OFFCURVE",
"581 925 OFFCURVE",
"635 925 CURVE SMOOTH"
);
}
);
width = 821;
}
);
leftKerningGroup = O;
note = Ocircumflextilde;
rightKerningGroup = O;
unicode = 1ED6;
},
{
glyphname = Odieresis;
lastChange = "2015-11-30 01:00:51 +0000";
layers = (
{
layerId = "A85C0A33-2487-4E47-AED8-78B93E482A34";
name = "Regular Italic";
paths = (
{
closed = 1;
nodes = (
"583 -15 OFFCURVE",
"758 131 OFFCURVE",
"805 349 CURVE SMOOTH",
"851 568 OFFCURVE",
"716 714 OFFCURVE",
"512 714 CURVE SMOOTH",
"291 714 OFFCURVE",
"110 568 OFFCURVE",
"64 349 CURVE SMOOTH",
"17 131 OFFCURVE",
"147 -15 OFFCURVE",
"357 -15 CURVE SMOOTH"
);
},
{
closed = 1;
nodes = (
"211 100 OFFCURVE",
"159 195 OFFCURVE",
"192 349 CURVE SMOOTH",
"224 501 OFFCURVE",
"352 598 OFFCURVE",
"488 598 CURVE SMOOTH",
"656 598 OFFCURVE",
"709 501 OFFCURVE",
"677 349 CURVE SMOOTH",
"644 195 OFFCURVE",
"515 100 OFFCURVE",
"382 100 CURVE SMOOTH"
);
},
{
closed = 1;
nodes = (
"416 752 OFFCURVE",
"453 781 OFFCURVE",
"460 818 CURVE SMOOTH",
"468 855 OFFCURVE",
"445 885 OFFCURVE",
"409 885 CURVE SMOOTH",
"374 885 OFFCURVE",
"336 855 OFFCURVE",
"328 818 CURVE SMOOTH",
"321 781 OFFCURVE",
"345 752 OFFCURVE",
"380 752 CURVE SMOOTH"
);
},
{
closed = 1;
nodes = (
"653 752 OFFCURVE",
"690 781 OFFCURVE",
"697 818 CURVE SMOOTH",
"705 855 OFFCURVE",
"682 885 OFFCURVE",
"646 885 CURVE SMOOTH",
"610 885 OFFCURVE",
"572 855 OFFCURVE",
"564 818 CURVE SMOOTH",
"557 781 OFFCURVE",
"581 752 OFFCURVE",
"617 752 CURVE SMOOTH"
);
}
);
width = 821;
}
);
leftKerningGroup = O;
note = Odieresis;
rightKerningGroup = O;
unicode = 00D6;
},
{
glyphname = Odotbelow;
lastChange = "2015-11-30 01:00:50 +0000";
layers = (
{
layerId = "A85C0A33-2487-4E47-AED8-78B93E482A34";
name = "Regular Italic";
paths = (
{
closed = 1;
nodes = (
"583 -15 OFFCURVE",
"758 131 OFFCURVE",
"805 349 CURVE SMOOTH",
"851 568 OFFCURVE",
"716 714 OFFCURVE",
"512 714 CURVE SMOOTH",
"291 714 OFFCURVE",
"110 568 OFFCURVE",
"64 349 CURVE SMOOTH",
"17 131 OFFCURVE",
"147 -15 OFFCURVE",
"357 -15 CURVE SMOOTH"
);
},
{
closed = 1;
nodes = (
"359 -179 OFFCURVE",
"395 -150 OFFCURVE",
"402 -113 CURVE SMOOTH",
"410 -76 OFFCURVE",
"387 -46 OFFCURVE",
"352 -46 CURVE SMOOTH",
"316 -46 OFFCURVE",
"278 -76 OFFCURVE",
"270 -113 CURVE SMOOTH",
"263 -150 OFFCURVE",
"287 -179 OFFCURVE",
"323 -179 CURVE SMOOTH"
);
},
{
closed = 1;
nodes = (
"211 100 OFFCURVE",
"159 195 OFFCURVE",
"192 349 CURVE SMOOTH",
"224 501 OFFCURVE",
"352 598 OFFCURVE",
"488 598 CURVE SMOOTH",
"656 598 OFFCURVE",
"709 501 OFFCURVE",
"677 349 CURVE SMOOTH",
"644 195 OFFCURVE",
"515 100 OFFCURVE",
"382 100 CURVE SMOOTH"
);
}
);
width = 821;
}
);
leftKerningGroup = O;
note = Odotbelow;
rightKerningGroup = O;
unicode = 1ECC;
},
{
glyphname = Ograve;
lastChange = "2015-11-30 01:00:50 +0000";
layers = (
{
layerId = "A85C0A33-2487-4E47-AED8-78B93E482A34";
name = "Regular Italic";
paths = (
{
closed = 1;
nodes = (
"583 -15 OFFCURVE",
"758 131 OFFCURVE",
"805 349 CURVE SMOOTH",
"851 568 OFFCURVE",
"716 714 OFFCURVE",
"512 714 CURVE SMOOTH",
"291 714 OFFCURVE",
"110 568 OFFCURVE",
"64 349 CURVE SMOOTH",
"17 131 OFFCURVE",
"147 -15 OFFCURVE",
"357 -15 CURVE SMOOTH"
);
},
{
closed = 1;
nodes = (
"211 100 OFFCURVE",
"159 195 OFFCURVE",
"192 349 CURVE SMOOTH",
"224 501 OFFCURVE",
"352 598 OFFCURVE",
"488 598 CURVE SMOOTH",
"656 598 OFFCURVE",
"709 501 OFFCURVE",
"677 349 CURVE SMOOTH",
"644 195 OFFCURVE",
"515 100 OFFCURVE",
"382 100 CURVE SMOOTH"
);
},
{
closed = 1;
nodes = (
"565 742 LINE",
"533 916 LINE",
"400 916 LINE",
"449 742 LINE"
);
}
);
width = 821;
}
);
leftKerningGroup = O;
note = Ograve;
rightKerningGroup = O;
unicode = 00D2;
},
{
glyphname = Ohookabove;
lastChange = "2015-11-30 01:00:52 +0000";
layers = (
{
layerId = "A85C0A33-2487-4E47-AED8-78B93E482A34";
name = "Regular Italic";
paths = (
{
closed = 1;
nodes = (
"583 -15 OFFCURVE",
"758 131 OFFCURVE",
"805 349 CURVE SMOOTH",
"851 568 OFFCURVE",
"716 714 OFFCURVE",
"512 714 CURVE SMOOTH",
"291 714 OFFCURVE",
"110 568 OFFCURVE",
"64 349 CURVE SMOOTH",
"17 131 OFFCURVE",
"147 -15 OFFCURVE",
"357 -15 CURVE SMOOTH"
);
},
{
closed = 1;
nodes = (
"211 100 OFFCURVE",
"159 195 OFFCURVE",
"192 349 CURVE SMOOTH",
"224 501 OFFCURVE",
"352 598 OFFCURVE",
"488 598 CURVE SMOOTH",
"656 598 OFFCURVE",
"709 501 OFFCURVE",
"677 349 CURVE SMOOTH",
"644 195 OFFCURVE",
"515 100 OFFCURVE",
"382 100 CURVE SMOOTH"
);
},
{
closed = 1;
nodes = (
"549 742 LINE",
"556 776 LINE",
"617 785 OFFCURVE",
"657 822 OFFCURVE",
"667 870 CURVE SMOOTH",
"680 929 OFFCURVE",
"642 970 OFFCURVE",
"548 970 CURVE SMOOTH",
"512 970 OFFCURVE",
"472 963 OFFCURVE",
"447 956 CURVE",
"433 890 LINE",
"448 896 OFFCURVE",
"486 902 OFFCURVE",
"502 902 CURVE SMOOTH",
"547 902 OFFCURVE",
"561 891 OFFCURVE",
"556 865 CURVE SMOOTH",
"548 827 OFFCURVE",
"511 816 OFFCURVE",
"455 816 CURVE",
"439 742 LINE"
);
}
);
width = 821;
}
);
leftKerningGroup = O;
note = Ohookabove;
rightKerningGroup = O;
unicode = 1ECE;
},
{
glyphname = Ohorn;
lastChange = "2015-11-30 01:00:49 +0000";
layers = (
{
layerId = "A85C0A33-2487-4E47-AED8-78B93E482A34";
name = "Regular Italic";
paths = (
{
closed = 1;
nodes = (
"583 -15 OFFCURVE",
"758 131 OFFCURVE",
"805 349 CURVE SMOOTH",
"819 418 OFFCURVE",
"816 480 OFFCURVE",
"798 532 CURVE",
"882 553 OFFCURVE",
"943 622 OFFCURVE",
"961 705 CURVE SMOOTH",
"970 747 LINE",
"853 747 LINE",
"846 712 LINE SMOOTH",
"832 646 OFFCURVE",
"809 626 OFFCURVE",
"741 626 CURVE",
"687 682 OFFCURVE",
"607 714 OFFCURVE",
"512 714 CURVE SMOOTH",
"291 714 OFFCURVE",
"110 568 OFFCURVE",
"64 349 CURVE SMOOTH",
"17 131 OFFCURVE",
"147 -15 OFFCURVE",
"357 -15 CURVE SMOOTH"
);
},
{
closed = 1;
nodes = (
"211 100 OFFCURVE",
"159 195 OFFCURVE",
"192 349 CURVE SMOOTH",
"224 501 OFFCURVE",
"352 598 OFFCURVE",
"488 598 CURVE SMOOTH",
"656 598 OFFCURVE",
"709 501 OFFCURVE",
"677 349 CURVE SMOOTH",
"644 195 OFFCURVE",
"515 100 OFFCURVE",
"382 100 CURVE SMOOTH"
);
}
);
width = 872;
}
);
leftKerningGroup = O;
note = Ohorn;
rightKerningGroup = O;
unicode = 01A0;
},
{
glyphname = Ohornacute;
lastChange = "2015-11-30 01:00:50 +0000";
layers = (
{
layerId = "A85C0A33-2487-4E47-AED8-78B93E482A34";
name = "Regular Italic";
paths = (
{
closed = 1;
nodes = (
"583 -15 OFFCURVE",
"758 131 OFFCURVE",
"805 349 CURVE SMOOTH",
"819 418 OFFCURVE",
"816 480 OFFCURVE",
"798 532 CURVE",
"882 553 OFFCURVE",
"943 622 OFFCURVE",
"961 705 CURVE SMOOTH",
"970 747 LINE",
"853 747 LINE",
"846 712 LINE SMOOTH",
"832 646 OFFCURVE",
"809 626 OFFCURVE",
"741 626 CURVE",
"687 682 OFFCURVE",
"607 714 OFFCURVE",
"512 714 CURVE SMOOTH",
"291 714 OFFCURVE",
"110 568 OFFCURVE",
"64 349 CURVE SMOOTH",
"17 131 OFFCURVE",
"147 -15 OFFCURVE",
"357 -15 CURVE SMOOTH"
);
},
{
closed = 1;
nodes = (
"211 100 OFFCURVE",
"159 195 OFFCURVE",
"192 349 CURVE SMOOTH",
"224 501 OFFCURVE",
"352 598 OFFCURVE",
"488 598 CURVE SMOOTH",
"656 598 OFFCURVE",
"709 501 OFFCURVE",
"677 349 CURVE SMOOTH",
"644 195 OFFCURVE",
"515 100 OFFCURVE",
"382 100 CURVE SMOOTH"
);
},
{
closed = 1;
nodes = (
"560 742 LINE",
"683 916 LINE",
"550 916 LINE",
"444 742 LINE"
);
}
);
width = 872;
}
);
leftKerningGroup = O;
note = Ohornacute;
rightKerningGroup = O;
unicode = 1EDA;
},
{
glyphname = Ohorndotbelow;
lastChange = "2015-11-30 01:00:51 +0000";
layers = (
{
layerId = "A85C0A33-2487-4E47-AED8-78B93E482A34";
name = "Regular Italic";
paths = (
{
closed = 1;
nodes = (
"583 -15 OFFCURVE",
"758 131 OFFCURVE",
"805 349 CURVE SMOOTH",
"819 418 OFFCURVE",
"816 480 OFFCURVE",
"798 532 CURVE",
"882 553 OFFCURVE",
"943 622 OFFCURVE",
"961 705 CURVE SMOOTH",
"970 747 LINE",
"853 747 LINE",
"846 712 LINE SMOOTH",
"832 646 OFFCURVE",
"809 626 OFFCURVE",
"741 626 CURVE",
"687 682 OFFCURVE",
"607 714 OFFCURVE",
"512 714 CURVE SMOOTH",
"291 714 OFFCURVE",
"110 568 OFFCURVE",
"64 349 CURVE SMOOTH",
"17 131 OFFCURVE",
"147 -15 OFFCURVE",
"357 -15 CURVE SMOOTH"
);
},
{
closed = 1;
nodes = (
"353 -179 OFFCURVE",
"389 -150 OFFCURVE",
"396 -113 CURVE SMOOTH",
"404 -76 OFFCURVE",
"381 -46 OFFCURVE",
"346 -46 CURVE SMOOTH",
"310 -46 OFFCURVE",
"272 -76 OFFCURVE",
"264 -113 CURVE SMOOTH",
"257 -150 OFFCURVE",
"281 -179 OFFCURVE",
"317 -179 CURVE SMOOTH"
);
},
{
closed = 1;
nodes = (
"211 100 OFFCURVE",
"159 195 OFFCURVE",
"192 349 CURVE SMOOTH",
"224 501 OFFCURVE",
"352 598 OFFCURVE",
"488 598 CURVE SMOOTH",
"656 598 OFFCURVE",
"709 501 OFFCURVE",
"677 349 CURVE SMOOTH",
"644 195 OFFCURVE",
"515 100 OFFCURVE",
"382 100 CURVE SMOOTH"
);
}
);
width = 872;
}
);
leftKerningGroup = O;
note = Ohorndotbelow;
rightKerningGroup = O;
unicode = 1EE2;
},
{
glyphname = Ohorngrave;
lastChange = "2015-11-30 01:00:52 +0000";
layers = (
{
layerId = "A85C0A33-2487-4E47-AED8-78B93E482A34";
name = "Regular Italic";
paths = (
{
closed = 1;
nodes = (
"583 -15 OFFCURVE",
"758 131 OFFCURVE",
"805 349 CURVE SMOOTH",
"819 418 OFFCURVE",
"816 480 OFFCURVE",
"798 532 CURVE",
"882 553 OFFCURVE",
"943 622 OFFCURVE",
"961 705 CURVE SMOOTH",
"970 747 LINE",
"853 747 LINE",
"846 712 LINE SMOOTH",
"832 646 OFFCURVE",
"809 626 OFFCURVE",
"741 626 CURVE",
"687 682 OFFCURVE",
"607 714 OFFCURVE",
"512 714 CURVE SMOOTH",
"291 714 OFFCURVE",
"110 568 OFFCURVE",
"64 349 CURVE SMOOTH",
"17 131 OFFCURVE",
"147 -15 OFFCURVE",
"357 -15 CURVE SMOOTH"
);
},
{
closed = 1;
nodes = (
"211 100 OFFCURVE",
"159 195 OFFCURVE",
"192 349 CURVE SMOOTH",
"224 501 OFFCURVE",
"352 598 OFFCURVE",
"488 598 CURVE SMOOTH",
"656 598 OFFCURVE",
"709 501 OFFCURVE",
"677 349 CURVE SMOOTH",
"644 195 OFFCURVE",
"515 100 OFFCURVE",
"382 100 CURVE SMOOTH"
);
},
{
closed = 1;
nodes = (
"547 742 LINE",
"515 916 LINE",
"382 916 LINE",
"431 742 LINE"
);
}
);
width = 872;
}
);
leftKerningGroup = O;
note = Ohorngrave;
rightKerningGroup = O;
unicode = 1EDC;
},
{
glyphname = Ohornhookabove;
lastChange = "2015-11-30 01:00:52 +0000";
layers = (
{
layerId = "A85C0A33-2487-4E47-AED8-78B93E482A34";
name = "Regular Italic";
paths = (
{
closed = 1;
nodes = (
"583 -15 OFFCURVE",
"758 131 OFFCURVE",
"805 349 CURVE SMOOTH",
"819 418 OFFCURVE",
"816 480 OFFCURVE",
"798 532 CURVE",
"882 553 OFFCURVE",
"943 622 OFFCURVE",
"961 705 CURVE SMOOTH",
"970 747 LINE",
"853 747 LINE",
"846 712 LINE SMOOTH",
"832 646 OFFCURVE",
"809 626 OFFCURVE",
"741 626 CURVE",
"687 682 OFFCURVE",
"607 714 OFFCURVE",
"512 714 CURVE SMOOTH",
"291 714 OFFCURVE",
"110 568 OFFCURVE",
"64 349 CURVE SMOOTH",
"17 131 OFFCURVE",
"147 -15 OFFCURVE",
"357 -15 CURVE SMOOTH"
);
},
{
closed = 1;
nodes = (
"211 100 OFFCURVE",
"159 195 OFFCURVE",
"192 349 CURVE SMOOTH",
"224 501 OFFCURVE",
"352 598 OFFCURVE",
"488 598 CURVE SMOOTH",
"656 598 OFFCURVE",
"709 501 OFFCURVE",
"677 349 CURVE SMOOTH",
"644 195 OFFCURVE",
"515 100 OFFCURVE",
"382 100 CURVE SMOOTH"
);
},
{
closed = 1;
nodes = (
"552 742 LINE",
"559 776 LINE",
"620 785 OFFCURVE",
"660 822 OFFCURVE",
"670 870 CURVE SMOOTH",
"683 929 OFFCURVE",
"645 970 OFFCURVE",
"551 970 CURVE SMOOTH",
"515 970 OFFCURVE",
"475 963 OFFCURVE",
"450 956 CURVE",
"436 890 LINE",
"451 896 OFFCURVE",
"489 902 OFFCURVE",
"505 902 CURVE SMOOTH",
"550 902 OFFCURVE",
"564 891 OFFCURVE",
"559 865 CURVE SMOOTH",
"551 827 OFFCURVE",
"514 816 OFFCURVE",
"458 816 CURVE",
"442 742 LINE"
);
}
);
width = 872;
}
);
leftKerningGroup = O;
note = Ohornhookabove;
rightKerningGroup = O;
unicode = 1EDE;
},
{
glyphname = Ohorntilde;
lastChange = "2015-11-30 01:00:50 +0000";
layers = (
{
layerId = "A85C0A33-2487-4E47-AED8-78B93E482A34";
name = "Regular Italic";
paths = (
{
closed = 1;
nodes = (
"583 -15 OFFCURVE",
"758 131 OFFCURVE",
"805 349 CURVE SMOOTH",
"819 418 OFFCURVE",
"816 480 OFFCURVE",
"798 532 CURVE",
"882 553 OFFCURVE",
"943 622 OFFCURVE",
"961 705 CURVE SMOOTH",
"970 747 LINE",
"853 747 LINE",
"846 712 LINE SMOOTH",
"832 646 OFFCURVE",
"809 626 OFFCURVE",
"741 626 CURVE",
"687 682 OFFCURVE",
"607 714 OFFCURVE",
"512 714 CURVE SMOOTH",
"291 714 OFFCURVE",
"110 568 OFFCURVE",
"64 349 CURVE SMOOTH",
"17 131 OFFCURVE",
"147 -15 OFFCURVE",
"357 -15 CURVE SMOOTH"
);
},
{
closed = 1;
nodes = (
"211 100 OFFCURVE",
"159 195 OFFCURVE",
"192 349 CURVE SMOOTH",
"224 501 OFFCURVE",
"352 598 OFFCURVE",
"488 598 CURVE SMOOTH",
"656 598 OFFCURVE",
"709 501 OFFCURVE",
"677 349 CURVE SMOOTH",
"644 195 OFFCURVE",
"515 100 OFFCURVE",
"382 100 CURVE SMOOTH"
);
},
{
closed = 1;
nodes = (
"357 781 OFFCURVE",
"392 794 OFFCURVE",
"429 794 CURVE SMOOTH",
"493 794 OFFCURVE",
"535 744 OFFCURVE",
"608 744 CURVE SMOOTH",
"650 744 OFFCURVE",
"687 755 OFFCURVE",
"716 786 CURVE",
"738 889 LINE",
"702 851 OFFCURVE",
"666 838 OFFCURVE",
"628 838 CURVE SMOOTH",
"563 838 OFFCURVE",
"517 888 OFFCURVE",
"449 888 CURVE SMOOTH",
"408 888 OFFCURVE",
"370 876 OFFCURVE",
"340 845 CURVE",
"318 742 LINE"
);
}
);
width = 872;
}
);
leftKerningGroup = O;
note = Ohorntilde;
rightKerningGroup = O;
unicode = 1EE0;
},
{
glyphname = Ohungarumlaut;
lastChange = "2015-11-30 01:00:49 +0000";
layers = (
{
layerId = "A85C0A33-2487-4E47-AED8-78B93E482A34";
name = "Regular Italic";
paths = (
{
closed = 1;
nodes = (
"583 -15 OFFCURVE",
"758 131 OFFCURVE",
"805 349 CURVE SMOOTH",
"851 568 OFFCURVE",
"716 714 OFFCURVE",
"512 714 CURVE SMOOTH",
"291 714 OFFCURVE",
"110 568 OFFCURVE",
"64 349 CURVE SMOOTH",
"17 131 OFFCURVE",
"147 -15 OFFCURVE",
"357 -15 CURVE SMOOTH"
);
},
{
closed = 1;
nodes = (
"211 100 OFFCURVE",
"159 195 OFFCURVE",
"192 349 CURVE SMOOTH",
"224 501 OFFCURVE",
"352 598 OFFCURVE",
"488 598 CURVE SMOOTH",
"656 598 OFFCURVE",
"709 501 OFFCURVE",
"677 349 CURVE SMOOTH",
"644 195 OFFCURVE",
"515 100 OFFCURVE",
"382 100 CURVE SMOOTH"
);
},
{
closed = 1;
nodes = (
"428 742 LINE",
"551 916 LINE",
"428 916 LINE",
"323 742 LINE"
);
},
{
closed = 1;
nodes = (
"651 742 LINE",
"774 916 LINE",
"652 916 LINE",
"545 742 LINE"
);
}
);
width = 821;
}
);
leftKerningGroup = O;
note = Ohungarumlaut;
rightKerningGroup = O;
unicode = 0150;
},
{
glyphname = Omacron;
lastChange = "2015-11-30 01:00:51 +0000";
layers = (
{
layerId = "A85C0A33-2487-4E47-AED8-78B93E482A34";
name = "Regular Italic";
paths = (
{
closed = 1;
nodes = (
"583 -15 OFFCURVE",
"758 131 OFFCURVE",
"805 349 CURVE SMOOTH",
"851 568 OFFCURVE",
"716 714 OFFCURVE",
"512 714 CURVE SMOOTH",
"291 714 OFFCURVE",
"110 568 OFFCURVE",
"64 349 CURVE SMOOTH",
"17 131 OFFCURVE",
"147 -15 OFFCURVE",
"357 -15 CURVE SMOOTH"
);
},
{
closed = 1;
nodes = (
"211 100 OFFCURVE",
"159 195 OFFCURVE",
"192 349 CURVE SMOOTH",
"224 501 OFFCURVE",
"352 598 OFFCURVE",
"488 598 CURVE SMOOTH",
"656 598 OFFCURVE",
"709 501 OFFCURVE",
"677 349 CURVE SMOOTH",
"644 195 OFFCURVE",
"515 100 OFFCURVE",
"382 100 CURVE SMOOTH"
);
},
{
closed = 1;
nodes = (
"661 752 LINE",
"679 836 LINE",
"357 836 LINE",
"339 752 LINE"
);
}
);
width = 821;
}
);
leftKerningGroup = O;
note = Omacron;
rightKerningGroup = O;
unicode = 014C;
},
{
glyphname = Oslash;
lastChange = "2015-11-30 01:00:50 +0000";
layers = (
{
layerId = "A85C0A33-2487-4E47-AED8-78B93E482A34";
name = "Regular Italic";
paths = (
{
closed = 1;
nodes = (
"230 -86 LINE",
"278 -7 LINE",
"302 -12 OFFCURVE",
"329 -15 OFFCURVE",
"357 -15 CURVE SMOOTH",
"583 -15 OFFCURVE",
"759 131 OFFCURVE",
"805 349 CURVE SMOOTH",
"836 493 OFFCURVE",
"787 605 OFFCURVE",
"692 665 CURVE",
"765 784 LINE",
"641 784 LINE",
"593 706 LINE",
"567 711 OFFCURVE",
"540 714 OFFCURVE",
"512 714 CURVE SMOOTH",
"291 714 OFFCURVE",
"111 568 OFFCURVE",
"64 349 CURVE SMOOTH",
"33 203 OFFCURVE",
"80 90 OFFCURVE",
"177 30 CURVE",
"106 -86 LINE"
);
},
{
closed = 1;
nodes = (
"184 176 OFFCURVE",
"171 250 OFFCURVE",
"192 349 CURVE SMOOTH",
"224 501 OFFCURVE",
"352 598 OFFCURVE",
"488 598 CURVE SMOOTH",
"501 598 OFFCURVE",
"513 597 OFFCURVE",
"525 596 CURVE",
"242 135 LINE"
);
},
{
closed = 1;
nodes = (
"369 100 OFFCURVE",
"356 100 OFFCURVE",
"345 101 CURVE",
"628 561 LINE",
"683 519 OFFCURVE",
"697 445 OFFCURVE",
"677 349 CURVE SMOOTH",
"644 195 OFFCURVE",
"515 100 OFFCURVE",
"382 100 CURVE SMOOTH"
);
}
);
width = 821;
}
);
leftKerningGroup = O;
note = Oslash;
rightKerningGroup = O;
unicode = 00D8;
},
{
glyphname = Oslashacute;
lastChange = "2015-11-30 01:00:49 +0000";
layers = (
{
layerId = "A85C0A33-2487-4E47-AED8-78B93E482A34";
name = "Regular Italic";
paths = (
{
closed = 1;
nodes = (
"230 -86 LINE",
"278 -7 LINE",
"302 -12 OFFCURVE",
"329 -15 OFFCURVE",
"357 -15 CURVE SMOOTH",
"583 -15 OFFCURVE",
"759 131 OFFCURVE",
"805 349 CURVE SMOOTH",
"836 493 OFFCURVE",
"787 605 OFFCURVE",
"692 665 CURVE",
"765 784 LINE",
"641 784 LINE",
"593 706 LINE",
"567 711 OFFCURVE",
"540 714 OFFCURVE",
"512 714 CURVE SMOOTH",
"291 714 OFFCURVE",
"111 568 OFFCURVE",
"64 349 CURVE SMOOTH",
"33 203 OFFCURVE",
"80 90 OFFCURVE",
"177 30 CURVE",
"106 -86 LINE"
);
},
{
closed = 1;
nodes = (
"184 176 OFFCURVE",
"171 250 OFFCURVE",
"192 349 CURVE SMOOTH",
"224 501 OFFCURVE",
"352 598 OFFCURVE",
"488 598 CURVE SMOOTH",
"501 598 OFFCURVE",
"513 597 OFFCURVE",
"525 596 CURVE",
"242 135 LINE"
);
},
{
closed = 1;
nodes = (
"369 100 OFFCURVE",
"356 100 OFFCURVE",
"345 101 CURVE",
"628 561 LINE",
"683 519 OFFCURVE",
"697 445 OFFCURVE",
"677 349 CURVE SMOOTH",
"644 195 OFFCURVE",
"515 100 OFFCURVE",
"382 100 CURVE SMOOTH"
);
},
{
closed = 1;
nodes = (
"554 742 LINE",
"677 916 LINE",
"544 916 LINE",
"438 742 LINE"
);
}
);
width = 821;
}
);
leftKerningGroup = O;
note = Oslashacute;
rightKerningGroup = O;
unicode = 01FE;
},
{
glyphname = Otilde;
lastChange = "2015-11-30 01:00:51 +0000";
layers = (
{
layerId = "A85C0A33-2487-4E47-AED8-78B93E482A34";
name = "Regular Italic";
paths = (
{
closed = 1;
nodes = (
"583 -15 OFFCURVE",
"758 131 OFFCURVE",
"805 349 CURVE SMOOTH",
"851 568 OFFCURVE",
"716 714 OFFCURVE",
"512 714 CURVE SMOOTH",
"291 714 OFFCURVE",
"110 568 OFFCURVE",
"64 349 CURVE SMOOTH",
"17 131 OFFCURVE",
"147 -15 OFFCURVE",
"357 -15 CURVE SMOOTH"
);
},
{
closed = 1;
nodes = (
"211 100 OFFCURVE",
"159 195 OFFCURVE",
"192 349 CURVE SMOOTH",
"224 501 OFFCURVE",
"352 598 OFFCURVE",
"488 598 CURVE SMOOTH",
"656 598 OFFCURVE",
"709 501 OFFCURVE",
"677 349 CURVE SMOOTH",
"644 195 OFFCURVE",
"515 100 OFFCURVE",
"382 100 CURVE SMOOTH"
);
},
{
closed = 1;
nodes = (
"343 781 OFFCURVE",
"378 794 OFFCURVE",
"415 794 CURVE SMOOTH",
"479 794 OFFCURVE",
"521 744 OFFCURVE",
"594 744 CURVE SMOOTH",
"636 744 OFFCURVE",
"673 755 OFFCURVE",
"702 786 CURVE",
"724 889 LINE",
"688 851 OFFCURVE",
"652 838 OFFCURVE",
"614 838 CURVE SMOOTH",
"549 838 OFFCURVE",
"503 888 OFFCURVE",
"435 888 CURVE SMOOTH",
"394 888 OFFCURVE",
"356 876 OFFCURVE",
"326 845 CURVE",
"304 742 LINE"
);
}
);
width = 821;
}
);
leftKerningGroup = O;
note = Otilde;
rightKerningGroup = O;
unicode = 00D5;
},
{
glyphname = OE;
lastChange = "2015-11-30 01:00:49 +0000";
layers = (
{
layerId = "A85C0A33-2487-4E47-AED8-78B93E482A34";
name = "Regular Italic";
paths = (
{
closed = 1;
nodes = (
"804 0 LINE",
"826 105 LINE",
"526 105 LINE",
"567 297 LINE",
"778 297 LINE",
"800 402 LINE",
"589 402 LINE",
"630 594 LINE",
"930 594 LINE",
"952 699 LINE",
"521 699 LINE SMOOTH",
"282 699 OFFCURVE",
"110 568 OFFCURVE",
"64 349 CURVE SMOOTH",
"17 131 OFFCURVE",
"168 0 OFFCURVE",
"373 0 CURVE SMOOTH"
);
},
{
closed = 1;
nodes = (
"226 105 OFFCURVE",
"159 197 OFFCURVE",
"192 349 CURVE SMOOTH",
"224 500 OFFCURVE",
"347 594 OFFCURVE",
"490 594 CURVE SMOOTH",
"503 594 LINE",
"399 105 LINE",
"386 105 LINE SMOOTH"
);
}
);
width = 894;
}
);
leftKerningGroup = O;
note = OE;
rightKerningGroup = E;
unicode = 0152;
},
{
glyphname = P;
lastChange = "2015-11-30 01:00:51 +0000";
layers = (
{
layerId = "A85C0A33-2487-4E47-AED8-78B93E482A34";
name = "Regular Italic";
paths = (
{
closed = 1;
nodes = (
"137 0 LINE",
"189 246 LINE",
"341 246 LINE SMOOTH",
"501 246 OFFCURVE",
"612 321 OFFCURVE",
"644 471 CURVE SMOOTH",
"673 607 OFFCURVE",
"582 699 OFFCURVE",
"438 699 CURVE SMOOTH",
"158 699 LINE",
"10 0 LINE"
);
},
{
closed = 1;
nodes = (
"263 594 LINE",
"400 594 LINE SMOOTH",
"494 594 OFFCURVE",
"537 567 OFFCURVE",
"517 471 CURVE SMOOTH",
"497 377 OFFCURVE",
"425 351 OFFCURVE",
"348 351 CURVE SMOOTH",
"211 351 LINE"
);
}
);
width = 614;
}
);
note = P;
unicode = 0050;
},
{
glyphname = Thorn;
lastChange = "2015-11-30 01:00:51 +0000";
layers = (
{
layerId = "A85C0A33-2487-4E47-AED8-78B93E482A34";
name = "Regular Italic";
paths = (
{
closed = 1;
nodes = (
"137 0 LINE",
"165 133 LINE",
"326 133 LINE SMOOTH",
"489 133 OFFCURVE",
"587 201 OFFCURVE",
"618 351 CURVE SMOOTH",
"647 491 OFFCURVE",
"557 570 OFFCURVE",
"419 570 CURVE SMOOTH",
"258 570 LINE",
"285 699 LINE",
"158 699 LINE",
"10 0 LINE"
);
},
{
closed = 1;
nodes = (
"235 465 LINE",
"383 465 LINE SMOOTH",
"460 465 OFFCURVE",
"511 446 OFFCURVE",
"491 351 CURVE SMOOTH",
"471 257 OFFCURVE",
"401 238 OFFCURVE",
"324 238 CURVE SMOOTH",
"187 238 LINE"
);
}
);
width = 614;
}
);
note = Thorn;
unicode = 00DE;
},
{
glyphname = Q;
lastChange = "2015-11-30 01:00:50 +0000";
layers = (
{
layerId = "A85C0A33-2487-4E47-AED8-78B93E482A34";
name = "Regular Italic";
paths = (
{
closed = 1;
nodes = (
"744 0 LINE",
"767 111 LINE",
"639 111 LINE",
"717 161 OFFCURVE",
"784 254 OFFCURVE",
"805 352 CURVE SMOOTH",
"852 571 OFFCURVE",
"721 714 OFFCURVE",
"512 714 CURVE SMOOTH",
"285 714 OFFCURVE",
"109 571 OFFCURVE",
"64 352 CURVE SMOOTH",
"21 142 OFFCURVE",
"148 0 OFFCURVE",
"377 0 CURVE SMOOTH"
);
},
{
closed = 1;
nodes = (
"220 115 OFFCURVE",
"160 198 OFFCURVE",
"192 352 CURVE SMOOTH",
"225 504 OFFCURVE",
"347 598 OFFCURVE",
"488 598 CURVE SMOOTH",
"648 598 OFFCURVE",
"710 504 OFFCURVE",
"677 352 CURVE SMOOTH",
"645 199 OFFCURVE",
"530 115 OFFCURVE",
"385 115 CURVE SMOOTH"
);
}
);
width = 814;
}
);
leftKerningGroup = O;
note = Q;
rightKerningGroup = O;
unicode = 0051;
},
{
glyphname = R;
lastChange = "2015-11-30 01:00:49 +0000";
layers = (
{
layerId = "A85C0A33-2487-4E47-AED8-78B93E482A34";
name = "Regular Italic";
paths = (
{
closed = 1;
nodes = (
"137 0 LINE",
"191 256 LINE",
"329 256 LINE",
"410 0 LINE",
"540 0 LINE",
"454 269 LINE",
"554 299 OFFCURVE",
"622 374 OFFCURVE",
"645 477 CURVE SMOOTH",
"676 622 OFFCURVE",
"603 699 OFFCURVE",
"450 699 CURVE SMOOTH",
"158 699 LINE",
"10 0 LINE"
);
},
{
closed = 1;
nodes = (
"263 594 LINE",
"411 594 LINE SMOOTH",
"495 594 OFFCURVE",
"537 567 OFFCURVE",
"518 477 CURVE SMOOTH",
"501 397 OFFCURVE",
"448 361 OFFCURVE",
"355 361 CURVE SMOOTH",
"213 361 LINE"
);
}
);
width = 634;
}
);
note = R;
rightKerningGroup = R;
unicode = 0052;
},
{
glyphname = Racute;
lastChange = "2015-11-30 01:00:51 +0000";
layers = (
{
layerId = "A85C0A33-2487-4E47-AED8-78B93E482A34";
name = "Regular Italic";
paths = (
{
closed = 1;
nodes = (
"137 0 LINE",
"191 256 LINE",
"329 256 LINE",
"410 0 LINE",
"540 0 LINE",
"454 269 LINE",
"554 299 OFFCURVE",
"622 374 OFFCURVE",
"645 477 CURVE SMOOTH",
"676 622 OFFCURVE",
"603 699 OFFCURVE",
"450 699 CURVE SMOOTH",
"158 699 LINE",
"10 0 LINE"
);
},
{
closed = 1;
nodes = (
"263 594 LINE",
"411 594 LINE SMOOTH",
"495 594 OFFCURVE",
"537 567 OFFCURVE",
"518 477 CURVE SMOOTH",
"501 397 OFFCURVE",
"448 361 OFFCURVE",
"355 361 CURVE SMOOTH",
"213 361 LINE"
);
},
{
closed = 1;
nodes = (
"423 742 LINE",
"546 916 LINE",
"413 916 LINE",
"307 742 LINE"
);
}
);
width = 634;
}
);
note = Racute;
rightKerningGroup = R;
unicode = 0154;
},
{
glyphname = Rcaron;
lastChange = "2015-11-30 01:00:49 +0000";
layers = (
{
layerId = "A85C0A33-2487-4E47-AED8-78B93E482A34";
name = "Regular Italic";
paths = (
{
closed = 1;
nodes = (
"137 0 LINE",
"191 256 LINE",
"329 256 LINE",
"410 0 LINE",
"540 0 LINE",
"454 269 LINE",
"554 299 OFFCURVE",
"622 374 OFFCURVE",
"645 477 CURVE SMOOTH",
"676 622 OFFCURVE",
"603 699 OFFCURVE",
"450 699 CURVE SMOOTH",
"158 699 LINE",
"10 0 LINE"
);
},
{
closed = 1;
nodes = (
"263 594 LINE",
"411 594 LINE SMOOTH",
"495 594 OFFCURVE",
"537 567 OFFCURVE",
"518 477 CURVE SMOOTH",
"501 397 OFFCURVE",
"448 361 OFFCURVE",
"355 361 CURVE SMOOTH",
"213 361 LINE"
);
},
{
closed = 1;
nodes = (
"413 742 LINE",
"596 913 LINE",
"464 913 LINE",
"366 813 LINE",
"312 913 LINE",
"192 913 LINE",
"301 742 LINE"
);
}
);
width = 634;
}
);
note = Rcaron;
rightKerningGroup = R;
unicode = 0158;
},
{
glyphname = Rcommaaccent;
lastChange = "2015-11-30 01:00:52 +0000";
layers = (
{
layerId = "A85C0A33-2487-4E47-AED8-78B93E482A34";
name = "Regular Italic";
paths = (
{
closed = 1;
nodes = (
"137 0 LINE",
"191 256 LINE",
"329 256 LINE",
"410 0 LINE",
"540 0 LINE",
"454 269 LINE",
"554 299 OFFCURVE",
"622 374 OFFCURVE",
"645 477 CURVE SMOOTH",
"676 622 OFFCURVE",
"603 699 OFFCURVE",
"450 699 CURVE SMOOTH",
"158 699 LINE",
"10 0 LINE"
);
},
{
closed = 1;
nodes = (
"173 -259 LINE",
"315 -56 LINE",
"184 -56 LINE",
"59 -259 LINE"
);
},
{
closed = 1;
nodes = (
"263 594 LINE",
"411 594 LINE SMOOTH",
"495 594 OFFCURVE",
"537 567 OFFCURVE",
"518 477 CURVE SMOOTH",
"501 397 OFFCURVE",
"448 361 OFFCURVE",
"355 361 CURVE SMOOTH",
"213 361 LINE"
);
}
);
width = 634;
}
);
note = Rcommaaccent;
rightKerningGroup = R;
unicode = 0156;
},
{
glyphname = Rdotbelow;
lastChange = "2015-11-30 01:00:51 +0000";
layers = (
{
layerId = "A85C0A33-2487-4E47-AED8-78B93E482A34";
name = "Regular Italic";
paths = (
{
closed = 1;
nodes = (
"137 0 LINE",
"191 256 LINE",
"329 256 LINE",
"410 0 LINE",
"540 0 LINE",
"454 269 LINE",
"554 299 OFFCURVE",
"622 374 OFFCURVE",
"645 477 CURVE SMOOTH",
"676 622 OFFCURVE",
"603 699 OFFCURVE",
"450 699 CURVE SMOOTH",
"158 699 LINE",
"10 0 LINE"
);
},
{
closed = 1;
nodes = (
"254 -179 OFFCURVE",
"290 -150 OFFCURVE",
"297 -113 CURVE SMOOTH",
"305 -76 OFFCURVE",
"282 -46 OFFCURVE",
"247 -46 CURVE SMOOTH",
"211 -46 OFFCURVE",
"173 -76 OFFCURVE",
"165 -113 CURVE SMOOTH",
"158 -150 OFFCURVE",
"182 -179 OFFCURVE",
"218 -179 CURVE SMOOTH"
);
},
{
closed = 1;
nodes = (
"263 594 LINE",
"411 594 LINE SMOOTH",
"495 594 OFFCURVE",
"537 567 OFFCURVE",
"518 477 CURVE SMOOTH",
"501 397 OFFCURVE",
"448 361 OFFCURVE",
"355 361 CURVE SMOOTH",
"213 361 LINE"
);
}
);
width = 634;
}
);
note = Rdotbelow;
rightKerningGroup = R;
unicode = 1E5A;
},
{
glyphname = Rdotbelowmacron;
lastChange = "2015-11-30 01:00:50 +0000";
layers = (
{
layerId = "A85C0A33-2487-4E47-AED8-78B93E482A34";
name = "Regular Italic";
paths = (
{
closed = 1;
nodes = (
"137 0 LINE",
"191 256 LINE",
"329 256 LINE",
"410 0 LINE",
"540 0 LINE",
"454 269 LINE",
"554 299 OFFCURVE",
"622 374 OFFCURVE",
"645 477 CURVE SMOOTH",
"676 622 OFFCURVE",
"603 699 OFFCURVE",
"450 699 CURVE SMOOTH",
"158 699 LINE",
"10 0 LINE"
);
},
{
closed = 1;
nodes = (
"234 -179 OFFCURVE",
"270 -150 OFFCURVE",
"277 -113 CURVE SMOOTH",
"285 -76 OFFCURVE",
"262 -46 OFFCURVE",
"227 -46 CURVE SMOOTH",
"191 -46 OFFCURVE",
"153 -76 OFFCURVE",
"145 -113 CURVE SMOOTH",
"138 -150 OFFCURVE",
"162 -179 OFFCURVE",
"198 -179 CURVE SMOOTH"
);
},
{
closed = 1;
nodes = (
"263 594 LINE",
"411 594 LINE SMOOTH",
"495 594 OFFCURVE",
"537 567 OFFCURVE",
"518 477 CURVE SMOOTH",
"501 397 OFFCURVE",
"448 361 OFFCURVE",
"355 361 CURVE SMOOTH",
"213 361 LINE"
);
},
{
closed = 1;
nodes = (
"535 752 LINE",
"553 836 LINE",
"231 836 LINE",
"213 752 LINE"
);
}
);
width = 634;
}
);
note = Rdotbelowmacron;
rightKerningGroup = R;
unicode = 1E5C;
},
{
glyphname = Rlinebelow;
lastChange = "2015-11-30 01:00:50 +0000";
layers = (
{
layerId = "A85C0A33-2487-4E47-AED8-78B93E482A34";
name = "Regular Italic";
paths = (
{
closed = 1;
nodes = (
"137 0 LINE",
"191 256 LINE",
"329 256 LINE",
"410 0 LINE",
"540 0 LINE",
"454 269 LINE",
"554 299 OFFCURVE",
"622 374 OFFCURVE",
"645 477 CURVE SMOOTH",
"676 622 OFFCURVE",
"603 699 OFFCURVE",
"450 699 CURVE SMOOTH",
"158 699 LINE",
"10 0 LINE"
);
},
{
closed = 1;
nodes = (
"383 -151 LINE",
"401 -68 LINE",
"79 -68 LINE",
"61 -151 LINE"
);
},
{
closed = 1;
nodes = (
"263 594 LINE",
"411 594 LINE SMOOTH",
"495 594 OFFCURVE",
"537 567 OFFCURVE",
"518 477 CURVE SMOOTH",
"501 397 OFFCURVE",
"448 361 OFFCURVE",
"355 361 CURVE SMOOTH",
"213 361 LINE"
);
}
);
width = 634;
}
);
note = Rlinebelow;
rightKerningGroup = R;
unicode = 1E5E;
},
{
glyphname = S;
lastChange = "2015-11-30 01:00:51 +0000";
layers = (
{
layerId = "A85C0A33-2487-4E47-AED8-78B93E482A34";
name = "Regular Italic";
paths = (
{
closed = 1;
nodes = (
"394 -15 OFFCURVE",
"489 60 OFFCURVE",
"515 181 CURVE SMOOTH",
"538 291 OFFCURVE",
"477 342 OFFCURVE",
"368 392 CURVE SMOOTH",
"267 438 OFFCURVE",
"227 456 OFFCURVE",
"241 521 CURVE SMOOTH",
"254 579 OFFCURVE",
"309 611 OFFCURVE",
"394 611 CURVE SMOOTH",
"455 611 OFFCURVE",
"509 597 OFFCURVE",
"561 569 CURVE",
"584 675 LINE",
"531 702 OFFCURVE",
"474 714 OFFCURVE",
"394 714 CURVE SMOOTH",
"246 714 OFFCURVE",
"131 636 OFFCURVE",
"106 521 CURVE SMOOTH",
"85 422 OFFCURVE",
"144 358 OFFCURVE",
"247 313 CURVE SMOOTH",
"353 267 OFFCURVE",
"392 246 OFFCURVE",
"378 182 CURVE SMOOTH",
"366 125 OFFCURVE",
"316 88 OFFCURVE",
"221 88 CURVE SMOOTH",
"151 88 OFFCURVE",
"80 103 OFFCURVE",
"18 136 CURVE",
"-5 27 LINE",
"42 1 OFFCURVE",
"126 -15 OFFCURVE",
"208 -15 CURVE SMOOTH"
);
}
);
width = 567;
}
);
leftKerningGroup = S;
note = S;
rightKerningGroup = S;
unicode = 0053;
},
{
glyphname = Sacute;
lastChange = "2015-11-30 01:00:52 +0000";
layers = (
{
layerId = "A85C0A33-2487-4E47-AED8-78B93E482A34";
name = "Regular Italic";
paths = (
{
closed = 1;
nodes = (
"394 -15 OFFCURVE",
"489 60 OFFCURVE",
"515 181 CURVE SMOOTH",
"538 291 OFFCURVE",
"477 342 OFFCURVE",
"368 392 CURVE SMOOTH",
"267 438 OFFCURVE",
"227 456 OFFCURVE",
"241 521 CURVE SMOOTH",
"254 579 OFFCURVE",
"309 611 OFFCURVE",
"394 611 CURVE SMOOTH",
"455 611 OFFCURVE",
"509 597 OFFCURVE",
"561 569 CURVE",
"584 675 LINE",
"531 702 OFFCURVE",
"474 714 OFFCURVE",
"394 714 CURVE SMOOTH",
"246 714 OFFCURVE",
"131 636 OFFCURVE",
"106 521 CURVE SMOOTH",
"85 422 OFFCURVE",
"144 358 OFFCURVE",
"247 313 CURVE SMOOTH",
"353 267 OFFCURVE",
"392 246 OFFCURVE",
"378 182 CURVE SMOOTH",
"366 125 OFFCURVE",
"316 88 OFFCURVE",
"221 88 CURVE SMOOTH",
"151 88 OFFCURVE",
"80 103 OFFCURVE",
"18 136 CURVE",
"-5 27 LINE",
"42 1 OFFCURVE",
"126 -15 OFFCURVE",
"208 -15 CURVE SMOOTH"
);
},
{
closed = 1;
nodes = (
"424 742 LINE",
"547 916 LINE",
"414 916 LINE",
"308 742 LINE"
);
}
);
width = 567;
}
);
leftKerningGroup = S;
note = Sacute;
rightKerningGroup = S;
unicode = 015A;
},
{
glyphname = Scaron;
lastChange = "2015-11-30 01:00:49 +0000";
layers = (
{
layerId = "A85C0A33-2487-4E47-AED8-78B93E482A34";
name = "Regular Italic";
paths = (
{
closed = 1;
nodes = (
"394 -15 OFFCURVE",
"489 60 OFFCURVE",
"515 181 CURVE SMOOTH",
"538 291 OFFCURVE",
"477 342 OFFCURVE",
"368 392 CURVE SMOOTH",
"267 438 OFFCURVE",
"227 456 OFFCURVE",
"241 521 CURVE SMOOTH",
"254 579 OFFCURVE",
"309 611 OFFCURVE",
"394 611 CURVE SMOOTH",
"455 611 OFFCURVE",
"509 597 OFFCURVE",
"561 569 CURVE",
"584 675 LINE",
"531 702 OFFCURVE",
"474 714 OFFCURVE",
"394 714 CURVE SMOOTH",
"246 714 OFFCURVE",
"131 636 OFFCURVE",
"106 521 CURVE SMOOTH",
"85 422 OFFCURVE",
"144 358 OFFCURVE",
"247 313 CURVE SMOOTH",
"353 267 OFFCURVE",
"392 246 OFFCURVE",
"378 182 CURVE SMOOTH",
"366 125 OFFCURVE",
"316 88 OFFCURVE",
"221 88 CURVE SMOOTH",
"151 88 OFFCURVE",
"80 103 OFFCURVE",
"18 136 CURVE",
"-5 27 LINE",
"42 1 OFFCURVE",
"126 -15 OFFCURVE",
"208 -15 CURVE SMOOTH"
);
},
{
closed = 1;
nodes = (
"433 742 LINE",
"616 913 LINE",
"484 913 LINE",
"386 813 LINE",
"332 913 LINE",
"212 913 LINE",
"321 742 LINE"
);
}
);
width = 567;
}
);
leftKerningGroup = S;
note = Scaron;
rightKerningGroup = S;
unicode = 0160;
},
{
glyphname = Scedilla;
lastChange = "2015-11-30 01:00:51 +0000";
layers = (
{
layerId = "A85C0A33-2487-4E47-AED8-78B93E482A34";
name = "Regular Italic";
paths = (
{
closed = 1;
nodes = (
"231 -248 OFFCURVE",
"295 -213 OFFCURVE",
"309 -150 CURVE SMOOTH",
"320 -97 OFFCURVE",
"296 -59 OFFCURVE",
"239 -52 CURVE",
"263 -12 LINE",
"413 1 OFFCURVE",
"491 72 OFFCURVE",
"515 181 CURVE SMOOTH",
"538 291 OFFCURVE",
"477 342 OFFCURVE",
"368 392 CURVE SMOOTH",
"267 438 OFFCURVE",
"227 456 OFFCURVE",
"241 521 CURVE SMOOTH",
"254 579 OFFCURVE",
"309 611 OFFCURVE",
"394 611 CURVE SMOOTH",
"455 611 OFFCURVE",
"509 597 OFFCURVE",
"561 569 CURVE",
"584 675 LINE",
"531 702 OFFCURVE",
"474 714 OFFCURVE",
"394 714 CURVE SMOOTH",
"246 714 OFFCURVE",
"131 636 OFFCURVE",
"106 521 CURVE SMOOTH",
"85 422 OFFCURVE",
"144 358 OFFCURVE",
"247 313 CURVE SMOOTH",
"353 267 OFFCURVE",
"392 246 OFFCURVE",
"378 182 CURVE SMOOTH",
"366 125 OFFCURVE",
"316 88 OFFCURVE",
"221 88 CURVE SMOOTH",
"151 88 OFFCURVE",
"80 103 OFFCURVE",
"18 136 CURVE",
"-5 27 LINE",
"31 7 OFFCURVE",
"88 -7 OFFCURVE",
"150 -12 CURVE",
"107 -85 LINE",
"180 -85 OFFCURVE",
"202 -108 OFFCURVE",
"195 -138 CURVE SMOOTH",
"189 -166 OFFCURVE",
"165 -179 OFFCURVE",
"127 -179 CURVE SMOOTH",
"107 -179 OFFCURVE",
"85 -174 OFFCURVE",
"72 -167 CURVE",
"56 -236 LINE",
"73 -243 OFFCURVE",
"108 -248 OFFCURVE",
"145 -248 CURVE SMOOTH"
);
}
);
width = 567;
}
);
leftKerningGroup = S;
note = Scedilla;
rightKerningGroup = S;
unicode = 015E;
},
{
glyphname = Scircumflex;
lastChange = "2015-11-30 01:00:51 +0000";
layers = (
{
layerId = "A85C0A33-2487-4E47-AED8-78B93E482A34";
name = "Regular Italic";
paths = (
{
closed = 1;
nodes = (
"394 -15 OFFCURVE",
"489 60 OFFCURVE",
"515 181 CURVE SMOOTH",
"538 291 OFFCURVE",
"477 342 OFFCURVE",
"368 392 CURVE SMOOTH",
"267 438 OFFCURVE",
"227 456 OFFCURVE",
"241 521 CURVE SMOOTH",
"254 579 OFFCURVE",
"309 611 OFFCURVE",
"394 611 CURVE SMOOTH",
"455 611 OFFCURVE",
"509 597 OFFCURVE",
"561 569 CURVE",
"584 675 LINE",
"531 702 OFFCURVE",
"474 714 OFFCURVE",
"394 714 CURVE SMOOTH",
"246 714 OFFCURVE",
"131 636 OFFCURVE",
"106 521 CURVE SMOOTH",
"85 422 OFFCURVE",
"144 358 OFFCURVE",
"247 313 CURVE SMOOTH",
"353 267 OFFCURVE",
"392 246 OFFCURVE",
"378 182 CURVE SMOOTH",
"366 125 OFFCURVE",
"316 88 OFFCURVE",
"221 88 CURVE SMOOTH",
"151 88 OFFCURVE",
"80 103 OFFCURVE",
"18 136 CURVE",
"-5 27 LINE",
"42 1 OFFCURVE",
"126 -15 OFFCURVE",
"208 -15 CURVE SMOOTH"
);
},
{
closed = 1;
nodes = (
"292 742 LINE",
"389 841 LINE",
"444 742 LINE",
"565 742 LINE",
"456 913 LINE",
"344 913 LINE",
"161 742 LINE"
);
}
);
width = 567;
}
);
leftKerningGroup = S;
note = Scircumflex;
rightKerningGroup = S;
unicode = 015C;
},
{
glyphname = Scommaaccent;
lastChange = "2015-11-30 01:00:51 +0000";
layers = (
{
layerId = "A85C0A33-2487-4E47-AED8-78B93E482A34";
name = "Regular Italic";
paths = (
{
closed = 1;
nodes = (
"394 -15 OFFCURVE",
"489 60 OFFCURVE",
"515 181 CURVE SMOOTH",
"538 291 OFFCURVE",
"477 342 OFFCURVE",
"368 392 CURVE SMOOTH",
"267 438 OFFCURVE",
"227 456 OFFCURVE",
"241 521 CURVE SMOOTH",
"254 579 OFFCURVE",
"309 611 OFFCURVE",
"394 611 CURVE SMOOTH",
"455 611 OFFCURVE",
"509 597 OFFCURVE",
"561 569 CURVE",
"584 675 LINE",
"531 702 OFFCURVE",
"474 714 OFFCURVE",
"394 714 CURVE SMOOTH",
"246 714 OFFCURVE",
"131 636 OFFCURVE",
"106 521 CURVE SMOOTH",
"85 422 OFFCURVE",
"144 358 OFFCURVE",
"247 313 CURVE SMOOTH",
"353 267 OFFCURVE",
"392 246 OFFCURVE",
"378 182 CURVE SMOOTH",
"366 125 OFFCURVE",
"316 88 OFFCURVE",
"221 88 CURVE SMOOTH",
"151 88 OFFCURVE",
"80 103 OFFCURVE",
"18 136 CURVE",
"-5 27 LINE",
"42 1 OFFCURVE",
"126 -15 OFFCURVE",
"208 -15 CURVE SMOOTH"
);
},
{
closed = 1;
nodes = (
"132 -259 LINE",
"273 -56 LINE",
"143 -56 LINE",
"17 -259 LINE"
);
}
);
width = 567;
}
);
leftKerningGroup = S;
note = Scommaaccent;
rightKerningGroup = S;
unicode = 0218;
},
{
glyphname = Sdotaccent;
lastChange = "2015-11-30 01:00:51 +0000";
layers = (
{
layerId = "A85C0A33-2487-4E47-AED8-78B93E482A34";
name = "Regular Italic";
paths = (
{
closed = 1;
nodes = (
"394 -15 OFFCURVE",
"489 60 OFFCURVE",
"515 181 CURVE SMOOTH",
"538 291 OFFCURVE",
"477 342 OFFCURVE",
"368 392 CURVE SMOOTH",
"267 438 OFFCURVE",
"227 456 OFFCURVE",
"241 521 CURVE SMOOTH",
"254 579 OFFCURVE",
"309 611 OFFCURVE",
"394 611 CURVE SMOOTH",
"455 611 OFFCURVE",
"509 597 OFFCURVE",
"561 569 CURVE",
"584 675 LINE",
"531 702 OFFCURVE",
"474 714 OFFCURVE",
"394 714 CURVE SMOOTH",
"246 714 OFFCURVE",
"131 636 OFFCURVE",
"106 521 CURVE SMOOTH",
"85 422 OFFCURVE",
"144 358 OFFCURVE",
"247 313 CURVE SMOOTH",
"353 267 OFFCURVE",
"392 246 OFFCURVE",
"378 182 CURVE SMOOTH",
"366 125 OFFCURVE",
"316 88 OFFCURVE",
"221 88 CURVE SMOOTH",
"151 88 OFFCURVE",
"80 103 OFFCURVE",
"18 136 CURVE",
"-5 27 LINE",
"42 1 OFFCURVE",
"126 -15 OFFCURVE",
"208 -15 CURVE SMOOTH"
);
},
{
closed = 1;
nodes = (
"415 752 OFFCURVE",
"452 781 OFFCURVE",
"459 818 CURVE SMOOTH",
"467 855 OFFCURVE",
"444 885 OFFCURVE",
"408 885 CURVE SMOOTH",
"372 885 OFFCURVE",
"334 855 OFFCURVE",
"326 818 CURVE SMOOTH",
"319 781 OFFCURVE",
"343 752 OFFCURVE",
"379 752 CURVE SMOOTH"
);
}
);
width = 567;
}
);
leftKerningGroup = S;
note = Sdotaccent;
rightKerningGroup = S;
unicode = 1E60;
},
{
glyphname = Sdotbelow;
lastChange = "2015-11-30 01:00:50 +0000";
layers = (
{
layerId = "A85C0A33-2487-4E47-AED8-78B93E482A34";
name = "Regular Italic";
paths = (
{
closed = 1;
nodes = (
"394 -15 OFFCURVE",
"489 60 OFFCURVE",
"515 181 CURVE SMOOTH",
"538 291 OFFCURVE",
"477 342 OFFCURVE",
"368 392 CURVE SMOOTH",
"267 438 OFFCURVE",
"227 456 OFFCURVE",
"241 521 CURVE SMOOTH",
"254 579 OFFCURVE",
"309 611 OFFCURVE",
"394 611 CURVE SMOOTH",
"455 611 OFFCURVE",
"509 597 OFFCURVE",
"561 569 CURVE",
"584 675 LINE",
"531 702 OFFCURVE",
"474 714 OFFCURVE",
"394 714 CURVE SMOOTH",
"246 714 OFFCURVE",
"131 636 OFFCURVE",
"106 521 CURVE SMOOTH",
"85 422 OFFCURVE",
"144 358 OFFCURVE",
"247 313 CURVE SMOOTH",
"353 267 OFFCURVE",
"392 246 OFFCURVE",
"378 182 CURVE SMOOTH",
"366 125 OFFCURVE",
"316 88 OFFCURVE",
"221 88 CURVE SMOOTH",
"151 88 OFFCURVE",
"80 103 OFFCURVE",
"18 136 CURVE",
"-5 27 LINE",
"42 1 OFFCURVE",
"126 -15 OFFCURVE",
"208 -15 CURVE SMOOTH"
);
},
{
closed = 1;
nodes = (
"217 -179 OFFCURVE",
"253 -150 OFFCURVE",
"260 -113 CURVE SMOOTH",
"268 -76 OFFCURVE",
"245 -46 OFFCURVE",
"210 -46 CURVE SMOOTH",
"174 -46 OFFCURVE",
"136 -76 OFFCURVE",
"128 -113 CURVE SMOOTH",
"121 -150 OFFCURVE",
"145 -179 OFFCURVE",
"181 -179 CURVE SMOOTH"
);
}
);
width = 567;
}
);
leftKerningGroup = S;
note = Sdotbelow;
rightKerningGroup = S;
unicode = 1E62;
},
{
glyphname = Germandbls;
lastChange = "2015-11-30 01:00:51 +0000";
layers = (
{
layerId = "A85C0A33-2487-4E47-AED8-78B93E482A34";
name = "Regular Italic";
paths = (
{
closed = 1;
nodes = (
"466 -15 OFFCURVE",
"563 73 OFFCURVE",
"590 199 CURVE SMOOTH",
"613 307 OFFCURVE",
"583 373 OFFCURVE",
"476 392 CURVE",
"606 502 LINE",
"625 617 OFFCURVE",
"561 714 OFFCURVE",
"403 714 CURVE SMOOTH",
"235 714 OFFCURVE",
"135 616 OFFCURVE",
"102 459 CURVE SMOOTH",
"5 0 LINE",
"131 0 LINE",
"229 463 LINE SMOOTH",
"248 553 OFFCURVE",
"306 598 OFFCURVE",
"379 598 CURVE SMOOTH",
"441 598 OFFCURVE",
"474 564 OFFCURVE",
"476 524 CURVE",
"313 386 LINE",
"297 315 LINE",
"340 315 LINE SMOOTH",
"419 315 OFFCURVE",
"481 289 OFFCURVE",
"463 205 CURVE SMOOTH",
"448 135 OFFCURVE",
"394 100 OFFCURVE",
"312 100 CURVE SMOOTH",
"273 100 OFFCURVE",
"241 106 OFFCURVE",
"215 121 CURVE",
"190 4 LINE",
"220 -10 OFFCURVE",
"268 -15 OFFCURVE",
"316 -15 CURVE SMOOTH"
);
}
);
width = 638;
}
);
note = uni1E9E;
unicode = 1E9E;
},
{
glyphname = Schwa;
lastChange = "2015-11-30 01:00:49 +0000";
layers = (
{
layerId = "A85C0A33-2487-4E47-AED8-78B93E482A34";
name = "Regular Italic";
paths = (
{
closed = 1;
nodes = (
"618 -15 OFFCURVE",
"764 130 OFFCURVE",
"810 351 CURVE SMOOTH",
"856 574 OFFCURVE",
"732 714 OFFCURVE",
"477 714 CURVE SMOOTH",
"374 714 OFFCURVE",
"264 693 OFFCURVE",
"196 668 CURVE",
"175 565 LINE",
"246 591 OFFCURVE",
"349 609 OFFCURVE",
"437 609 CURVE SMOOTH",
"636 609 OFFCURVE",
"700 527 OFFCURVE",
"684 395 CURVE",
"73 395 LINE",
"61 335 LINE SMOOTH",
"19 138 OFFCURVE",
"109 -15 OFFCURVE",
"357 -15 CURVE SMOOTH"
);
},
{
closed = 1;
nodes = (
"202 87 OFFCURVE",
"155 177 OFFCURVE",
"175 300 CURVE",
"665 300 LINE",
"632 177 OFFCURVE",
"538 87 OFFCURVE",
"376 87 CURVE SMOOTH"
);
}
);
width = 826;
}
);
note = uni018F;
unicode = 018F;
},
{
glyphname = T;
lastChange = "2015-11-30 01:00:52 +0000";
layers = (
{
layerId = "A85C0A33-2487-4E47-AED8-78B93E482A34";
name = "Regular Italic";
paths = (
{
closed = 1;
nodes = (
"308 0 LINE",
"434 594 LINE",
"645 594 LINE",
"667 699 LINE",
"118 699 LINE",
"96 594 LINE",
"307 594 LINE",
"181 0 LINE"
);
}
);
width = 589;
}
);
leftKerningGroup = T;
note = T;
rightKerningGroup = T;
unicode = 0054;
},
{
glyphname = Tbar;
lastChange = "2015-11-30 01:00:52 +0000";
layers = (
{
layerId = "A85C0A33-2487-4E47-AED8-78B93E482A34";
name = "Regular Italic";
paths = (
{
closed = 1;
nodes = (
"311 0 LINE",
"370 279 LINE",
"489 279 LINE",
"512 386 LINE",
"392 386 LINE",
"435 587 LINE",
"643 587 LINE",
"667 699 LINE",
"118 699 LINE",
"94 587 LINE",
"302 587 LINE",
"259 386 LINE",
"142 386 LINE",
"119 279 LINE",
"237 279 LINE",
"178 0 LINE"
);
}
);
width = 589;
}
);
leftKerningGroup = T;
note = Tbar;
rightKerningGroup = T;
unicode = 0166;
},
{
glyphname = Tcaron;
lastChange = "2015-11-30 01:00:49 +0000";
layers = (
{
layerId = "A85C0A33-2487-4E47-AED8-78B93E482A34";
name = "Regular Italic";
paths = (
{
closed = 1;
nodes = (
"308 0 LINE",
"434 594 LINE",
"645 594 LINE",
"667 699 LINE",
"118 699 LINE",
"96 594 LINE",
"307 594 LINE",
"181 0 LINE"
);
},
{
closed = 1;
nodes = (
"437 742 LINE",
"620 913 LINE",
"488 913 LINE",
"390 813 LINE",
"336 913 LINE",
"216 913 LINE",
"325 742 LINE"
);
}
);
width = 589;
}
);
leftKerningGroup = T;
note = Tcaron;
rightKerningGroup = T;
unicode = 0164;
},
{
glyphname = Tcedilla;
lastChange = "2015-11-30 01:00:49 +0000";
layers = (
{
layerId = "A85C0A33-2487-4E47-AED8-78B93E482A34";
name = "Regular Italic";
paths = (
{
closed = 1;
nodes = (
"262 -248 OFFCURVE",
"326 -213 OFFCURVE",
"340 -150 CURVE SMOOTH",
"351 -97 OFFCURVE",
"327 -59 OFFCURVE",
"270 -52 CURVE",
"302 0 LINE",
"308 0 LINE",
"434 594 LINE",
"645 594 LINE",
"667 699 LINE",
"118 699 LINE",
"96 594 LINE",
"307 594 LINE",
"181 0 LINE",
"189 0 LINE",
"138 -85 LINE",
"211 -85 OFFCURVE",
"233 -108 OFFCURVE",
"226 -138 CURVE SMOOTH",
"220 -166 OFFCURVE",
"196 -179 OFFCURVE",
"158 -179 CURVE SMOOTH",
"138 -179 OFFCURVE",
"116 -174 OFFCURVE",
"103 -167 CURVE",
"87 -236 LINE",
"104 -243 OFFCURVE",
"139 -248 OFFCURVE",
"176 -248 CURVE SMOOTH"
);
}
);
width = 589;
}
);
leftKerningGroup = T;
note = Tcedilla;
rightKerningGroup = T;
unicode = 0162;
},
{
glyphname = Tcommaaccent;
lastChange = "2015-11-30 01:00:50 +0000";
layers = (
{
layerId = "A85C0A33-2487-4E47-AED8-78B93E482A34";
name = "Regular Italic";
paths = (
{
closed = 1;
nodes = (
"308 0 LINE",
"434 594 LINE",
"645 594 LINE",
"667 699 LINE",
"118 699 LINE",
"96 594 LINE",
"307 594 LINE",
"181 0 LINE"
);
},
{
closed = 1;
nodes = (
"153 -259 LINE",
"295 -56 LINE",
"164 -56 LINE",
"39 -259 LINE"
);
}
);
width = 589;
}
);
leftKerningGroup = T;
note = Tcommaaccent;
rightKerningGroup = T;
unicode = 021A;
},
{
glyphname = Tdotbelow;
lastChange = "2015-11-30 01:00:51 +0000";
layers = (
{
layerId = "A85C0A33-2487-4E47-AED8-78B93E482A34";
name = "Regular Italic";
paths = (
{
closed = 1;
nodes = (
"308 0 LINE",
"434 594 LINE",
"645 594 LINE",
"667 699 LINE",
"118 699 LINE",
"96 594 LINE",
"307 594 LINE",
"181 0 LINE"
);
},
{
closed = 1;
nodes = (
"243 -179 OFFCURVE",
"279 -150 OFFCURVE",
"286 -113 CURVE SMOOTH",
"294 -76 OFFCURVE",
"271 -46 OFFCURVE",
"236 -46 CURVE SMOOTH",
"200 -46 OFFCURVE",
"162 -76 OFFCURVE",
"154 -113 CURVE SMOOTH",
"147 -150 OFFCURVE",
"171 -179 OFFCURVE",
"207 -179 CURVE SMOOTH"
);
}
);
width = 589;
}
);
leftKerningGroup = T;
note = Tdotbelow;
rightKerningGroup = T;
unicode = 1E6C;
},
{
glyphname = Tlinebelow;
lastChange = "2015-11-30 01:00:52 +0000";
layers = (
{
layerId = "A85C0A33-2487-4E47-AED8-78B93E482A34";
name = "Regular Italic";
paths = (
{
closed = 1;
nodes = (
"308 0 LINE",
"434 594 LINE",
"645 594 LINE",
"667 699 LINE",
"118 699 LINE",
"96 594 LINE",
"307 594 LINE",
"181 0 LINE"
);
},
{
closed = 1;
nodes = (
"373 -151 LINE",
"391 -68 LINE",
"69 -68 LINE",
"51 -151 LINE"
);
}
);
width = 589;
}
);
leftKerningGroup = T;
note = Tlinebelow;
rightKerningGroup = T;
unicode = 1E6E;
},
{
glyphname = U;
lastChange = "2015-11-30 01:00:52 +0000";
layers = (
{
layerId = "A85C0A33-2487-4E47-AED8-78B93E482A34";
name = "Regular Italic";
paths = (
{
closed = 1;
nodes = (
"520 -15 OFFCURVE",
"623 102 OFFCURVE",
"659 272 CURVE SMOOTH",
"750 699 LINE",
"623 699 LINE",
"532 270 LINE SMOOTH",
"508 157 OFFCURVE",
"426 100 OFFCURVE",
"325 100 CURVE SMOOTH",
"207 100 OFFCURVE",
"164 151 OFFCURVE",
"189 270 CURVE SMOOTH",
"280 699 LINE",
"153 699 LINE",
"62 272 LINE SMOOTH",
"27 110 OFFCURVE",
"117 -15 OFFCURVE",
"300 -15 CURVE SMOOTH"
);
}
);
width = 707;
}
);
leftKerningGroup = U;
note = U;
rightKerningGroup = U;
unicode = 0055;
},
{
glyphname = Uacute;
lastChange = "2015-11-30 01:00:52 +0000";
layers = (
{
layerId = "A85C0A33-2487-4E47-AED8-78B93E482A34";
name = "Regular Italic";
paths = (
{
closed = 1;
nodes = (
"520 -15 OFFCURVE",
"623 102 OFFCURVE",
"659 272 CURVE SMOOTH",
"750 699 LINE",
"623 699 LINE",
"532 270 LINE SMOOTH",
"508 157 OFFCURVE",
"426 100 OFFCURVE",
"325 100 CURVE SMOOTH",
"207 100 OFFCURVE",
"164 151 OFFCURVE",
"189 270 CURVE SMOOTH",
"280 699 LINE",
"153 699 LINE",
"62 272 LINE SMOOTH",
"27 110 OFFCURVE",
"117 -15 OFFCURVE",
"300 -15 CURVE SMOOTH"
);
},
{
closed = 1;
nodes = (
"493 742 LINE",
"616 916 LINE",
"483 916 LINE",
"377 742 LINE"
);
}
);
width = 707;
}
);
leftKerningGroup = U;
note = Uacute;
rightKerningGroup = U;
unicode = 00DA;
},
{
glyphname = Ubreve;
lastChange = "2015-11-30 01:00:50 +0000";
layers = (
{
layerId = "A85C0A33-2487-4E47-AED8-78B93E482A34";
name = "Regular Italic";
paths = (
{
closed = 1;
nodes = (
"520 -15 OFFCURVE",
"623 102 OFFCURVE",
"659 272 CURVE SMOOTH",
"750 699 LINE",
"623 699 LINE",
"532 270 LINE SMOOTH",
"508 157 OFFCURVE",
"426 100 OFFCURVE",
"325 100 CURVE SMOOTH",
"207 100 OFFCURVE",
"164 151 OFFCURVE",
"189 270 CURVE SMOOTH",
"280 699 LINE",
"153 699 LINE",
"62 272 LINE SMOOTH",
"27 110 OFFCURVE",
"117 -15 OFFCURVE",
"300 -15 CURVE SMOOTH"
);
},
{
closed = 1;
nodes = (
"541 742 OFFCURVE",
"614 803 OFFCURVE",
"633 893 CURVE",
"533 893 LINE",
"524 849 OFFCURVE",
"495 826 OFFCURVE",
"453 826 CURVE SMOOTH",
"411 826 OFFCURVE",
"392 849 OFFCURVE",
"401 893 CURVE",
"312 893 LINE",
"293 803 OFFCURVE",
"339 742 OFFCURVE",
"440 742 CURVE SMOOTH"
);
}
);
width = 707;
}
);
leftKerningGroup = U;
note = Ubreve;
rightKerningGroup = U;
unicode = 016C;
},
{
glyphname = Ucaron;
lastChange = "2015-11-30 01:00:51 +0000";
layers = (
{
layerId = "A85C0A33-2487-4E47-AED8-78B93E482A34";
name = "Regular Italic";
paths = (
{
closed = 1;
nodes = (
"520 -15 OFFCURVE",
"623 102 OFFCURVE",
"659 272 CURVE SMOOTH",
"750 699 LINE",
"623 699 LINE",
"532 270 LINE SMOOTH",
"508 157 OFFCURVE",
"426 100 OFFCURVE",
"325 100 CURVE SMOOTH",
"207 100 OFFCURVE",
"164 151 OFFCURVE",
"189 270 CURVE SMOOTH",
"280 699 LINE",
"153 699 LINE",
"62 272 LINE SMOOTH",
"27 110 OFFCURVE",
"117 -15 OFFCURVE",
"300 -15 CURVE SMOOTH"
);
},
{
closed = 1;
nodes = (
"496 742 LINE",
"679 913 LINE",
"547 913 LINE",
"449 813 LINE",
"395 913 LINE",
"275 913 LINE",
"384 742 LINE"
);
}
);
width = 707;
}
);
leftKerningGroup = U;
note = Ucaron;
rightKerningGroup = U;
unicode = 01D3;
},
{
glyphname = Ucircumflex;
lastChange = "2015-11-30 01:00:51 +0000";
layers = (
{
layerId = "A85C0A33-2487-4E47-AED8-78B93E482A34";
name = "Regular Italic";
paths = (
{
closed = 1;
nodes = (
"520 -15 OFFCURVE",
"623 102 OFFCURVE",
"659 272 CURVE SMOOTH",
"750 699 LINE",
"623 699 LINE",
"532 270 LINE SMOOTH",
"508 157 OFFCURVE",
"426 100 OFFCURVE",
"325 100 CURVE SMOOTH",
"207 100 OFFCURVE",
"164 151 OFFCURVE",
"189 270 CURVE SMOOTH",
"280 699 LINE",
"153 699 LINE",
"62 272 LINE SMOOTH",
"27 110 OFFCURVE",
"117 -15 OFFCURVE",
"300 -15 CURVE SMOOTH"
);
},
{
closed = 1;
nodes = (
"369 742 LINE",
"466 841 LINE",
"521 742 LINE",
"642 742 LINE",
"533 913 LINE",
"421 913 LINE",
"238 742 LINE"
);
}
);
width = 707;
}
);
leftKerningGroup = U;
note = Ucircumflex;
rightKerningGroup = U;
unicode = 00DB;
},
{
glyphname = Udieresis;
lastChange = "2015-11-30 01:00:51 +0000";
layers = (
{
layerId = "A85C0A33-2487-4E47-AED8-78B93E482A34";
name = "Regular Italic";
paths = (
{
closed = 1;
nodes = (
"520 -15 OFFCURVE",
"623 102 OFFCURVE",
"659 272 CURVE SMOOTH",
"750 699 LINE",
"623 699 LINE",
"532 270 LINE SMOOTH",
"508 157 OFFCURVE",
"426 100 OFFCURVE",
"325 100 CURVE SMOOTH",
"207 100 OFFCURVE",
"164 151 OFFCURVE",
"189 270 CURVE SMOOTH",
"280 699 LINE",
"153 699 LINE",
"62 272 LINE SMOOTH",
"27 110 OFFCURVE",
"117 -15 OFFCURVE",
"300 -15 CURVE SMOOTH"
);
},
{
closed = 1;
nodes = (
"359 752 OFFCURVE",
"396 781 OFFCURVE",
"403 818 CURVE SMOOTH",
"411 855 OFFCURVE",
"388 885 OFFCURVE",
"352 885 CURVE SMOOTH",
"317 885 OFFCURVE",
"279 855 OFFCURVE",
"271 818 CURVE SMOOTH",
"264 781 OFFCURVE",
"288 752 OFFCURVE",
"323 752 CURVE SMOOTH"
);
},
{
closed = 1;
nodes = (
"596 752 OFFCURVE",
"633 781 OFFCURVE",
"640 818 CURVE SMOOTH",
"648 855 OFFCURVE",
"625 885 OFFCURVE",
"589 885 CURVE SMOOTH",
"553 885 OFFCURVE",
"515 855 OFFCURVE",
"507 818 CURVE SMOOTH",
"500 781 OFFCURVE",
"524 752 OFFCURVE",
"560 752 CURVE SMOOTH"
);
}
);
width = 707;
}
);
leftKerningGroup = U;
note = Udieresis;
rightKerningGroup = U;
unicode = 00DC;
},
{
glyphname = Udieresisacute;
lastChange = "2015-11-30 01:00:52 +0000";
layers = (
{
layerId = "A85C0A33-2487-4E47-AED8-78B93E482A34";
name = "Regular Italic";
paths = (
{
closed = 1;
nodes = (
"520 -15 OFFCURVE",
"623 102 OFFCURVE",
"659 272 CURVE SMOOTH",
"750 699 LINE",
"623 699 LINE",
"532 270 LINE SMOOTH",
"508 157 OFFCURVE",
"426 100 OFFCURVE",
"325 100 CURVE SMOOTH",
"207 100 OFFCURVE",
"164 151 OFFCURVE",
"189 270 CURVE SMOOTH",
"280 699 LINE",
"153 699 LINE",
"62 272 LINE SMOOTH",
"27 110 OFFCURVE",
"117 -15 OFFCURVE",
"300 -15 CURVE SMOOTH"
);
},
{
closed = 1;
nodes = (
"372 752 OFFCURVE",
"409 781 OFFCURVE",
"416 818 CURVE SMOOTH",
"424 855 OFFCURVE",
"401 885 OFFCURVE",
"365 885 CURVE SMOOTH",
"329 885 OFFCURVE",
"291 855 OFFCURVE",
"283 818 CURVE SMOOTH",
"276 781 OFFCURVE",
"300 752 OFFCURVE",
"336 752 CURVE SMOOTH"
);
},
{
closed = 1;
nodes = (
"628 752 OFFCURVE",
"665 781 OFFCURVE",
"672 818 CURVE SMOOTH",
"680 855 OFFCURVE",
"657 885 OFFCURVE",
"621 885 CURVE SMOOTH",
"585 885 OFFCURVE",
"547 855 OFFCURVE",
"539 818 CURVE SMOOTH",
"532 781 OFFCURVE",
"556 752 OFFCURVE",
"592 752 CURVE SMOOTH"
);
},
{
closed = 1;
nodes = (
"536 864 LINE",
"640 992 LINE",
"523 992 LINE",
"436 864 LINE"
);
}
);
width = 707;
}
);
leftKerningGroup = U;
note = Udieresisacute;
rightKerningGroup = U;
unicode = 01D7;
},
{
glyphname = Udieresiscaron;
lastChange = "2015-11-30 01:00:49 +0000";
layers = (
{
layerId = "A85C0A33-2487-4E47-AED8-78B93E482A34";
name = "Regular Italic";
paths = (
{
closed = 1;
nodes = (
"520 -15 OFFCURVE",
"623 102 OFFCURVE",
"659 272 CURVE SMOOTH",
"750 699 LINE",
"623 699 LINE",
"532 270 LINE SMOOTH",
"508 157 OFFCURVE",
"426 100 OFFCURVE",
"325 100 CURVE SMOOTH",
"207 100 OFFCURVE",
"164 151 OFFCURVE",
"189 270 CURVE SMOOTH",
"280 699 LINE",
"153 699 LINE",
"62 272 LINE SMOOTH",
"27 110 OFFCURVE",
"117 -15 OFFCURVE",
"300 -15 CURVE SMOOTH"
);
},
{
closed = 1;
nodes = (
"369 752 OFFCURVE",
"407 781 OFFCURVE",
"414 818 CURVE SMOOTH",
"422 855 OFFCURVE",
"398 885 OFFCURVE",
"362 885 CURVE SMOOTH",
"326 885 OFFCURVE",
"289 855 OFFCURVE",
"281 818 CURVE SMOOTH",
"274 781 OFFCURVE",
"297 752 OFFCURVE",
"333 752 CURVE SMOOTH"
);
},
{
closed = 1;
nodes = (
"625 752 OFFCURVE",
"663 781 OFFCURVE",
"670 818 CURVE SMOOTH",
"678 855 OFFCURVE",
"654 885 OFFCURVE",
"618 885 CURVE SMOOTH",
"582 885 OFFCURVE",
"545 855 OFFCURVE",
"537 818 CURVE SMOOTH",
"530 781 OFFCURVE",
"553 752 OFFCURVE",
"589 752 CURVE SMOOTH"
);
},
{
closed = 1;
nodes = (
"532 864 LINE",
"685 1000 LINE",
"578 1000 LINE",
"499 925 LINE",
"451 1000 LINE",
"345 1000 LINE",
"439 864 LINE"
);
}
);
width = 707;
}
);
leftKerningGroup = U;
note = Udieresiscaron;
rightKerningGroup = U;
unicode = 01D9;
},
{
glyphname = Udieresisgrave;
lastChange = "2015-11-30 01:00:52 +0000";
layers = (
{
layerId = "A85C0A33-2487-4E47-AED8-78B93E482A34";
name = "Regular Italic";
paths = (
{
closed = 1;
nodes = (
"520 -15 OFFCURVE",
"623 102 OFFCURVE",
"659 272 CURVE SMOOTH",
"750 699 LINE",
"623 699 LINE",
"532 270 LINE SMOOTH",
"508 157 OFFCURVE",
"426 100 OFFCURVE",
"325 100 CURVE SMOOTH",
"207 100 OFFCURVE",
"164 151 OFFCURVE",
"189 270 CURVE SMOOTH",
"280 699 LINE",
"153 699 LINE",
"62 272 LINE SMOOTH",
"27 110 OFFCURVE",
"117 -15 OFFCURVE",
"300 -15 CURVE SMOOTH"
);
},
{
closed = 1;
nodes = (
"372 752 OFFCURVE",
"410 781 OFFCURVE",
"417 818 CURVE SMOOTH",
"425 855 OFFCURVE",
"401 885 OFFCURVE",
"365 885 CURVE SMOOTH",
"329 885 OFFCURVE",
"292 855 OFFCURVE",
"284 818 CURVE SMOOTH",
"277 781 OFFCURVE",
"300 752 OFFCURVE",
"336 752 CURVE SMOOTH"
);
},
{
closed = 1;
nodes = (
"540 864 LINE",
"506 992 LINE",
"390 992 LINE",
"440 864 LINE"
);
},
{
closed = 1;
nodes = (
"628 752 OFFCURVE",
"666 781 OFFCURVE",
"673 818 CURVE SMOOTH",
"681 855 OFFCURVE",
"657 885 OFFCURVE",
"621 885 CURVE SMOOTH",
"585 885 OFFCURVE",
"548 855 OFFCURVE",
"540 818 CURVE SMOOTH",
"533 781 OFFCURVE",
"556 752 OFFCURVE",
"592 752 CURVE SMOOTH"
);
}
);
width = 707;
}
);
leftKerningGroup = U;
note = Udieresisgrave;
rightKerningGroup = U;
unicode = 01DB;
},
{
glyphname = Udieresismacron;
lastChange = "2015-11-30 01:00:52 +0000";
layers = (
{
layerId = "A85C0A33-2487-4E47-AED8-78B93E482A34";
name = "Regular Italic";
paths = (
{
closed = 1;
nodes = (
"520 -15 OFFCURVE",
"623 102 OFFCURVE",
"659 272 CURVE SMOOTH",
"750 699 LINE",
"623 699 LINE",
"532 270 LINE SMOOTH",
"508 157 OFFCURVE",
"426 100 OFFCURVE",
"325 100 CURVE SMOOTH",
"207 100 OFFCURVE",
"164 151 OFFCURVE",
"189 270 CURVE SMOOTH",
"280 699 LINE",
"153 699 LINE",
"62 272 LINE SMOOTH",
"27 110 OFFCURVE",
"117 -15 OFFCURVE",
"300 -15 CURVE SMOOTH"
);
},
{
closed = 1;
nodes = (
"359 752 OFFCURVE",
"396 781 OFFCURVE",
"403 818 CURVE SMOOTH",
"411 855 OFFCURVE",
"388 885 OFFCURVE",
"352 885 CURVE SMOOTH",
"317 885 OFFCURVE",
"279 855 OFFCURVE",
"271 818 CURVE SMOOTH",
"264 781 OFFCURVE",
"288 752 OFFCURVE",
"323 752 CURVE SMOOTH"
);
},
{
closed = 1;
nodes = (
"596 752 OFFCURVE",
"633 781 OFFCURVE",
"640 818 CURVE SMOOTH",
"648 855 OFFCURVE",
"625 885 OFFCURVE",
"589 885 CURVE SMOOTH",
"553 885 OFFCURVE",
"515 855 OFFCURVE",
"507 818 CURVE SMOOTH",
"500 781 OFFCURVE",
"524 752 OFFCURVE",
"560 752 CURVE SMOOTH"
);
},
{
closed = 1;
nodes = (
"642 929 LINE",
"660 1013 LINE",
"338 1013 LINE",
"320 929 LINE"
);
}
);
width = 707;
}
);
leftKerningGroup = U;
note = Udieresismacron;
rightKerningGroup = U;
unicode = 01D5;
},
{
glyphname = Udotbelow;
lastChange = "2015-11-30 01:00:51 +0000";
layers = (
{
layerId = "A85C0A33-2487-4E47-AED8-78B93E482A34";
name = "Regular Italic";
paths = (
{
closed = 1;
nodes = (
"520 -15 OFFCURVE",
"623 102 OFFCURVE",
"659 272 CURVE SMOOTH",
"750 699 LINE",
"623 699 LINE",
"532 270 LINE SMOOTH",
"508 157 OFFCURVE",
"426 100 OFFCURVE",
"325 100 CURVE SMOOTH",
"207 100 OFFCURVE",
"164 151 OFFCURVE",
"189 270 CURVE SMOOTH",
"280 699 LINE",
"153 699 LINE",
"62 272 LINE SMOOTH",
"27 110 OFFCURVE",
"117 -15 OFFCURVE",
"300 -15 CURVE SMOOTH"
);
},
{
closed = 1;
nodes = (
"302 -179 OFFCURVE",
"338 -150 OFFCURVE",
"345 -113 CURVE SMOOTH",
"353 -76 OFFCURVE",
"330 -46 OFFCURVE",
"295 -46 CURVE SMOOTH",
"259 -46 OFFCURVE",
"221 -76 OFFCURVE",
"213 -113 CURVE SMOOTH",
"206 -150 OFFCURVE",
"230 -179 OFFCURVE",
"266 -179 CURVE SMOOTH"
);
}
);
width = 707;
}
);
leftKerningGroup = U;
note = Udotbelow;
rightKerningGroup = U;
unicode = 1EE4;
},
{
glyphname = Ugrave;
lastChange = "2015-11-30 01:00:50 +0000";
layers = (
{
layerId = "A85C0A33-2487-4E47-AED8-78B93E482A34";
name = "Regular Italic";
paths = (
{
closed = 1;
nodes = (
"520 -15 OFFCURVE",
"623 102 OFFCURVE",
"659 272 CURVE SMOOTH",
"750 699 LINE",
"623 699 LINE",
"532 270 LINE SMOOTH",
"508 157 OFFCURVE",
"426 100 OFFCURVE",
"325 100 CURVE SMOOTH",
"207 100 OFFCURVE",
"164 151 OFFCURVE",
"189 270 CURVE SMOOTH",
"280 699 LINE",
"153 699 LINE",
"62 272 LINE SMOOTH",
"27 110 OFFCURVE",
"117 -15 OFFCURVE",
"300 -15 CURVE SMOOTH"
);
},
{
closed = 1;
nodes = (
"504 742 LINE",
"472 916 LINE",
"339 916 LINE",
"388 742 LINE"
);
}
);
width = 707;
}
);
leftKerningGroup = U;
note = Ugrave;
rightKerningGroup = U;
unicode = 00D9;
},
{
glyphname = Uhookabove;
lastChange = "2015-11-30 01:00:50 +0000";
layers = (
{
layerId = "A85C0A33-2487-4E47-AED8-78B93E482A34";
name = "Regular Italic";
paths = (
{
closed = 1;
nodes = (
"520 -15 OFFCURVE",
"623 102 OFFCURVE",
"659 272 CURVE SMOOTH",
"750 699 LINE",
"623 699 LINE",
"532 270 LINE SMOOTH",
"508 157 OFFCURVE",
"426 100 OFFCURVE",
"325 100 CURVE SMOOTH",
"207 100 OFFCURVE",
"164 151 OFFCURVE",
"189 270 CURVE SMOOTH",
"280 699 LINE",
"153 699 LINE",
"62 272 LINE SMOOTH",
"27 110 OFFCURVE",
"117 -15 OFFCURVE",
"300 -15 CURVE SMOOTH"
);
},
{
closed = 1;
nodes = (
"486 742 LINE",
"493 776 LINE",
"554 785 OFFCURVE",
"594 822 OFFCURVE",
"604 870 CURVE SMOOTH",
"617 929 OFFCURVE",
"579 970 OFFCURVE",
"485 970 CURVE SMOOTH",
"449 970 OFFCURVE",
"409 963 OFFCURVE",
"384 956 CURVE",
"370 890 LINE",
"385 896 OFFCURVE",
"423 902 OFFCURVE",
"439 902 CURVE SMOOTH",
"484 902 OFFCURVE",
"498 891 OFFCURVE",
"493 865 CURVE SMOOTH",
"485 827 OFFCURVE",
"448 816 OFFCURVE",
"392 816 CURVE",
"376 742 LINE"
);
}
);
width = 707;
}
);
leftKerningGroup = U;
note = Uhookabove;
rightKerningGroup = U;
unicode = 1EE6;
},
{
glyphname = Uhorn;
lastChange = "2015-11-30 01:00:49 +0000";
layers = (
{
layerId = "A85C0A33-2487-4E47-AED8-78B93E482A34";
name = "Regular Italic";
paths = (
{
closed = 1;
nodes = (
"520 -15 OFFCURVE",
"623 102 OFFCURVE",
"659 272 CURVE SMOOTH",
"713 526 LINE",
"857 527 OFFCURVE",
"930 606 OFFCURVE",
"951 705 CURVE SMOOTH",
"960 747 LINE",
"843 747 LINE",
"836 712 LINE SMOOTH",
"822 648 OFFCURVE",
"797 625 OFFCURVE",
"734 625 CURVE",
"750 699 LINE",
"623 699 LINE",
"532 270 LINE SMOOTH",
"508 157 OFFCURVE",
"426 100 OFFCURVE",
"325 100 CURVE SMOOTH",
"207 100 OFFCURVE",
"164 151 OFFCURVE",
"189 270 CURVE SMOOTH",
"280 699 LINE",
"153 699 LINE",
"62 272 LINE SMOOTH",
"27 110 OFFCURVE",
"117 -15 OFFCURVE",
"300 -15 CURVE SMOOTH"
);
}
);
width = 862;
}
);
leftKerningGroup = U;
note = Uhorn;
rightKerningGroup = U;
unicode = 01AF;
},
{
glyphname = Uhornacute;
lastChange = "2015-11-30 01:00:51 +0000";
layers = (
{
layerId = "A85C0A33-2487-4E47-AED8-78B93E482A34";
name = "Regular Italic";
paths = (
{
closed = 1;
nodes = (
"520 -15 OFFCURVE",
"623 102 OFFCURVE",
"659 272 CURVE SMOOTH",
"713 526 LINE",
"857 527 OFFCURVE",
"930 606 OFFCURVE",
"951 705 CURVE SMOOTH",
"960 747 LINE",
"843 747 LINE",
"836 712 LINE SMOOTH",
"822 648 OFFCURVE",
"797 625 OFFCURVE",
"734 625 CURVE",
"750 699 LINE",
"623 699 LINE",
"532 270 LINE SMOOTH",
"508 157 OFFCURVE",
"426 100 OFFCURVE",
"325 100 CURVE SMOOTH",
"207 100 OFFCURVE",
"164 151 OFFCURVE",
"189 270 CURVE SMOOTH",
"280 699 LINE",
"153 699 LINE",
"62 272 LINE SMOOTH",
"27 110 OFFCURVE",
"117 -15 OFFCURVE",
"300 -15 CURVE SMOOTH"
);
},
{
closed = 1;
nodes = (
"490 742 LINE",
"613 916 LINE",
"480 916 LINE",
"374 742 LINE"
);
}
);
width = 862;
}
);
leftKerningGroup = U;
note = Uhornacute;
rightKerningGroup = U;
unicode = 1EE8;
},
{
glyphname = Uhorndotbelow;
lastChange = "2015-11-30 01:00:51 +0000";
layers = (
{
layerId = "A85C0A33-2487-4E47-AED8-78B93E482A34";
name = "Regular Italic";
paths = (
{
closed = 1;
nodes = (
"520 -15 OFFCURVE",
"623 102 OFFCURVE",
"659 272 CURVE SMOOTH",
"713 526 LINE",
"857 527 OFFCURVE",
"930 606 OFFCURVE",
"951 705 CURVE SMOOTH",
"960 747 LINE",
"843 747 LINE",
"836 712 LINE SMOOTH",
"822 648 OFFCURVE",
"797 625 OFFCURVE",
"734 625 CURVE",
"750 699 LINE",
"623 699 LINE",
"532 270 LINE SMOOTH",
"508 157 OFFCURVE",
"426 100 OFFCURVE",
"325 100 CURVE SMOOTH",
"207 100 OFFCURVE",
"164 151 OFFCURVE",
"189 270 CURVE SMOOTH",
"280 699 LINE",
"153 699 LINE",
"62 272 LINE SMOOTH",
"27 110 OFFCURVE",
"117 -15 OFFCURVE",
"300 -15 CURVE SMOOTH"
);
},
{
closed = 1;
nodes = (
"299 -179 OFFCURVE",
"335 -150 OFFCURVE",
"342 -113 CURVE SMOOTH",
"350 -76 OFFCURVE",
"327 -46 OFFCURVE",
"292 -46 CURVE SMOOTH",
"256 -46 OFFCURVE",
"218 -76 OFFCURVE",
"210 -113 CURVE SMOOTH",
"203 -150 OFFCURVE",
"227 -179 OFFCURVE",
"263 -179 CURVE SMOOTH"
);
}
);
width = 862;
}
);
leftKerningGroup = U;
note = Uhorndotbelow;
rightKerningGroup = U;
unicode = 1EF0;
},
{
glyphname = Uhorngrave;
lastChange = "2015-11-30 01:00:51 +0000";
layers = (
{
layerId = "A85C0A33-2487-4E47-AED8-78B93E482A34";
name = "Regular Italic";
paths = (
{
closed = 1;
nodes = (
"520 -15 OFFCURVE",
"623 102 OFFCURVE",
"659 272 CURVE SMOOTH",
"713 526 LINE",
"857 527 OFFCURVE",
"930 606 OFFCURVE",
"951 705 CURVE SMOOTH",
"960 747 LINE",
"843 747 LINE",
"836 712 LINE SMOOTH",
"822 648 OFFCURVE",
"797 625 OFFCURVE",
"734 625 CURVE",
"750 699 LINE",
"623 699 LINE",
"532 270 LINE SMOOTH",
"508 157 OFFCURVE",
"426 100 OFFCURVE",
"325 100 CURVE SMOOTH",
"207 100 OFFCURVE",
"164 151 OFFCURVE",
"189 270 CURVE SMOOTH",
"280 699 LINE",
"153 699 LINE",
"62 272 LINE SMOOTH",
"27 110 OFFCURVE",
"117 -15 OFFCURVE",
"300 -15 CURVE SMOOTH"
);
},
{
closed = 1;
nodes = (
"502 742 LINE",
"470 916 LINE",
"337 916 LINE",
"386 742 LINE"
);
}
);
width = 862;
}
);
leftKerningGroup = U;
note = Uhorngrave;
rightKerningGroup = U;
unicode = 1EEA;
},
{
glyphname = Uhornhookabove;
lastChange = "2015-11-30 01:00:49 +0000";
layers = (
{
layerId = "A85C0A33-2487-4E47-AED8-78B93E482A34";
name = "Regular Italic";
paths = (
{
closed = 1;
nodes = (
"520 -15 OFFCURVE",
"623 102 OFFCURVE",
"659 272 CURVE SMOOTH",
"713 526 LINE",
"857 527 OFFCURVE",
"930 606 OFFCURVE",
"951 705 CURVE SMOOTH",
"960 747 LINE",
"843 747 LINE",
"836 712 LINE SMOOTH",
"822 648 OFFCURVE",
"797 625 OFFCURVE",
"734 625 CURVE",
"750 699 LINE",
"623 699 LINE",
"532 270 LINE SMOOTH",
"508 157 OFFCURVE",
"426 100 OFFCURVE",
"325 100 CURVE SMOOTH",
"207 100 OFFCURVE",
"164 151 OFFCURVE",
"189 270 CURVE SMOOTH",
"280 699 LINE",
"153 699 LINE",
"62 272 LINE SMOOTH",
"27 110 OFFCURVE",
"117 -15 OFFCURVE",
"300 -15 CURVE SMOOTH"
);
},
{
closed = 1;
nodes = (
"492 742 LINE",
"499 776 LINE",
"560 785 OFFCURVE",
"600 822 OFFCURVE",
"610 870 CURVE SMOOTH",
"623 929 OFFCURVE",
"585 970 OFFCURVE",
"491 970 CURVE SMOOTH",
"455 970 OFFCURVE",
"415 963 OFFCURVE",
"390 956 CURVE",
"376 890 LINE",
"391 896 OFFCURVE",
"429 902 OFFCURVE",
"445 902 CURVE SMOOTH",
"490 902 OFFCURVE",
"504 891 OFFCURVE",
"499 865 CURVE SMOOTH",
"491 827 OFFCURVE",
"454 816 OFFCURVE",
"398 816 CURVE",
"382 742 LINE"
);
}
);
width = 862;
}
);
leftKerningGroup = U;
note = Uhornhookabove;
rightKerningGroup = U;
unicode = 1EEC;
},
{
glyphname = Uhorntilde;
lastChange = "2015-11-30 01:00:49 +0000";
layers = (
{
layerId = "A85C0A33-2487-4E47-AED8-78B93E482A34";
name = "Regular Italic";
paths = (
{
closed = 1;
nodes = (
"520 -15 OFFCURVE",
"623 102 OFFCURVE",
"659 272 CURVE SMOOTH",
"713 526 LINE",
"857 527 OFFCURVE",
"930 606 OFFCURVE",
"951 705 CURVE SMOOTH",
"960 747 LINE",
"843 747 LINE",
"836 712 LINE SMOOTH",
"822 648 OFFCURVE",
"797 625 OFFCURVE",
"734 625 CURVE",
"750 699 LINE",
"623 699 LINE",
"532 270 LINE SMOOTH",
"508 157 OFFCURVE",
"426 100 OFFCURVE",
"325 100 CURVE SMOOTH",
"207 100 OFFCURVE",
"164 151 OFFCURVE",
"189 270 CURVE SMOOTH",
"280 699 LINE",
"153 699 LINE",
"62 272 LINE SMOOTH",
"27 110 OFFCURVE",
"117 -15 OFFCURVE",
"300 -15 CURVE SMOOTH"
);
},
{
closed = 1;
nodes = (
"296 781 OFFCURVE",
"331 794 OFFCURVE",
"368 794 CURVE SMOOTH",
"432 794 OFFCURVE",
"474 744 OFFCURVE",
"547 744 CURVE SMOOTH",
"589 744 OFFCURVE",
"626 755 OFFCURVE",
"655 786 CURVE",
"677 889 LINE",
"641 851 OFFCURVE",
"605 838 OFFCURVE",
"567 838 CURVE SMOOTH",
"502 838 OFFCURVE",
"456 888 OFFCURVE",
"388 888 CURVE SMOOTH",
"347 888 OFFCURVE",
"309 876 OFFCURVE",
"279 845 CURVE",
"257 742 LINE"
);
}
);
width = 862;
}
);
leftKerningGroup = U;
note = Uhorntilde;
rightKerningGroup = U;
unicode = 1EEE;
},
{
glyphname = Uhungarumlaut;
lastChange = "2015-11-30 01:00:50 +0000";
layers = (
{
layerId = "A85C0A33-2487-4E47-AED8-78B93E482A34";
name = "Regular Italic";
paths = (
{
closed = 1;
nodes = (
"520 -15 OFFCURVE",
"623 102 OFFCURVE",
"659 272 CURVE SMOOTH",
"750 699 LINE",
"623 699 LINE",
"532 270 LINE SMOOTH",
"508 157 OFFCURVE",
"426 100 OFFCURVE",
"325 100 CURVE SMOOTH",
"207 100 OFFCURVE",
"164 151 OFFCURVE",
"189 270 CURVE SMOOTH",
"280 699 LINE",
"153 699 LINE",
"62 272 LINE SMOOTH",
"27 110 OFFCURVE",
"117 -15 OFFCURVE",
"300 -15 CURVE SMOOTH"
);
},
{
closed = 1;
nodes = (
"378 742 LINE",
"501 916 LINE",
"378 916 LINE",
"273 742 LINE"
);
},
{
closed = 1;
nodes = (
"601 742 LINE",
"724 916 LINE",
"602 916 LINE",
"495 742 LINE"
);
}
);
width = 707;
}
);
leftKerningGroup = U;
note = Uhungarumlaut;
rightKerningGroup = U;
unicode = 0170;
},
{
glyphname = Umacron;
lastChange = "2015-11-30 01:00:49 +0000";
layers = (
{
layerId = "A85C0A33-2487-4E47-AED8-78B93E482A34";
name = "Regular Italic";
paths = (
{
closed = 1;
nodes = (
"520 -15 OFFCURVE",
"623 102 OFFCURVE",
"659 272 CURVE SMOOTH",
"750 699 LINE",
"623 699 LINE",
"532 270 LINE SMOOTH",
"508 157 OFFCURVE",
"426 100 OFFCURVE",
"325 100 CURVE SMOOTH",
"207 100 OFFCURVE",
"164 151 OFFCURVE",
"189 270 CURVE SMOOTH",
"280 699 LINE",
"153 699 LINE",
"62 272 LINE SMOOTH",
"27 110 OFFCURVE",
"117 -15 OFFCURVE",
"300 -15 CURVE SMOOTH"
);
},
{
closed = 1;
nodes = (
"604 752 LINE",
"622 836 LINE",
"300 836 LINE",
"282 752 LINE"
);
}
);
width = 707;
}
);
leftKerningGroup = U;
note = Umacron;
rightKerningGroup = U;
unicode = 016A;
},
{
glyphname = Uogonek;
lastChange = "2015-11-30 01:00:52 +0000";
layers = (
{
layerId = "A85C0A33-2487-4E47-AED8-78B93E482A34";
name = "Regular Italic";
paths = (
{
closed = 1;
nodes = (
"287 -213 OFFCURVE",
"321 -208 OFFCURVE",
"344 -200 CURVE",
"359 -128 LINE",
"344 -135 OFFCURVE",
"326 -139 OFFCURVE",
"309 -139 CURVE SMOOTH",
"285 -139 OFFCURVE",
"272 -125 OFFCURVE",
"277 -99 CURVE SMOOTH",
"284 -66 OFFCURVE",
"309 -39 OFFCURVE",
"354 -12 CURVE",
"537 5 OFFCURVE",
"626 116 OFFCURVE",
"659 272 CURVE SMOOTH",
"750 699 LINE",
"623 699 LINE",
"532 270 LINE SMOOTH",
"508 157 OFFCURVE",
"426 100 OFFCURVE",
"325 100 CURVE SMOOTH",
"207 100 OFFCURVE",
"164 151 OFFCURVE",
"189 270 CURVE SMOOTH",
"280 699 LINE",
"153 699 LINE",
"62 272 LINE SMOOTH",
"31 128 OFFCURVE",
"99 13 OFFCURVE",
"243 -10 CURVE",
"204 -36 OFFCURVE",
"172 -75 OFFCURVE",
"163 -121 CURVE SMOOTH",
"149 -184 OFFCURVE",
"192 -213 OFFCURVE",
"255 -213 CURVE SMOOTH"
);
}
);
width = 707;
}
);
leftKerningGroup = U;
note = Uogonek;
rightKerningGroup = U;
unicode = 0172;
},
{
glyphname = Uring;
lastChange = "2015-11-30 01:00:51 +0000";
layers = (
{
layerId = "A85C0A33-2487-4E47-AED8-78B93E482A34";
name = "Regular Italic";
paths = (
{
closed = 1;
nodes = (
"520 -15 OFFCURVE",
"623 102 OFFCURVE",
"659 272 CURVE SMOOTH",
"750 699 LINE",
"623 699 LINE",
"532 270 LINE SMOOTH",
"508 157 OFFCURVE",
"426 100 OFFCURVE",
"325 100 CURVE SMOOTH",
"207 100 OFFCURVE",
"164 151 OFFCURVE",
"189 270 CURVE SMOOTH",
"280 699 LINE",
"153 699 LINE",
"62 272 LINE SMOOTH",
"27 110 OFFCURVE",
"117 -15 OFFCURVE",
"300 -15 CURVE SMOOTH"
);
},
{
closed = 1;
nodes = (
"515 742 OFFCURVE",
"576 797 OFFCURVE",
"591 866 CURVE SMOOTH",
"606 935 OFFCURVE",
"562 991 OFFCURVE",
"493 991 CURVE SMOOTH",
"420 991 OFFCURVE",
"357 935 OFFCURVE",
"342 866 CURVE SMOOTH",
"327 797 OFFCURVE",
"371 742 OFFCURVE",
"440 742 CURVE SMOOTH"
);
},
{
closed = 1;
nodes = (
"421 815 OFFCURVE",
"409 838 OFFCURVE",
"415 866 CURVE SMOOTH",
"421 894 OFFCURVE",
"449 917 OFFCURVE",
"477 917 CURVE SMOOTH",
"512 917 OFFCURVE",
"523 894 OFFCURVE",
"517 866 CURVE SMOOTH",
"511 838 OFFCURVE",
"483 815 OFFCURVE",
"455 815 CURVE SMOOTH"
);
}
);
width = 707;
}
);
leftKerningGroup = U;
note = Uring;
rightKerningGroup = U;
unicode = 016E;
},
{
glyphname = Utilde;
lastChange = "2015-11-30 01:00:51 +0000";
layers = (
{
layerId = "A85C0A33-2487-4E47-AED8-78B93E482A34";
name = "Regular Italic";
paths = (
{
closed = 1;
nodes = (
"520 -15 OFFCURVE",
"623 102 OFFCURVE",
"659 272 CURVE SMOOTH",
"750 699 LINE",
"623 699 LINE",
"532 270 LINE SMOOTH",
"508 157 OFFCURVE",
"426 100 OFFCURVE",
"325 100 CURVE SMOOTH",
"207 100 OFFCURVE",
"164 151 OFFCURVE",
"189 270 CURVE SMOOTH",
"280 699 LINE",
"153 699 LINE",
"62 272 LINE SMOOTH",
"27 110 OFFCURVE",
"117 -15 OFFCURVE",
"300 -15 CURVE SMOOTH"
);
},
{
closed = 1;
nodes = (
"290 781 OFFCURVE",
"325 794 OFFCURVE",
"362 794 CURVE SMOOTH",
"426 794 OFFCURVE",
"468 744 OFFCURVE",
"541 744 CURVE SMOOTH",
"583 744 OFFCURVE",
"620 755 OFFCURVE",
"649 786 CURVE",
"671 889 LINE",
"635 851 OFFCURVE",
"599 838 OFFCURVE",
"561 838 CURVE SMOOTH",
"496 838 OFFCURVE",
"450 888 OFFCURVE",
"382 888 CURVE SMOOTH",
"341 888 OFFCURVE",
"303 876 OFFCURVE",
"273 845 CURVE",
"251 742 LINE"
);
}
);
width = 707;
}
);
leftKerningGroup = U;
note = Utilde;
rightKerningGroup = U;
unicode = 0168;
},
{
glyphname = V;
lastChange = "2015-11-30 01:00:50 +0000";
layers = (
{
layerId = "A85C0A33-2487-4E47-AED8-78B93E482A34";
name = "Regular Italic";
paths = (
{
closed = 1;
nodes = (
"393 0 LINE",
"820 699 LINE",
"682 699 LINE",
"363 170 LINE",
"269 699 LINE",
"138 699 LINE",
"270 0 LINE"
);
}
);
width = 762;
}
);
note = V;
unicode = 0056;
},
{
glyphname = W;
lastChange = "2015-11-30 01:00:51 +0000";
layers = (
{
layerId = "A85C0A33-2487-4E47-AED8-78B93E482A34";
name = "Regular Italic";
paths = (
{
closed = 1;
nodes = (
"310 0 LINE",
"553 486 LINE",
"590 0 LINE",
"705 0 LINE",
"1052 699 LINE",
"920 699 LINE",
"676 205 LINE",
"644 699 LINE",
"546 699 LINE",
"304 205 LINE",
"270 699 LINE",
"138 699 LINE",
"189 0 LINE"
);
}
);
width = 994;
}
);
leftKerningGroup = W;
note = W;
rightKerningGroup = W;
unicode = 0057;
},
{
glyphname = Wacute;
lastChange = "2015-11-30 01:00:51 +0000";
layers = (
{
layerId = "A85C0A33-2487-4E47-AED8-78B93E482A34";
name = "Regular Italic";
paths = (
{
closed = 1;
nodes = (
"316 0 LINE",
"559 486 LINE",
"596 0 LINE",
"711 0 LINE",
"1058 699 LINE",
"926 699 LINE",
"682 205 LINE",
"650 699 LINE",
"552 699 LINE",
"310 205 LINE",
"276 699 LINE",
"144 699 LINE",
"195 0 LINE"
);
},
{
closed = 1;
nodes = (
"655 742 LINE",
"778 916 LINE",
"645 916 LINE",
"539 742 LINE"
);
}
);
width = 1006;
}
);
leftKerningGroup = W;
note = Wacute;
rightKerningGroup = W;
unicode = 1E82;
},
{
glyphname = Wcircumflex;
lastChange = "2015-11-30 01:00:50 +0000";
layers = (
{
layerId = "A85C0A33-2487-4E47-AED8-78B93E482A34";
name = "Regular Italic";
paths = (
{
closed = 1;
nodes = (
"316 0 LINE",
"559 486 LINE",
"596 0 LINE",
"711 0 LINE",
"1058 699 LINE",
"926 699 LINE",
"682 205 LINE",
"650 699 LINE",
"552 699 LINE",
"310 205 LINE",
"276 699 LINE",
"144 699 LINE",
"195 0 LINE"
);
},
{
closed = 1;
nodes = (
"519 742 LINE",
"616 841 LINE",
"671 742 LINE",
"792 742 LINE",
"683 913 LINE",
"571 913 LINE",
"388 742 LINE"
);
}
);
width = 1006;
}
);
leftKerningGroup = W;
note = Wcircumflex;
rightKerningGroup = W;
unicode = 0174;
},
{
glyphname = Wdieresis;
lastChange = "2015-11-30 01:00:50 +0000";
layers = (
{
layerId = "A85C0A33-2487-4E47-AED8-78B93E482A34";
name = "Regular Italic";
paths = (
{
closed = 1;
nodes = (
"316 0 LINE",
"559 486 LINE",
"596 0 LINE",
"711 0 LINE",
"1058 699 LINE",
"926 699 LINE",
"682 205 LINE",
"650 699 LINE",
"552 699 LINE",
"310 205 LINE",
"276 699 LINE",
"144 699 LINE",
"195 0 LINE"
);
},
{
closed = 1;
nodes = (
"509 752 OFFCURVE",
"546 781 OFFCURVE",
"553 818 CURVE SMOOTH",
"561 855 OFFCURVE",
"538 885 OFFCURVE",
"502 885 CURVE SMOOTH",
"467 885 OFFCURVE",
"429 855 OFFCURVE",
"421 818 CURVE SMOOTH",
"414 781 OFFCURVE",
"438 752 OFFCURVE",
"473 752 CURVE SMOOTH"
);
},
{
closed = 1;
nodes = (
"746 752 OFFCURVE",
"783 781 OFFCURVE",
"790 818 CURVE SMOOTH",
"798 855 OFFCURVE",
"775 885 OFFCURVE",
"739 885 CURVE SMOOTH",
"703 885 OFFCURVE",
"665 855 OFFCURVE",
"657 818 CURVE SMOOTH",
"650 781 OFFCURVE",
"674 752 OFFCURVE",
"710 752 CURVE SMOOTH"
);
}
);
width = 1006;
}
);
leftKerningGroup = W;
note = Wdieresis;
rightKerningGroup = W;
unicode = 1E84;
},
{
glyphname = Wgrave;
lastChange = "2015-11-30 01:00:51 +0000";
layers = (
{
layerId = "A85C0A33-2487-4E47-AED8-78B93E482A34";
name = "Regular Italic";
paths = (
{
closed = 1;
nodes = (
"316 0 LINE",
"559 486 LINE",
"596 0 LINE",
"711 0 LINE",
"1058 699 LINE",
"926 699 LINE",
"682 205 LINE",
"650 699 LINE",
"552 699 LINE",
"310 205 LINE",
"276 699 LINE",
"144 699 LINE",
"195 0 LINE"
);
},
{
closed = 1;
nodes = (
"644 742 LINE",
"612 916 LINE",
"479 916 LINE",
"528 742 LINE"
);
}
);
width = 1006;
}
);
leftKerningGroup = W;
note = Wgrave;
rightKerningGroup = W;
unicode = 1E80;
},
{
glyphname = X;
lastChange = "2015-11-30 01:00:51 +0000";
layers = (
{
layerId = "A85C0A33-2487-4E47-AED8-78B93E482A34";
name = "Regular Italic";
paths = (
{
closed = 1;
nodes = (
"135 0 LINE",
"375 254 LINE",
"507 0 LINE",
"648 0 LINE",
"466 350 LINE",
"795 699 LINE",
"650 699 LINE",
"414 449 LINE",
"285 699 LINE",
"144 699 LINE",
"323 353 LINE",
"-10 0 LINE"
);
}
);
width = 742;
}
);
note = X;
unicode = 0058;
},
{
glyphname = Y;
lastChange = "2015-11-30 01:00:52 +0000";
layers = (
{
layerId = "A85C0A33-2487-4E47-AED8-78B93E482A34";
name = "Regular Italic";
paths = (
{
closed = 1;
nodes = (
"365 0 LINE",
"421 266 LINE",
"772 699 LINE",
"633 699 LINE",
"382 388 LINE",
"268 699 LINE",
"138 699 LINE",
"300 266 LINE",
"244 0 LINE"
);
}
);
width = 714;
}
);
leftKerningGroup = Y;
note = Y;
rightKerningGroup = Y;
unicode = 0059;
},
{
glyphname = Yacute;
lastChange = "2015-11-30 01:00:51 +0000";
layers = (
{
layerId = "A85C0A33-2487-4E47-AED8-78B93E482A34";
name = "Regular Italic";
paths = (
{
closed = 1;
nodes = (
"371 0 LINE",
"427 266 LINE",
"778 699 LINE",
"639 699 LINE",
"388 388 LINE",
"274 699 LINE",
"144 699 LINE",
"306 266 LINE",
"250 0 LINE"
);
},
{
closed = 1;
nodes = (
"502 742 LINE",
"625 916 LINE",
"492 916 LINE",
"386 742 LINE"
);
}
);
width = 726;
}
);
leftKerningGroup = Y;
note = Yacute;
rightKerningGroup = Y;
unicode = 00DD;
},
{
glyphname = Ycircumflex;
lastChange = "2015-11-30 01:00:52 +0000";
layers = (
{
layerId = "A85C0A33-2487-4E47-AED8-78B93E482A34";
name = "Regular Italic";
paths = (
{
closed = 1;
nodes = (
"371 0 LINE",
"427 266 LINE",
"778 699 LINE",
"639 699 LINE",
"388 388 LINE",
"274 699 LINE",
"144 699 LINE",
"306 266 LINE",
"250 0 LINE"
);
},
{
closed = 1;
nodes = (
"377 742 LINE",
"474 841 LINE",
"529 742 LINE",
"650 742 LINE",
"541 913 LINE",
"429 913 LINE",
"246 742 LINE"
);
}
);
width = 726;
}
);
leftKerningGroup = Y;
note = Ycircumflex;
rightKerningGroup = Y;
unicode = 0176;
},
{
glyphname = Ydieresis;
lastChange = "2015-11-30 01:00:51 +0000";
layers = (
{
layerId = "A85C0A33-2487-4E47-AED8-78B93E482A34";
name = "Regular Italic";
paths = (
{
closed = 1;
nodes = (
"371 0 LINE",
"427 266 LINE",
"778 699 LINE",
"639 699 LINE",
"388 388 LINE",
"274 699 LINE",
"144 699 LINE",
"306 266 LINE",
"250 0 LINE"
);
},
{
closed = 1;
nodes = (
"367 752 OFFCURVE",
"404 781 OFFCURVE",
"411 818 CURVE SMOOTH",
"419 855 OFFCURVE",
"396 885 OFFCURVE",
"360 885 CURVE SMOOTH",
"325 885 OFFCURVE",
"287 855 OFFCURVE",
"279 818 CURVE SMOOTH",
"272 781 OFFCURVE",
"296 752 OFFCURVE",
"331 752 CURVE SMOOTH"
);
},
{
closed = 1;
nodes = (
"604 752 OFFCURVE",
"641 781 OFFCURVE",
"648 818 CURVE SMOOTH",
"656 855 OFFCURVE",
"633 885 OFFCURVE",
"597 885 CURVE SMOOTH",
"561 885 OFFCURVE",
"523 855 OFFCURVE",
"515 818 CURVE SMOOTH",
"508 781 OFFCURVE",
"532 752 OFFCURVE",
"568 752 CURVE SMOOTH"
);
}
);
width = 726;
}
);
leftKerningGroup = Y;
note = Ydieresis;
rightKerningGroup = Y;
unicode = 0178;
},
{
glyphname = Ydotaccent;
lastChange = "2015-11-30 01:00:49 +0000";
layers = (
{
layerId = "A85C0A33-2487-4E47-AED8-78B93E482A34";
name = "Regular Italic";
paths = (
{
closed = 1;
nodes = (
"371 0 LINE",
"427 266 LINE",
"778 699 LINE",
"639 699 LINE",
"388 388 LINE",
"274 699 LINE",
"144 699 LINE",
"306 266 LINE",
"250 0 LINE"
);
},
{
closed = 1;
nodes = (
"486 752 OFFCURVE",
"523 781 OFFCURVE",
"530 818 CURVE SMOOTH",
"538 855 OFFCURVE",
"515 885 OFFCURVE",
"479 885 CURVE SMOOTH",
"443 885 OFFCURVE",
"405 855 OFFCURVE",
"397 818 CURVE SMOOTH",
"390 781 OFFCURVE",
"414 752 OFFCURVE",
"450 752 CURVE SMOOTH"
);
}
);
width = 726;
}
);
leftKerningGroup = Y;
note = Ydotaccent;
rightKerningGroup = Y;
unicode = 1E8E;
},
{
glyphname = Ydotbelow;
lastChange = "2015-11-30 01:00:50 +0000";
layers = (
{
layerId = "A85C0A33-2487-4E47-AED8-78B93E482A34";
name = "Regular Italic";
paths = (
{
closed = 1;
nodes = (
"371 0 LINE",
"427 266 LINE",
"778 699 LINE",
"639 699 LINE",
"388 388 LINE",
"274 699 LINE",
"144 699 LINE",
"306 266 LINE",
"250 0 LINE"
);
},
{
closed = 1;
nodes = (
"310 -179 OFFCURVE",
"346 -150 OFFCURVE",
"353 -113 CURVE SMOOTH",
"361 -76 OFFCURVE",
"338 -46 OFFCURVE",
"303 -46 CURVE SMOOTH",
"267 -46 OFFCURVE",
"229 -76 OFFCURVE",
"221 -113 CURVE SMOOTH",
"214 -150 OFFCURVE",
"238 -179 OFFCURVE",
"274 -179 CURVE SMOOTH"
);
}
);
width = 726;
}
);
leftKerningGroup = Y;
note = Ydotbelow;
rightKerningGroup = Y;
unicode = 1EF4;
},
{
glyphname = Ygrave;
lastChange = "2015-11-30 01:00:49 +0000";
layers = (
{
layerId = "A85C0A33-2487-4E47-AED8-78B93E482A34";
name = "Regular Italic";
paths = (
{
closed = 1;
nodes = (
"371 0 LINE",
"427 266 LINE",
"778 699 LINE",
"639 699 LINE",
"388 388 LINE",
"274 699 LINE",
"144 699 LINE",
"306 266 LINE",
"250 0 LINE"
);
},
{
closed = 1;
nodes = (
"516 742 LINE",
"484 916 LINE",
"351 916 LINE",
"400 742 LINE"
);
}
);
width = 726;
}
);
leftKerningGroup = Y;
note = Ygrave;
rightKerningGroup = Y;
unicode = 1EF2;
},
{
glyphname = Yhookabove;
lastChange = "2015-11-30 01:00:49 +0000";
layers = (
{
layerId = "A85C0A33-2487-4E47-AED8-78B93E482A34";
name = "Regular Italic";
paths = (
{
closed = 1;
nodes = (
"371 0 LINE",
"427 266 LINE",
"778 699 LINE",
"639 699 LINE",
"388 388 LINE",
"274 699 LINE",
"144 699 LINE",
"306 266 LINE",
"250 0 LINE"
);
},
{
closed = 1;
nodes = (
"500 742 LINE",
"507 776 LINE",
"568 785 OFFCURVE",
"608 822 OFFCURVE",
"618 870 CURVE SMOOTH",
"631 929 OFFCURVE",
"593 970 OFFCURVE",
"499 970 CURVE SMOOTH",
"463 970 OFFCURVE",
"423 963 OFFCURVE",
"398 956 CURVE",
"384 890 LINE",
"399 896 OFFCURVE",
"437 902 OFFCURVE",
"453 902 CURVE SMOOTH",
"498 902 OFFCURVE",
"512 891 OFFCURVE",
"507 865 CURVE SMOOTH",
"499 827 OFFCURVE",
"462 816 OFFCURVE",
"406 816 CURVE",
"390 742 LINE"
);
}
);
width = 726;
}
);
leftKerningGroup = Y;
note = Yhookabove;
rightKerningGroup = Y;
unicode = 1EF6;
},
{
glyphname = Ytilde;
lastChange = "2015-11-30 01:00:49 +0000";
layers = (
{
layerId = "A85C0A33-2487-4E47-AED8-78B93E482A34";
name = "Regular Italic";
paths = (
{
closed = 1;
nodes = (
"371 0 LINE",
"427 266 LINE",
"778 699 LINE",
"639 699 LINE",
"388 388 LINE",
"274 699 LINE",
"144 699 LINE",
"306 266 LINE",
"250 0 LINE"
);
},
{
closed = 1;
nodes = (
"293 781 OFFCURVE",
"328 794 OFFCURVE",
"365 794 CURVE SMOOTH",
"429 794 OFFCURVE",
"471 744 OFFCURVE",
"544 744 CURVE SMOOTH",
"586 744 OFFCURVE",
"623 755 OFFCURVE",
"652 786 CURVE",
"674 889 LINE",
"638 851 OFFCURVE",
"602 838 OFFCURVE",
"564 838 CURVE SMOOTH",
"499 838 OFFCURVE",
"453 888 OFFCURVE",
"385 888 CURVE SMOOTH",
"344 888 OFFCURVE",
"306 876 OFFCURVE",
"276 845 CURVE",
"254 742 LINE"
);
}
);
width = 726;
}
);
leftKerningGroup = Y;
note = Ytilde;
rightKerningGroup = Y;
unicode = 1EF8;
},
{
glyphname = Z;
lastChange = "2015-11-30 01:00:49 +0000";
layers = (
{
layerId = "A85C0A33-2487-4E47-AED8-78B93E482A34";
name = "Regular Italic";
paths = (
{
closed = 1;
nodes = (
"529 0 LINE",
"551 105 LINE",
"168 105 LINE",
"641 616 LINE",
"659 699 LINE",
"147 699 LINE",
"125 594 LINE",
"482 594 LINE",
"7 83 LINE",
"-10 0 LINE"
);
}
);
width = 619;
}
);
leftKerningGroup = Z;
note = Z;
rightKerningGroup = Z;
unicode = 005A;
},
{
glyphname = Zacute;
lastChange = "2015-11-30 01:00:52 +0000";
layers = (
{
layerId = "A85C0A33-2487-4E47-AED8-78B93E482A34";
name = "Regular Italic";
paths = (
{
closed = 1;
nodes = (
"529 0 LINE",
"551 105 LINE",
"168 105 LINE",
"641 616 LINE",
"659 699 LINE",
"147 699 LINE",
"125 594 LINE",
"482 594 LINE",
"7 83 LINE",
"-10 0 LINE"
);
},
{
closed = 1;
nodes = (
"435 742 LINE",
"558 916 LINE",
"425 916 LINE",
"319 742 LINE"
);
}
);
width = 619;
}
);
leftKerningGroup = Z;
note = Zacute;
rightKerningGroup = Z;
unicode = 0179;
},
{
glyphname = Zcaron;
lastChange = "2015-11-30 01:00:50 +0000";
layers = (
{
layerId = "A85C0A33-2487-4E47-AED8-78B93E482A34";
name = "Regular Italic";
paths = (
{
closed = 1;
nodes = (
"529 0 LINE",
"551 105 LINE",
"168 105 LINE",
"641 616 LINE",
"659 699 LINE",
"147 699 LINE",
"125 594 LINE",
"482 594 LINE",
"7 83 LINE",
"-10 0 LINE"
);
},
{
closed = 1;
nodes = (
"448 742 LINE",
"631 913 LINE",
"499 913 LINE",
"401 813 LINE",
"347 913 LINE",
"227 913 LINE",
"336 742 LINE"
);
}
);
width = 619;
}
);
leftKerningGroup = Z;
note = Zcaron;
rightKerningGroup = Z;
unicode = 017D;
},
{
glyphname = Zdotaccent;
lastChange = "2015-11-30 01:00:51 +0000";
layers = (
{
layerId = "A85C0A33-2487-4E47-AED8-78B93E482A34";
name = "Regular Italic";
paths = (
{
closed = 1;
nodes = (
"529 0 LINE",
"551 105 LINE",
"168 105 LINE",
"641 616 LINE",
"659 699 LINE",
"147 699 LINE",
"125 594 LINE",
"482 594 LINE",
"7 83 LINE",
"-10 0 LINE"
);
},
{
closed = 1;
nodes = (
"423 752 OFFCURVE",
"460 781 OFFCURVE",
"467 818 CURVE SMOOTH",
"475 855 OFFCURVE",
"452 885 OFFCURVE",
"416 885 CURVE SMOOTH",
"380 885 OFFCURVE",
"342 855 OFFCURVE",
"334 818 CURVE SMOOTH",
"327 781 OFFCURVE",
"351 752 OFFCURVE",
"387 752 CURVE SMOOTH"
);
}
);
width = 619;
}
);
leftKerningGroup = Z;
note = Zdotaccent;
rightKerningGroup = Z;
unicode = 017B;
},
{
glyphname = Zdotbelow;
lastChange = "2015-11-30 01:00:49 +0000";
layers = (
{
layerId = "A85C0A33-2487-4E47-AED8-78B93E482A34";
name = "Regular Italic";
paths = (
{
closed = 1;
nodes = (
"529 0 LINE",
"551 105 LINE",
"168 105 LINE",
"641 616 LINE",
"659 699 LINE",
"147 699 LINE",
"125 594 LINE",
"482 594 LINE",
"7 83 LINE",
"-10 0 LINE"
);
},
{
closed = 1;
nodes = (
"268 -179 OFFCURVE",
"304 -150 OFFCURVE",
"311 -113 CURVE SMOOTH",
"319 -76 OFFCURVE",
"296 -46 OFFCURVE",
"261 -46 CURVE SMOOTH",
"225 -46 OFFCURVE",
"187 -76 OFFCURVE",
"179 -113 CURVE SMOOTH",
"172 -150 OFFCURVE",
"196 -179 OFFCURVE",
"232 -179 CURVE SMOOTH"
);
}
);
width = 619;
}
);
leftKerningGroup = Z;
note = Zdotbelow;
rightKerningGroup = Z;
unicode = 1E92;
},
{
glyphname = a;
lastChange = "2015-11-30 01:00:51 +0000";
layers = (
{
layerId = "A85C0A33-2487-4E47-AED8-78B93E482A34";
name = "Regular Italic";
paths = (
{
closed = 1;
nodes = (
"325 -15 OFFCURVE",
"391 6 OFFCURVE",
"444 56 CURVE",
"433 0 LINE",
"555 0 LINE",
"657 480 LINE",
"531 480 LINE",
"521 433 LINE",
"483 475 OFFCURVE",
"425 495 OFFCURVE",
"348 495 CURVE SMOOTH",
"195 495 OFFCURVE",
"72 391 OFFCURVE",
"40 239 CURVE SMOOTH",
"7 85 OFFCURVE",
"100 -15 OFFCURVE",
"239 -15 CURVE SMOOTH"
);
},
{
closed = 1;
nodes = (
"185 84 OFFCURVE",
"149 141 OFFCURVE",
"168 239 CURVE SMOOTH",
"186 332 OFFCURVE",
"263 396 OFFCURVE",
"358 396 CURVE SMOOTH",
"439 396 OFFCURVE",
"483 353 OFFCURVE",
"490 288 CURVE",
"469 191 LINE",
"432 126 OFFCURVE",
"363 84 OFFCURVE",
"291 84 CURVE SMOOTH"
);
}
);
width = 660;
}
);
leftKerningGroup = a;
note = a;
rightKerningGroup = a;
unicode = 0061;
},
{
glyphname = aacute;
lastChange = "2015-11-30 01:00:49 +0000";
layers = (
{
layerId = "A85C0A33-2487-4E47-AED8-78B93E482A34";
name = "Regular Italic";
paths = (
{
closed = 1;
nodes = (
"325 -15 OFFCURVE",
"391 6 OFFCURVE",
"444 56 CURVE",
"433 0 LINE",
"555 0 LINE",
"657 480 LINE",
"531 480 LINE",
"521 433 LINE",
"483 475 OFFCURVE",
"425 495 OFFCURVE",
"348 495 CURVE SMOOTH",
"195 495 OFFCURVE",
"72 391 OFFCURVE",
"40 239 CURVE SMOOTH",
"7 85 OFFCURVE",
"100 -15 OFFCURVE",
"239 -15 CURVE SMOOTH"
);
},
{
closed = 1;
nodes = (
"185 84 OFFCURVE",
"149 141 OFFCURVE",
"168 239 CURVE SMOOTH",
"186 332 OFFCURVE",
"263 396 OFFCURVE",
"358 396 CURVE SMOOTH",
"439 396 OFFCURVE",
"483 353 OFFCURVE",
"490 288 CURVE",
"469 191 LINE",
"432 126 OFFCURVE",
"363 84 OFFCURVE",
"291 84 CURVE SMOOTH"
);
},
{
closed = 1;
nodes = (
"475 535 LINE",
"598 709 LINE",
"465 709 LINE",
"359 535 LINE"
);
}
);
width = 660;
}
);
leftKerningGroup = a;
note = aacute;
rightKerningGroup = a;
unicode = 00E1;
},
{
glyphname = abreve;
lastChange = "2015-11-30 01:00:52 +0000";
layers = (
{
layerId = "A85C0A33-2487-4E47-AED8-78B93E482A34";
name = "Regular Italic";
paths = (
{
closed = 1;
nodes = (
"325 -15 OFFCURVE",
"391 6 OFFCURVE",
"444 56 CURVE",
"433 0 LINE",
"555 0 LINE",
"657 480 LINE",
"531 480 LINE",
"521 433 LINE",
"483 475 OFFCURVE",
"425 495 OFFCURVE",
"348 495 CURVE SMOOTH",
"195 495 OFFCURVE",
"72 391 OFFCURVE",
"40 239 CURVE SMOOTH",
"7 85 OFFCURVE",
"100 -15 OFFCURVE",
"239 -15 CURVE SMOOTH"
);
},
{
closed = 1;
nodes = (
"185 84 OFFCURVE",
"149 141 OFFCURVE",
"168 239 CURVE SMOOTH",
"186 332 OFFCURVE",
"263 396 OFFCURVE",
"358 396 CURVE SMOOTH",
"439 396 OFFCURVE",
"483 353 OFFCURVE",
"490 288 CURVE",
"469 191 LINE",
"432 126 OFFCURVE",
"363 84 OFFCURVE",
"291 84 CURVE SMOOTH"
);
},
{
closed = 1;
nodes = (
"529 535 OFFCURVE",
"602 596 OFFCURVE",
"621 686 CURVE",
"521 686 LINE",
"512 642 OFFCURVE",
"483 619 OFFCURVE",
"441 619 CURVE SMOOTH",
"399 619 OFFCURVE",
"380 642 OFFCURVE",
"389 686 CURVE",
"300 686 LINE",
"281 596 OFFCURVE",
"327 535 OFFCURVE",
"428 535 CURVE SMOOTH"
);
}
);
width = 660;
}
);
leftKerningGroup = a;
note = abreve;
rightKerningGroup = a;
unicode = 0103;
},
{
glyphname = abreveacute;
lastChange = "2015-11-30 01:00:50 +0000";
layers = (
{
layerId = "A85C0A33-2487-4E47-AED8-78B93E482A34";
name = "Regular Italic";
paths = (
{
closed = 1;
nodes = (
"325 -15 OFFCURVE",
"391 6 OFFCURVE",
"444 56 CURVE",
"433 0 LINE",
"555 0 LINE",
"657 480 LINE",
"531 480 LINE",
"521 433 LINE",
"483 475 OFFCURVE",
"425 495 OFFCURVE",
"348 495 CURVE SMOOTH",
"195 495 OFFCURVE",
"72 391 OFFCURVE",
"40 239 CURVE SMOOTH",
"7 85 OFFCURVE",
"100 -15 OFFCURVE",
"239 -15 CURVE SMOOTH"
);
},
{
closed = 1;
nodes = (
"185 84 OFFCURVE",
"149 141 OFFCURVE",
"168 239 CURVE SMOOTH",
"186 332 OFFCURVE",
"263 396 OFFCURVE",
"358 396 CURVE SMOOTH",
"439 396 OFFCURVE",
"483 353 OFFCURVE",
"490 288 CURVE",
"469 191 LINE",
"432 126 OFFCURVE",
"363 84 OFFCURVE",
"291 84 CURVE SMOOTH"
);
},
{
closed = 1;
nodes = (
"544 535 OFFCURVE",
"614 594 OFFCURVE",
"632 682 CURVE",
"541 682 LINE",
"532 639 OFFCURVE",
"505 617 OFFCURVE",
"464 617 CURVE SMOOTH",
"423 617 OFFCURVE",
"404 639 OFFCURVE",
"413 682 CURVE",
"321 682 LINE",
"303 594 OFFCURVE",
"348 535 OFFCURVE",
"446 535 CURVE SMOOTH"
);
},
{
closed = 1;
nodes = (
"520 686 LINE",
"613 812 LINE",
"513 812 LINE",
"434 686 LINE"
);
}
);
width = 660;
}
);
leftKerningGroup = a;
note = abreveacute;
rightKerningGroup = a;
unicode = 1EAF;
},
{
glyphname = abrevedotbelow;
lastChange = "2015-11-30 01:00:49 +0000";
layers = (
{
layerId = "A85C0A33-2487-4E47-AED8-78B93E482A34";
name = "Regular Italic";
paths = (
{
closed = 1;
nodes = (
"325 -15 OFFCURVE",
"391 6 OFFCURVE",
"444 56 CURVE",
"433 0 LINE",
"555 0 LINE",
"657 480 LINE",
"531 480 LINE",
"521 433 LINE",
"483 475 OFFCURVE",
"425 495 OFFCURVE",
"348 495 CURVE SMOOTH",
"195 495 OFFCURVE",
"72 391 OFFCURVE",
"40 239 CURVE SMOOTH",
"7 85 OFFCURVE",
"100 -15 OFFCURVE",
"239 -15 CURVE SMOOTH"
);
},
{
closed = 1;
nodes = (
"320 -179 OFFCURVE",
"356 -150 OFFCURVE",
"363 -113 CURVE SMOOTH",
"371 -76 OFFCURVE",
"348 -46 OFFCURVE",
"313 -46 CURVE SMOOTH",
"277 -46 OFFCURVE",
"239 -76 OFFCURVE",
"231 -113 CURVE SMOOTH",
"224 -150 OFFCURVE",
"248 -179 OFFCURVE",
"284 -179 CURVE SMOOTH"
);
},
{
closed = 1;
nodes = (
"185 84 OFFCURVE",
"149 141 OFFCURVE",
"168 239 CURVE SMOOTH",
"186 332 OFFCURVE",
"263 396 OFFCURVE",
"358 396 CURVE SMOOTH",
"439 396 OFFCURVE",
"483 353 OFFCURVE",
"490 288 CURVE",
"469 191 LINE",
"432 126 OFFCURVE",
"363 84 OFFCURVE",
"291 84 CURVE SMOOTH"
);
},
{
closed = 1;
nodes = (
"525 535 OFFCURVE",
"598 596 OFFCURVE",
"617 686 CURVE",
"517 686 LINE",
"508 642 OFFCURVE",
"479 619 OFFCURVE",
"437 619 CURVE SMOOTH",
"395 619 OFFCURVE",
"376 642 OFFCURVE",
"385 686 CURVE",
"296 686 LINE",
"277 596 OFFCURVE",
"323 535 OFFCURVE",
"424 535 CURVE SMOOTH"
);
}
);
width = 660;
}
);
leftKerningGroup = a;
note = abrevedotbelow;
rightKerningGroup = a;
unicode = 1EB7;
},
{
glyphname = abrevegrave;
lastChange = "2015-11-30 01:00:50 +0000";
layers = (
{
layerId = "A85C0A33-2487-4E47-AED8-78B93E482A34";
name = "Regular Italic";
paths = (
{
closed = 1;
nodes = (
"325 -15 OFFCURVE",
"391 6 OFFCURVE",
"444 56 CURVE",
"433 0 LINE",
"555 0 LINE",
"657 480 LINE",
"531 480 LINE",
"521 433 LINE",
"483 475 OFFCURVE",
"425 495 OFFCURVE",
"348 495 CURVE SMOOTH",
"195 495 OFFCURVE",
"72 391 OFFCURVE",
"40 239 CURVE SMOOTH",
"7 85 OFFCURVE",
"100 -15 OFFCURVE",
"239 -15 CURVE SMOOTH"
);
},
{
closed = 1;
nodes = (
"185 84 OFFCURVE",
"149 141 OFFCURVE",
"168 239 CURVE SMOOTH",
"186 332 OFFCURVE",
"263 396 OFFCURVE",
"358 396 CURVE SMOOTH",
"439 396 OFFCURVE",
"483 353 OFFCURVE",
"490 288 CURVE",
"469 191 LINE",
"432 126 OFFCURVE",
"363 84 OFFCURVE",
"291 84 CURVE SMOOTH"
);
},
{
closed = 1;
nodes = (
"539 535 OFFCURVE",
"609 594 OFFCURVE",
"627 682 CURVE",
"536 682 LINE",
"527 639 OFFCURVE",
"500 617 OFFCURVE",
"459 617 CURVE SMOOTH",
"418 617 OFFCURVE",
"399 639 OFFCURVE",
"408 682 CURVE",
"316 682 LINE",
"298 594 OFFCURVE",
"343 535 OFFCURVE",
"441 535 CURVE SMOOTH"
);
},
{
closed = 1;
nodes = (
"517 686 LINE",
"492 812 LINE",
"391 812 LINE",
"431 686 LINE"
);
}
);
width = 660;
}
);
leftKerningGroup = a;
note = abrevegrave;
rightKerningGroup = a;
unicode = 1EB1;
},
{
glyphname = abrevehookabove;
lastChange = "2015-11-30 01:00:51 +0000";
layers = (
{
layerId = "A85C0A33-2487-4E47-AED8-78B93E482A34";
name = "Regular Italic";
paths = (
{
closed = 1;
nodes = (
"325 -15 OFFCURVE",
"391 6 OFFCURVE",
"444 56 CURVE",
"433 0 LINE",
"555 0 LINE",
"657 480 LINE",
"531 480 LINE",
"521 433 LINE",
"483 475 OFFCURVE",
"425 495 OFFCURVE",
"348 495 CURVE SMOOTH",
"195 495 OFFCURVE",
"72 391 OFFCURVE",
"40 239 CURVE SMOOTH",
"7 85 OFFCURVE",
"100 -15 OFFCURVE",
"239 -15 CURVE SMOOTH"
);
},
{
closed = 1;
nodes = (
"185 84 OFFCURVE",
"149 141 OFFCURVE",
"168 239 CURVE SMOOTH",
"186 332 OFFCURVE",
"263 396 OFFCURVE",
"358 396 CURVE SMOOTH",
"439 396 OFFCURVE",
"483 353 OFFCURVE",
"490 288 CURVE",
"469 191 LINE",
"432 126 OFFCURVE",
"363 84 OFFCURVE",
"291 84 CURVE SMOOTH"
);
},
{
closed = 1;
nodes = (
"540 530 OFFCURVE",
"610 589 OFFCURVE",
"628 677 CURVE",
"539 677 LINE",
"530 634 OFFCURVE",
"500 610 OFFCURVE",
"459 610 CURVE SMOOTH",
"418 610 OFFCURVE",
"398 634 OFFCURVE",
"407 677 CURVE",
"317 677 LINE",
"299 589 OFFCURVE",
"344 530 OFFCURVE",
"442 530 CURVE SMOOTH"
);
},
{
closed = 1;
nodes = (
"513 670 LINE",
"518 694 LINE",
"559 701 OFFCURVE",
"589 725 OFFCURVE",
"596 759 CURVE SMOOTH",
"604 801 OFFCURVE",
"574 829 OFFCURVE",
"514 829 CURVE SMOOTH",
"490 829 OFFCURVE",
"459 824 OFFCURVE",
"439 818 CURVE",
"429 769 LINE",
"440 774 OFFCURVE",
"458 777 OFFCURVE",
"472 777 CURVE SMOOTH",
"500 777 OFFCURVE",
"513 772 OFFCURVE",
"508 751 CURVE SMOOTH",
"503 727 OFFCURVE",
"482 720 OFFCURVE",
"444 720 CURVE",
"434 670 LINE"
);
}
);
width = 660;
}
);
leftKerningGroup = a;
note = abrevehookabove;
rightKerningGroup = a;
unicode = 1EB3;
},
{
glyphname = abrevetilde;
lastChange = "2015-11-30 01:00:49 +0000";
layers = (
{
layerId = "A85C0A33-2487-4E47-AED8-78B93E482A34";
name = "Regular Italic";
paths = (
{
closed = 1;
nodes = (
"325 -15 OFFCURVE",
"391 6 OFFCURVE",
"444 56 CURVE",
"433 0 LINE",
"555 0 LINE",
"657 480 LINE",
"531 480 LINE",
"521 433 LINE",
"483 475 OFFCURVE",
"425 495 OFFCURVE",
"348 495 CURVE SMOOTH",
"195 495 OFFCURVE",
"72 391 OFFCURVE",
"40 239 CURVE SMOOTH",
"7 85 OFFCURVE",
"100 -15 OFFCURVE",
"239 -15 CURVE SMOOTH"
);
},
{
closed = 1;
nodes = (
"185 84 OFFCURVE",
"149 141 OFFCURVE",
"168 239 CURVE SMOOTH",
"186 332 OFFCURVE",
"263 396 OFFCURVE",
"358 396 CURVE SMOOTH",
"439 396 OFFCURVE",
"483 353 OFFCURVE",
"490 288 CURVE",
"469 191 LINE",
"432 126 OFFCURVE",
"363 84 OFFCURVE",
"291 84 CURVE SMOOTH"
);
},
{
closed = 1;
nodes = (
"559 535 OFFCURVE",
"629 594 OFFCURVE",
"647 682 CURVE",
"556 682 LINE",
"547 639 OFFCURVE",
"520 617 OFFCURVE",
"479 617 CURVE SMOOTH",
"438 617 OFFCURVE",
"419 639 OFFCURVE",
"428 682 CURVE",
"336 682 LINE",
"318 594 OFFCURVE",
"363 535 OFFCURVE",
"461 535 CURVE SMOOTH"
);
},
{
closed = 1;
nodes = (
"613 718 OFFCURVE",
"640 728 OFFCURVE",
"662 752 CURVE",
"681 842 LINE",
"653 811 OFFCURVE",
"625 800 OFFCURVE",
"595 800 CURVE SMOOTH",
"547 800 OFFCURVE",
"501 843 OFFCURVE",
"451 843 CURVE SMOOTH",
"416 843 OFFCURVE",
"387 833 OFFCURVE",
"365 808 CURVE",
"346 719 LINE",
"376 750 OFFCURVE",
"402 761 OFFCURVE",
"433 761 CURVE SMOOTH",
"480 761 OFFCURVE",
"524 718 OFFCURVE",
"578 718 CURVE SMOOTH"
);
}
);
width = 660;
}
);
leftKerningGroup = a;
note = abrevetilde;
rightKerningGroup = a;
unicode = 1EB5;
},
{
glyphname = acaron;
lastChange = "2015-11-30 01:00:50 +0000";
layers = (
{
layerId = "A85C0A33-2487-4E47-AED8-78B93E482A34";
name = "Regular Italic";
paths = (
{
closed = 1;
nodes = (
"325 -15 OFFCURVE",
"391 6 OFFCURVE",
"444 56 CURVE",
"433 0 LINE",
"555 0 LINE",
"657 480 LINE",
"531 480 LINE",
"521 433 LINE",
"483 475 OFFCURVE",
"425 495 OFFCURVE",
"348 495 CURVE SMOOTH",
"195 495 OFFCURVE",
"72 391 OFFCURVE",
"40 239 CURVE SMOOTH",
"7 85 OFFCURVE",
"100 -15 OFFCURVE",
"239 -15 CURVE SMOOTH"
);
},
{
closed = 1;
nodes = (
"185 84 OFFCURVE",
"149 141 OFFCURVE",
"168 239 CURVE SMOOTH",
"186 332 OFFCURVE",
"263 396 OFFCURVE",
"358 396 CURVE SMOOTH",
"439 396 OFFCURVE",
"483 353 OFFCURVE",
"490 288 CURVE",
"469 191 LINE",
"432 126 OFFCURVE",
"363 84 OFFCURVE",
"291 84 CURVE SMOOTH"
);
},
{
closed = 1;
nodes = (
"492 535 LINE",
"675 706 LINE",
"543 706 LINE",
"445 606 LINE",
"391 706 LINE",
"271 706 LINE",
"380 535 LINE"
);
}
);
width = 660;
}
);
leftKerningGroup = a;
note = acaron;
rightKerningGroup = a;
unicode = 01CE;
},
{
glyphname = acircumflex;
lastChange = "2015-11-30 01:00:50 +0000";
layers = (
{
layerId = "A85C0A33-2487-4E47-AED8-78B93E482A34";
name = "Regular Italic";
paths = (
{
closed = 1;
nodes = (
"325 -15 OFFCURVE",
"391 6 OFFCURVE",
"444 56 CURVE",
"433 0 LINE",
"555 0 LINE",
"657 480 LINE",
"531 480 LINE",
"521 433 LINE",
"483 475 OFFCURVE",
"425 495 OFFCURVE",
"348 495 CURVE SMOOTH",
"195 495 OFFCURVE",
"72 391 OFFCURVE",
"40 239 CURVE SMOOTH",
"7 85 OFFCURVE",
"100 -15 OFFCURVE",
"239 -15 CURVE SMOOTH"
);
},
{
closed = 1;
nodes = (
"185 84 OFFCURVE",
"149 141 OFFCURVE",
"168 239 CURVE SMOOTH",
"186 332 OFFCURVE",
"263 396 OFFCURVE",
"358 396 CURVE SMOOTH",
"439 396 OFFCURVE",
"483 353 OFFCURVE",
"490 288 CURVE",
"469 191 LINE",
"432 126 OFFCURVE",
"363 84 OFFCURVE",
"291 84 CURVE SMOOTH"
);
},
{
closed = 1;
nodes = (
"351 535 LINE",
"448 634 LINE",
"503 535 LINE",
"624 535 LINE",
"515 706 LINE",
"403 706 LINE",
"220 535 LINE"
);
}
);
width = 660;
}
);
leftKerningGroup = a;
note = acircumflex;
rightKerningGroup = a;
unicode = 00E2;
},
{
glyphname = acircumflexacute;
lastChange = "2015-11-30 01:00:50 +0000";
layers = (
{
layerId = "A85C0A33-2487-4E47-AED8-78B93E482A34";
name = "Regular Italic";
paths = (
{
closed = 1;
nodes = (
"325 -15 OFFCURVE",
"391 6 OFFCURVE",
"444 56 CURVE",
"433 0 LINE",
"555 0 LINE",
"657 480 LINE",
"531 480 LINE",
"521 433 LINE",
"483 475 OFFCURVE",
"425 495 OFFCURVE",
"348 495 CURVE SMOOTH",
"195 495 OFFCURVE",
"72 391 OFFCURVE",
"40 239 CURVE SMOOTH",
"7 85 OFFCURVE",
"100 -15 OFFCURVE",
"239 -15 CURVE SMOOTH"
);
},
{
closed = 1;
nodes = (
"185 84 OFFCURVE",
"149 141 OFFCURVE",
"168 239 CURVE SMOOTH",
"186 332 OFFCURVE",
"263 396 OFFCURVE",
"358 396 CURVE SMOOTH",
"439 396 OFFCURVE",
"483 353 OFFCURVE",
"490 288 CURVE",
"469 191 LINE",
"432 126 OFFCURVE",
"363 84 OFFCURVE",
"291 84 CURVE SMOOTH"
);
},
{
closed = 1;
nodes = (
"382 535 LINE",
"472 619 LINE",
"526 535 LINE",
"644 535 LINE",
"539 687 LINE",
"433 687 LINE",
"262 535 LINE"
);
},
{
closed = 1;
nodes = (
"711 634 LINE",
"815 762 LINE",
"698 762 LINE",
"611 634 LINE"
);
}
);
width = 660;
}
);
leftKerningGroup = a;
note = acircumflexacute;
rightKerningGroup = a;
unicode = 1EA5;
},
{
glyphname = acircumflexdotbelow;
lastChange = "2015-11-30 01:00:50 +0000";
layers = (
{
layerId = "A85C0A33-2487-4E47-AED8-78B93E482A34";
name = "Regular Italic";
paths = (
{
closed = 1;
nodes = (
"325 -15 OFFCURVE",
"391 6 OFFCURVE",
"444 56 CURVE",
"433 0 LINE",
"555 0 LINE",
"657 480 LINE",
"531 480 LINE",
"521 433 LINE",
"483 475 OFFCURVE",
"425 495 OFFCURVE",
"348 495 CURVE SMOOTH",
"195 495 OFFCURVE",
"72 391 OFFCURVE",
"40 239 CURVE SMOOTH",
"7 85 OFFCURVE",
"100 -15 OFFCURVE",
"239 -15 CURVE SMOOTH"
);
},
{
closed = 1;
nodes = (
"313 -179 OFFCURVE",
"349 -150 OFFCURVE",
"356 -113 CURVE SMOOTH",
"364 -76 OFFCURVE",
"341 -46 OFFCURVE",
"306 -46 CURVE SMOOTH",
"270 -46 OFFCURVE",
"232 -76 OFFCURVE",
"224 -113 CURVE SMOOTH",
"217 -150 OFFCURVE",
"241 -179 OFFCURVE",
"277 -179 CURVE SMOOTH"
);
},
{
closed = 1;
nodes = (
"185 84 OFFCURVE",
"149 141 OFFCURVE",
"168 239 CURVE SMOOTH",
"186 332 OFFCURVE",
"263 396 OFFCURVE",
"358 396 CURVE SMOOTH",
"439 396 OFFCURVE",
"483 353 OFFCURVE",
"490 288 CURVE",
"469 191 LINE",
"432 126 OFFCURVE",
"363 84 OFFCURVE",
"291 84 CURVE SMOOTH"
);
},
{
closed = 1;
nodes = (
"346 535 LINE",
"443 634 LINE",
"498 535 LINE",
"619 535 LINE",
"510 706 LINE",
"398 706 LINE",
"215 535 LINE"
);
}
);
width = 660;
}
);
leftKerningGroup = a;
note = acircumflexdotbelow;
rightKerningGroup = a;
unicode = 1EAD;
},
{
glyphname = acircumflexgrave;
lastChange = "2015-11-30 01:00:50 +0000";
layers = (
{
layerId = "A85C0A33-2487-4E47-AED8-78B93E482A34";
name = "Regular Italic";
paths = (
{
closed = 1;
nodes = (
"325 -15 OFFCURVE",
"391 6 OFFCURVE",
"444 56 CURVE",
"433 0 LINE",
"555 0 LINE",
"657 480 LINE",
"531 480 LINE",
"521 433 LINE",
"483 475 OFFCURVE",
"425 495 OFFCURVE",
"348 495 CURVE SMOOTH",
"195 495 OFFCURVE",
"72 391 OFFCURVE",
"40 239 CURVE SMOOTH",
"7 85 OFFCURVE",
"100 -15 OFFCURVE",
"239 -15 CURVE SMOOTH"
);
},
{
closed = 1;
nodes = (
"185 84 OFFCURVE",
"149 141 OFFCURVE",
"168 239 CURVE SMOOTH",
"186 332 OFFCURVE",
"263 396 OFFCURVE",
"358 396 CURVE SMOOTH",
"439 396 OFFCURVE",
"483 353 OFFCURVE",
"490 288 CURVE",
"469 191 LINE",
"432 126 OFFCURVE",
"363 84 OFFCURVE",
"291 84 CURVE SMOOTH"
);
},
{
closed = 1;
nodes = (
"331 634 LINE",
"297 762 LINE",
"180 762 LINE",
"230 634 LINE"
);
},
{
closed = 1;
nodes = (
"374 535 LINE",
"464 619 LINE",
"517 535 LINE",
"637 535 LINE",
"530 687 LINE",
"425 687 LINE",
"255 535 LINE"
);
}
);
width = 660;
}
);
leftKerningGroup = a;
note = acircumflexgrave;
rightKerningGroup = a;
unicode = 1EA7;
},
{
glyphname = acircumflexhookabove;
lastChange = "2015-11-30 01:00:52 +0000";
layers = (
{
layerId = "A85C0A33-2487-4E47-AED8-78B93E482A34";
name = "Regular Italic";
paths = (
{
closed = 1;
nodes = (
"325 -15 OFFCURVE",
"391 6 OFFCURVE",
"444 56 CURVE",
"433 0 LINE",
"555 0 LINE",
"657 480 LINE",
"531 480 LINE",
"521 433 LINE",
"483 475 OFFCURVE",
"425 495 OFFCURVE",
"348 495 CURVE SMOOTH",
"195 495 OFFCURVE",
"72 391 OFFCURVE",
"40 239 CURVE SMOOTH",
"7 85 OFFCURVE",
"100 -15 OFFCURVE",
"239 -15 CURVE SMOOTH"
);
},
{
closed = 1;
nodes = (
"185 84 OFFCURVE",
"149 141 OFFCURVE",
"168 239 CURVE SMOOTH",
"186 332 OFFCURVE",
"263 396 OFFCURVE",
"358 396 CURVE SMOOTH",
"439 396 OFFCURVE",
"483 353 OFFCURVE",
"490 288 CURVE",
"469 191 LINE",
"432 126 OFFCURVE",
"363 84 OFFCURVE",
"291 84 CURVE SMOOTH"
);
},
{
closed = 1;
nodes = (
"369 535 LINE",
"459 619 LINE",
"513 535 LINE",
"631 535 LINE",
"526 687 LINE",
"420 687 LINE",
"249 535 LINE"
);
},
{
closed = 1;
nodes = (
"674 623 LINE",
"679 647 LINE",
"720 654 OFFCURVE",
"750 678 OFFCURVE",
"757 712 CURVE SMOOTH",
"766 754 OFFCURVE",
"735 782 OFFCURVE",
"675 782 CURVE SMOOTH",
"651 782 OFFCURVE",
"620 777 OFFCURVE",
"601 771 CURVE",
"591 722 LINE",
"602 727 OFFCURVE",
"619 730 OFFCURVE",
"633 730 CURVE SMOOTH",
"661 730 OFFCURVE",
"674 725 OFFCURVE",
"669 704 CURVE SMOOTH",
"664 680 OFFCURVE",
"643 673 OFFCURVE",
"606 673 CURVE",
"596 623 LINE"
);
}
);
width = 660;
}
);
leftKerningGroup = a;
note = acircumflexhookabove;
rightKerningGroup = a;
unicode = 1EA9;
},
{
glyphname = acircumflextilde;
lastChange = "2015-11-30 01:00:49 +0000";
layers = (
{
layerId = "A85C0A33-2487-4E47-AED8-78B93E482A34";
name = "Regular Italic";
paths = (
{
closed = 1;
nodes = (
"325 -15 OFFCURVE",
"391 6 OFFCURVE",
"444 56 CURVE",
"433 0 LINE",
"555 0 LINE",
"657 480 LINE",
"531 480 LINE",
"521 433 LINE",
"483 475 OFFCURVE",
"425 495 OFFCURVE",
"348 495 CURVE SMOOTH",
"195 495 OFFCURVE",
"72 391 OFFCURVE",
"40 239 CURVE SMOOTH",
"7 85 OFFCURVE",
"100 -15 OFFCURVE",
"239 -15 CURVE SMOOTH"
);
},
{
closed = 1;
nodes = (
"185 84 OFFCURVE",
"149 141 OFFCURVE",
"168 239 CURVE SMOOTH",
"186 332 OFFCURVE",
"263 396 OFFCURVE",
"358 396 CURVE SMOOTH",
"439 396 OFFCURVE",
"483 353 OFFCURVE",
"490 288 CURVE",
"469 191 LINE",
"432 126 OFFCURVE",
"363 84 OFFCURVE",
"291 84 CURVE SMOOTH"
);
},
{
closed = 1;
nodes = (
"374 535 LINE",
"464 619 LINE",
"518 535 LINE",
"636 535 LINE",
"531 687 LINE",
"425 687 LINE",
"254 535 LINE"
);
},
{
closed = 1;
nodes = (
"596 699 OFFCURVE",
"623 709 OFFCURVE",
"645 733 CURVE",
"664 823 LINE",
"636 792 OFFCURVE",
"609 781 OFFCURVE",
"578 781 CURVE SMOOTH",
"530 781 OFFCURVE",
"484 824 OFFCURVE",
"434 824 CURVE SMOOTH",
"399 824 OFFCURVE",
"370 814 OFFCURVE",
"348 789 CURVE",
"329 700 LINE",
"359 731 OFFCURVE",
"385 742 OFFCURVE",
"416 742 CURVE SMOOTH",
"463 742 OFFCURVE",
"507 699 OFFCURVE",
"561 699 CURVE SMOOTH"
);
}
);
width = 660;
}
);
leftKerningGroup = a;
note = acircumflextilde;
rightKerningGroup = a;
unicode = 1EAB;
},
{
glyphname = adieresis;
lastChange = "2015-11-30 01:00:49 +0000";
layers = (
{
layerId = "A85C0A33-2487-4E47-AED8-78B93E482A34";
name = "Regular Italic";
paths = (
{
closed = 1;
nodes = (
"325 -15 OFFCURVE",
"391 6 OFFCURVE",
"444 56 CURVE",
"433 0 LINE",
"555 0 LINE",
"657 480 LINE",
"531 480 LINE",
"521 433 LINE",
"483 475 OFFCURVE",
"425 495 OFFCURVE",
"348 495 CURVE SMOOTH",
"195 495 OFFCURVE",
"72 391 OFFCURVE",
"40 239 CURVE SMOOTH",
"7 85 OFFCURVE",
"100 -15 OFFCURVE",
"239 -15 CURVE SMOOTH"
);
},
{
closed = 1;
nodes = (
"185 84 OFFCURVE",
"149 141 OFFCURVE",
"168 239 CURVE SMOOTH",
"186 332 OFFCURVE",
"263 396 OFFCURVE",
"358 396 CURVE SMOOTH",
"439 396 OFFCURVE",
"483 353 OFFCURVE",
"490 288 CURVE",
"469 191 LINE",
"432 126 OFFCURVE",
"363 84 OFFCURVE",
"291 84 CURVE SMOOTH"
);
},
{
closed = 1;
nodes = (
"336 545 OFFCURVE",
"373 574 OFFCURVE",
"380 611 CURVE SMOOTH",
"388 648 OFFCURVE",
"365 678 OFFCURVE",
"329 678 CURVE SMOOTH",
"294 678 OFFCURVE",
"256 648 OFFCURVE",
"248 611 CURVE SMOOTH",
"241 574 OFFCURVE",
"265 545 OFFCURVE",
"300 545 CURVE SMOOTH"
);
},
{
closed = 1;
nodes = (
"573 545 OFFCURVE",
"610 574 OFFCURVE",
"617 611 CURVE SMOOTH",
"625 648 OFFCURVE",
"602 678 OFFCURVE",
"566 678 CURVE SMOOTH",
"530 678 OFFCURVE",
"492 648 OFFCURVE",
"484 611 CURVE SMOOTH",
"477 574 OFFCURVE",
"501 545 OFFCURVE",
"537 545 CURVE SMOOTH"
);
}
);
width = 660;
}
);
leftKerningGroup = a;
note = adieresis;
rightKerningGroup = a;
unicode = 00E4;
},
{
glyphname = adotbelow;
lastChange = "2015-11-30 01:00:52 +0000";
layers = (
{
layerId = "A85C0A33-2487-4E47-AED8-78B93E482A34";
name = "Regular Italic";
paths = (
{
closed = 1;
nodes = (
"325 -15 OFFCURVE",
"391 6 OFFCURVE",
"444 56 CURVE",
"433 0 LINE",
"555 0 LINE",
"657 480 LINE",
"531 480 LINE",
"521 433 LINE",
"483 475 OFFCURVE",
"425 495 OFFCURVE",
"348 495 CURVE SMOOTH",
"195 495 OFFCURVE",
"72 391 OFFCURVE",
"40 239 CURVE SMOOTH",
"7 85 OFFCURVE",
"100 -15 OFFCURVE",
"239 -15 CURVE SMOOTH"
);
},
{
closed = 1;
nodes = (
"316 -179 OFFCURVE",
"352 -150 OFFCURVE",
"359 -113 CURVE SMOOTH",
"367 -76 OFFCURVE",
"344 -46 OFFCURVE",
"309 -46 CURVE SMOOTH",
"273 -46 OFFCURVE",
"235 -76 OFFCURVE",
"227 -113 CURVE SMOOTH",
"220 -150 OFFCURVE",
"244 -179 OFFCURVE",
"280 -179 CURVE SMOOTH"
);
},
{
closed = 1;
nodes = (
"185 84 OFFCURVE",
"149 141 OFFCURVE",
"168 239 CURVE SMOOTH",
"186 332 OFFCURVE",
"263 396 OFFCURVE",
"358 396 CURVE SMOOTH",
"439 396 OFFCURVE",
"483 353 OFFCURVE",
"490 288 CURVE",
"469 191 LINE",
"432 126 OFFCURVE",
"363 84 OFFCURVE",
"291 84 CURVE SMOOTH"
);
}
);
width = 660;
}
);
leftKerningGroup = a;
note = adotbelow;
rightKerningGroup = a;
unicode = 1EA1;
},
{
glyphname = agrave;
lastChange = "2015-11-30 01:00:52 +0000";
layers = (
{
layerId = "A85C0A33-2487-4E47-AED8-78B93E482A34";
name = "Regular Italic";
paths = (
{
closed = 1;
nodes = (
"325 -15 OFFCURVE",
"391 6 OFFCURVE",
"444 56 CURVE",
"433 0 LINE",
"555 0 LINE",
"657 480 LINE",
"531 480 LINE",
"521 433 LINE",
"483 475 OFFCURVE",
"425 495 OFFCURVE",
"348 495 CURVE SMOOTH",
"195 495 OFFCURVE",
"72 391 OFFCURVE",
"40 239 CURVE SMOOTH",
"7 85 OFFCURVE",
"100 -15 OFFCURVE",
"239 -15 CURVE SMOOTH"
);
},
{
closed = 1;
nodes = (
"185 84 OFFCURVE",
"149 141 OFFCURVE",
"168 239 CURVE SMOOTH",
"186 332 OFFCURVE",
"263 396 OFFCURVE",
"358 396 CURVE SMOOTH",
"439 396 OFFCURVE",
"483 353 OFFCURVE",
"490 288 CURVE",
"469 191 LINE",
"432 126 OFFCURVE",
"363 84 OFFCURVE",
"291 84 CURVE SMOOTH"
);
},
{
closed = 1;
nodes = (
"505 535 LINE",
"473 709 LINE",
"340 709 LINE",
"389 535 LINE"
);
}
);
width = 660;
}
);
leftKerningGroup = a;
note = agrave;
rightKerningGroup = a;
unicode = 00E0;
},
{
glyphname = ahookabove;
lastChange = "2015-11-30 01:00:49 +0000";
layers = (
{
layerId = "A85C0A33-2487-4E47-AED8-78B93E482A34";
name = "Regular Italic";
paths = (
{
closed = 1;
nodes = (
"325 -15 OFFCURVE",
"391 6 OFFCURVE",
"444 56 CURVE",
"433 0 LINE",
"555 0 LINE",
"657 480 LINE",
"531 480 LINE",
"521 433 LINE",
"483 475 OFFCURVE",
"425 495 OFFCURVE",
"348 495 CURVE SMOOTH",
"195 495 OFFCURVE",
"72 391 OFFCURVE",
"40 239 CURVE SMOOTH",
"7 85 OFFCURVE",
"100 -15 OFFCURVE",
"239 -15 CURVE SMOOTH"
);
},
{
closed = 1;
nodes = (
"185 84 OFFCURVE",
"149 141 OFFCURVE",
"168 239 CURVE SMOOTH",
"186 332 OFFCURVE",
"263 396 OFFCURVE",
"358 396 CURVE SMOOTH",
"439 396 OFFCURVE",
"483 353 OFFCURVE",
"490 288 CURVE",
"469 191 LINE",
"432 126 OFFCURVE",
"363 84 OFFCURVE",
"291 84 CURVE SMOOTH"
);
},
{
closed = 1;
nodes = (
"482 535 LINE",
"489 569 LINE",
"550 578 OFFCURVE",
"590 615 OFFCURVE",
"600 663 CURVE SMOOTH",
"613 722 OFFCURVE",
"575 763 OFFCURVE",
"481 763 CURVE SMOOTH",
"445 763 OFFCURVE",
"405 756 OFFCURVE",
"380 749 CURVE",
"366 683 LINE",
"381 689 OFFCURVE",
"419 695 OFFCURVE",
"435 695 CURVE SMOOTH",
"480 695 OFFCURVE",
"494 684 OFFCURVE",
"489 658 CURVE SMOOTH",
"481 620 OFFCURVE",
"444 609 OFFCURVE",
"388 609 CURVE",
"372 535 LINE"
);
}
);
width = 660;
}
);
leftKerningGroup = a;
note = ahookabove;
rightKerningGroup = a;
unicode = 1EA3;
},
{
glyphname = "alpha-latin";
lastChange = "2015-11-30 01:00:50 +0000";
layers = (
{
layerId = "A85C0A33-2487-4E47-AED8-78B93E482A34";
name = "Regular Italic";
paths = (
{
closed = 1;
nodes = (
"325 -15 OFFCURVE",
"391 6 OFFCURVE",
"444 56 CURVE",
"433 0 LINE",
"555 0 LINE",
"657 480 LINE",
"531 480 LINE",
"521 433 LINE",
"483 475 OFFCURVE",
"425 495 OFFCURVE",
"348 495 CURVE SMOOTH",
"195 495 OFFCURVE",
"73 391 OFFCURVE",
"40 239 CURVE SMOOTH",
"8 85 OFFCURVE",
"100 -15 OFFCURVE",
"239 -15 CURVE SMOOTH"
);
},
{
closed = 1;
nodes = (
"185 84 OFFCURVE",
"149 141 OFFCURVE",
"168 239 CURVE SMOOTH",
"186 332 OFFCURVE",
"263 396 OFFCURVE",
"358 396 CURVE SMOOTH",
"439 396 OFFCURVE",
"483 353 OFFCURVE",
"490 288 CURVE",
"469 191 LINE",
"432 126 OFFCURVE",
"363 84 OFFCURVE",
"291 84 CURVE SMOOTH"
);
}
);
width = 665;
}
);
leftKerningGroup = a;
note = ascript;
rightKerningGroup = a;
unicode = 0251;
},
{
glyphname = amacron;
lastChange = "2015-11-30 01:00:51 +0000";
layers = (
{
layerId = "A85C0A33-2487-4E47-AED8-78B93E482A34";
name = "Regular Italic";
paths = (
{
closed = 1;
nodes = (
"325 -15 OFFCURVE",
"391 6 OFFCURVE",
"444 56 CURVE",
"433 0 LINE",
"555 0 LINE",
"657 480 LINE",
"531 480 LINE",
"521 433 LINE",
"483 475 OFFCURVE",
"425 495 OFFCURVE",
"348 495 CURVE SMOOTH",
"195 495 OFFCURVE",
"72 391 OFFCURVE",
"40 239 CURVE SMOOTH",
"7 85 OFFCURVE",
"100 -15 OFFCURVE",
"239 -15 CURVE SMOOTH"
);
},
{
closed = 1;
nodes = (
"185 84 OFFCURVE",
"149 141 OFFCURVE",
"168 239 CURVE SMOOTH",
"186 332 OFFCURVE",
"263 396 OFFCURVE",
"358 396 CURVE SMOOTH",
"439 396 OFFCURVE",
"483 353 OFFCURVE",
"490 288 CURVE",
"469 191 LINE",
"432 126 OFFCURVE",
"363 84 OFFCURVE",
"291 84 CURVE SMOOTH"
);
},
{
closed = 1;
nodes = (
"595 545 LINE",
"613 629 LINE",
"291 629 LINE",
"273 545 LINE"
);
}
);
width = 660;
}
);
leftKerningGroup = a;
note = amacron;
rightKerningGroup = a;
unicode = 0101;
},
